<?xml version="1.0" standalone="no"?>
<!DOCTYPE svg PUBLIC "-//W3C//DTD SVG 20010904//EN"
 "http://www.w3.org/TR/2001/REC-SVG-20010904/DTD/svg10.dtd">
<svg version="1.0" xmlns="http://www.w3.org/2000/svg"
 width="321.000000pt" height="321.000000pt" viewBox="0 0 321.000000 321.000000"
 preserveAspectRatio="xMidYMid meet">
<metadata>
Created by potrace 1.11, written by Peter Selinger 2001-2013
</metadata>
<g transform="translate(0.000000,321.000000) scale(0.100000,-0.100000)"
fill="#000000" stroke="none">
<path d="M1517 2833 c-30 -3 -44 -13 -69 -46 -60 -82 -194 -385 -177 -402 3
-3 296 -4 650 -3 l644 3 -60 64 c-170 181 -403 312 -640 360 -101 20 -279 33
-348 24z"/>
<path d="M1200 2769 c-186 -66 -390 -202 -508 -339 l-43 -50 224 0 224 0 37
113 c20 61 57 154 81 205 24 50 43 92 42 91 -1 0 -27 -9 -57 -20z"/>
<path d="M507 2158 c-25 -51 -57 -129 -72 -173 -24 -74 -55 -224 -55 -266 0
-18 14 -19 309 -19 l309 0 6 63 c3 34 8 98 11 142 4 44 15 135 26 203 10 67
19 127 19 132 0 6 -95 10 -254 10 l-253 0 -46 -92z"/>
<path d="M1226 2233 c-22 -72 -56 -346 -56 -455 l0 -78 833 0 833 0 -8 73
c-15 130 -76 316 -138 425 l-30 52 -715 0 c-671 0 -714 -1 -719 -17z"/>
<path d="M380 1516 c0 -115 57 -330 121 -458 115 -231 318 -436 544 -550 72
-37 244 -102 251 -95 2 1 -11 25 -28 52 -118 188 -221 544 -248 860 -6 72 -14
154 -16 183 l-5 52 -310 0 -309 0 0 -44z"/>
<path d="M1173 1438 c20 -415 154 -828 335 -1033 l34 -38 115 7 c318 18 577
128 800 339 216 205 348 477 378 780 l7 67 -838 0 -837 0 6 -122z"/>
</g>
</svg>
