<svg width="60" height="116" viewBox="0 0 60 116" xmlns="http://www.w3.org/2000/svg"@@if(context.class){ class="@@class"}>
<path fill-rule="evenodd" clip-rule="evenodd" d="M51.225 51.0961C46.9312 55.3806 31.875 67.0021 31.875 80.4544V86.0723C31.875 91.7787 36.6375 95.5316 37.95 96.8413C39.9938 98.8619 41.25 101.668 41.25 104.774C41.25 110.967 36.225 116 30 116C23.775 116 18.75 110.967 18.75 104.774C18.75 101.668 20.0063 98.8619 22.0312 96.8413C23.3625 95.5316 28.125 91.7787 28.125 86.0723C28.125 80.3658 28.125 80.4544 28.125 80.4544C28.125 67.0021 13.0687 55.3806 8.775 51.0961C3.35625 45.689 0 38.2052 0 29.9355C0 13.3961 13.4062 0.0187097 30 0C46.5938 0.0187097 60 13.3961 60 29.9355C60 38.2052 56.6437 45.689 51.225 51.0961Z"/>
</svg>
