<svg width="70" height="70" viewBox="0 0 70 70" fill="none" xmlns="http://www.w3.org/2000/svg">
<path class="l-color" d="M29.5111 58.8232H20.9759C23.1771 59.4623 24.7961 61.5074 24.7961 63.9216C24.7961 66.8614 22.4244 69.2331 19.4847 69.2331H6.58957V69.4461H29.5111C42.5198 68.7928 48.1294 68.7928 43.7553 61.0103C42.3068 58.454 32.4508 58.8232 29.5111 58.8232Z" fill="#2440A0"/>
<path class="l-color" d="M67.2591 50.217H52.7166V2.10181H60.8257L60.6127 9.35886L67.2591 9.99793V50.217Z" fill="#5FA8DE"/>
<path class="l-color" d="M43.9968 59.3914L23.802 58.9085V15.3662H28.8578L28.6164 51.4668H43.9968V59.3914Z" fill="#4376C4"/>
<path d="M10.1116 34.5952C9.75655 34.5952 9.40151 34.7372 9.14588 34.9929C8.89025 35.2485 8.74823 35.6035 8.74823 35.9586C8.74823 36.3136 8.89025 36.6687 9.14588 36.9243C9.40151 37.1799 9.75655 37.3219 10.1116 37.3219C10.4666 37.3219 10.8217 37.1799 11.0773 36.9243C11.3329 36.6687 11.475 36.3136 11.475 35.9586C11.475 35.6035 11.3329 35.2485 11.0773 34.9929C10.8359 34.7372 10.4808 34.5952 10.1116 34.5952Z" fill="black"/>
<path d="M69.6024 8.67722L61.3228 0.397647C61.0672 0.142017 60.7263 0 60.3571 0H29.2554C28.5027 0 27.8921 0.610672 27.8921 1.36336V15.0396H6.29134C2.82613 15.0396 0 17.8657 0 21.3309V64.8022C0 64.9868 0.042605 65.1572 0.0994116 65.3134C0.59647 67.9834 2.93974 70 5.73747 70H42.3778C44.6358 70 46.482 68.1538 46.482 65.8957V52.5036H68.6366C69.3893 52.5036 70 51.8929 70 51.1402V9.64293C70 9.27369 69.858 8.93285 69.6024 8.67722ZM61.7204 4.67235L65.3277 8.26537H61.7204V4.67235ZM42.3778 67.2591H5.73747C4.07588 67.2591 2.72672 65.9099 2.72672 64.2483C2.72672 62.5867 4.07588 61.2376 5.73747 61.2376H42.3778C42.8606 61.2376 43.3151 61.1524 43.7411 60.9961V65.8957C43.7553 66.6484 43.1305 67.2591 42.3778 67.2591ZM43.7553 57.1475C43.7553 57.9002 43.1447 58.5109 42.392 58.5109H11.4607C11.4749 58.4398 11.4749 58.3688 11.4749 58.312V41.8807C11.4749 41.128 10.8643 40.5173 10.1116 40.5173C9.3589 40.5173 8.74822 41.128 8.74822 41.8807V58.312C8.74822 58.383 8.74823 58.454 8.76243 58.5109H5.73747C4.62974 58.5109 3.60722 58.8233 2.72672 59.363V21.3309C2.72672 19.3711 4.31731 17.7805 6.27714 17.7805H27.8779V51.126C27.8779 51.8787 28.4885 52.4893 29.2412 52.4893H43.7269V57.1475H43.7553ZM30.6188 49.7626V2.74092H58.9937V9.64293C58.9937 10.3956 59.6044 11.0063 60.3571 11.0063H67.2591V49.7626H30.6188Z" fill="black"/>
<path d="M61.8625 15.0396H38.1741C37.4214 15.0396 36.8107 15.6502 36.8107 16.4029C36.8107 17.1556 37.4214 17.7663 38.1741 17.7663H61.8625C62.6152 17.7663 63.2258 17.1556 63.2258 16.4029C63.2258 15.6502 62.6152 15.0396 61.8625 15.0396Z" fill="black"/>
<path d="M61.8625 22.6942H38.1741C37.4214 22.6942 36.8107 23.3049 36.8107 24.0576C36.8107 24.8103 37.4214 25.4209 38.1741 25.4209H61.8625C62.6152 25.4209 63.2258 24.8103 63.2258 24.0576C63.2258 23.3049 62.6152 22.6942 61.8625 22.6942Z" fill="black"/>
<path d="M61.8625 30.349H38.1741C37.4214 30.349 36.8107 30.9597 36.8107 31.7124C36.8107 32.465 37.4214 33.0757 38.1741 33.0757H61.8625C62.6152 33.0757 63.2258 32.465 63.2258 31.7124C63.2258 30.9597 62.6152 30.349 61.8625 30.349Z" fill="black"/>
<path d="M61.8624 38.0037H43.8831C43.1304 38.0037 42.5198 38.6143 42.5198 39.367C42.5198 40.1197 43.1304 40.7304 43.8831 40.7304H61.8624C62.6151 40.7304 63.2258 40.1197 63.2258 39.367C63.2258 38.6143 62.6151 38.0037 61.8624 38.0037Z" fill="black"/>
<path d="M38.1741 38.0037C37.819 38.0037 37.464 38.1457 37.2084 38.4013C36.9527 38.6569 36.8107 39.012 36.8107 39.367C36.8107 39.7221 36.9527 40.0771 37.2084 40.3327C37.464 40.5884 37.819 40.7304 38.1741 40.7304C38.5291 40.7304 38.8842 40.5884 39.1398 40.3327C39.3954 40.0771 39.5374 39.7221 39.5374 39.367C39.5374 39.012 39.3954 38.6569 39.1398 38.4013C38.8842 38.1599 38.5291 38.0037 38.1741 38.0037Z" fill="black"/>
</svg>
