<svg width="72" height="72" xmlns="http://www.w3.org/2000/svg" viewBox="0 0 457.38 512">
	<defs>
		<style>.cls-1{fill:#5fa8de;}.cls-2{fill:#2440a0;}.cls-3{fill:#4376c4;}</style>
	</defs>
	<g>
		<g>
			<path class="l-color cls-1" d="M269.69,324s32.47,11.81,32.76,40.31,0,127.69,0,127.69H367.9V332.76l-14.53-14.53Z"/>
			<polygon class="l-color cls-2" points="186.79 34.8 262.19 70.8 311.8 94.8 316.69 108.8 328.69 108.8 380.28 90.8 231.06 8.8 186.79 34.8"/>
			<polygon class="l-color cls-3" points="245.47 68.82 245.47 157.35 280.15 145.32 302.45 155.6 315.48 148.32 311.8 94.8 245.47 68.82"/>
			<rect class="l-color cls-3" x="367.9" y="175.99" width="30.57" height="76.13"/>
			<path d="M228.69,372a38,38,0,1,0,38,38A38,38,0,0,0,228.69,372Zm0,56a18,18,0,1,1,18-18A18,18,0,0,1,228.69,428Z"/>
			<path d="M202.26,183.3a10,10,0,1,0,2.93,7.07A10.08,10.08,0,0,0,202.26,183.3Z"/>
			<path d="M269.26,183.3a10,10,0,1,0,2.93,7.07A10.08,10.08,0,0,0,269.26,183.3Z"/>
			<path d="M133.75,402.93a10,10,0,1,0,2.93,7.07A10.06,10.06,0,0,0,133.75,402.93Z"/>
			<path d="M447.38,408a10,10,0,0,0,10-10V371.47a50.91,50.91,0,0,0-39.33-49.72L288.71,291.13V261.75A86.56,86.56,0,0,0,314.83,216a34,34,0,0,0,9.94-66.47V125.2l45.51-23.12v64.07a26.44,26.44,0,0,0-16.39,24.42V256.3a10,10,0,0,0,10,10h32.78a10,10,0,0,0,10-10V190.57a26.42,26.42,0,0,0-16.39-24.42V86.44c0-.13,0-.26,0-.38s0-.18,0-.27a10,10,0,0,0-5.47-8.92L235.59,1.08a10,10,0,0,0-9.06,0L77.32,76.87a10,10,0,0,0,0,17.83l60,30.5v23.2a34,34,0,0,0,5.2,67.57,86.56,86.56,0,0,0,25.55,45.26v29.91L39.29,321.73A50.93,50.93,0,0,0,0,371.45V502a10,10,0,0,0,10,10H447.38a10,10,0,0,0,10-10V470.5a10,10,0,0,0-20,0V492H380.69V348a43.68,43.68,0,0,0-2.7-15.18l35.46,8.39a31,31,0,0,1,23.93,30.26V398A10,10,0,0,0,447.38,408ZM373.9,190.56a6.39,6.39,0,0,1,12.77,0V246.3H373.89V190.56ZM76.69,348V492H20V371.45a31,31,0,0,1,23.91-30.26l35.51-8.43A43.53,43.53,0,0,0,76.69,348Zm252-166a14,14,0,0,1-12,13.84V168.14A14,14,0,0,1,328.69,182Zm-188,13.84a14,14,0,0,1,0-27.68Zm.81-108.56a10,10,0,0,0-4.14,8.11v7.39l-33.43-17L231.06,21.22,358.2,85.79l-33.43,17V95.37a10,10,0,0,0-4.36-8.26l-3.22-2.19A153.34,153.34,0,0,0,141.5,87.26Zm15.86,13.34a133.32,133.32,0,0,1,147.41.06v39.08a87.09,87.09,0,0,0-73.61,15.86,87.06,87.06,0,0,0-73.8-15.81V100.6Zm3.33,97.47V159.59A66.92,66.92,0,0,1,224.23,176a10,10,0,0,0,13.85,0,66.8,66.8,0,0,1,58.61-17.53v39.58a66.66,66.66,0,0,1-66.59,66.59h-2.82A66.66,66.66,0,0,1,160.69,198.07ZM270,304H186.79a9.88,9.88,0,0,0,1.32-5V275.28a86,86,0,0,0,39.17,9.38h2.82a86,86,0,0,0,38.61-9.1V299A10,10,0,0,0,270,304Zm90.66,188h-224V445.67a10,10,0,1,0-20,0V492h-20V348a24,24,0,0,1,24-24h216a24,24,0,0,1,24,24Z"/>
			<path d="M454.45,423.68a10,10,0,1,0,2.93,7.07A10.08,10.08,0,0,0,454.45,423.68Z"/>
		</g>
	</g>
</svg>
