<svg width="72" height="72" xmlns="http://www.w3.org/2000/svg" viewBox="0 0 508 503.86">
	<defs>
		<style>.cls-1{fill:#5fa8de;}.cls-2{fill:#4376c4;}.cls-3{fill:#2440a0;}</style>
	</defs>
	<g>
		<g>
			<polyline class="l-color cls-1" points="364.49 124.63 364.49 124.63 435.91 124.63 253.41 16.75 220.15 38.14 358.2 118.33"/>
			<path d="M433.36,127.88H247a10.19,10.19,0,0,1-1.24-.08,10.06,10.06,0,0,1-1.24.08H69.55a10,10,0,0,1-5.12-18.6L245.76,1.41a10,10,0,0,1,10.2,0L438.45,109.27a10,10,0,0,1-5.09,18.61Zm-327.44-20H244.47a10.08,10.08,0,0,1,1.24.07,10.19,10.19,0,0,1,1.24-.07H396.8L250.89,21.63Z"/>
			<rect class="l-color cls-2" x="327.03" y="153.5" width="80.72" height="186.87"/>
			<path d="M444.38,328.15H412.2V161.48h1.5a10,10,0,0,0,0-20H88.88a10,10,0,0,0,0,20h2.67V328.15H58.2a10,10,0,1,0,0,20H444.38a10,10,0,0,0,0-20Zm-52.18,0H337V161.48H392.2ZM251.87,181.27a10,10,0,0,0-10,10V328.15H186.71V161.48H317V328.15H261.87V191.27A10,10,0,0,0,251.87,181.27ZM111.55,161.48h55.16V328.15H111.55Z"/>
			<circle cx="168.06" cy="439.02" r="9.58"/>
			<path class="l-color cls-3" d="M443.17,382.26H387.58a59,59,0,0,1,0,105.88h55.59c32,0,58-23.7,58-52.94S475.2,382.26,443.17,382.26Z"/>
			<path d="M313.09,94a9.92,9.92,0,0,1-5-1.34L250.62,59.5,193.5,92.64a10,10,0,1,1-10-17.3l62.11-36a10,10,0,0,1,10,0l62.49,36a10,10,0,0,1-5,18.66Z"/>
			<path d="M440,367.78H314.89c-1.15-.06-2.3-.09-3.47-.09a8.9,8.9,0,0,0-1.26.09H15.67A15.69,15.69,0,0,0,0,383.45V488.11a15.69,15.69,0,0,0,15.67,15.67H310.16a10.66,10.66,0,0,0,1.26.08c1.17,0,2.32,0,3.47-.08H440a68,68,0,0,0,0-136ZM246.19,388.92h50.2v52.49l-26.25-15.72-23.95,15.19Zm68,94.86H20V448.94H131.39a9.93,9.93,0,1,0,0-19.85H20V387.78H226.39V450.6a14.4,14.4,0,0,0,7.47,12.6,14.58,14.58,0,0,0,14.82-.46h0l21.76-13.8,23.77,14.24a14.51,14.51,0,0,0,22-12.34V387.93a48.08,48.08,0,0,1-2,95.85Zm125.77,0H359.67a68,68,0,0,0,0-96H440a48,48,0,0,1,0,96Z"/>
			<circle cx="250.79" cy="83.99" r="9.58"/>
		</g>
	</g>
</svg>
