<svg width="9" height="8" viewBox="0 0 9 8" fill="none" xmlns="http://www.w3.org/2000/svg">
<path d="M8.42992 0.012207C8.59164 0.012207 8.72507 0.0655404 8.83019 0.172207C8.93531 0.278874 8.98787 0.414258 8.98787 0.578361V5.42759C8.98787 5.58349 8.93531 5.71477 8.83019 5.82144C8.72507 5.9281 8.59164 5.98554 8.42992 5.99375H5.6159V7.98759L3.37197 5.99375H0.557952C0.404313 5.99375 0.274933 5.93631 0.169811 5.82144C0.06469 5.70657 0.00808625 5.57528 0 5.42759V0.578361C0 0.414258 0.0566038 0.278874 0.169811 0.172207C0.283019 0.0655404 0.412399 0.012207 0.557952 0.012207H8.42992Z" fill="#002B49"/>
</svg>
