<svg width="72" height="72" xmlns="http://www.w3.org/2000/svg" viewBox="0 0 512 512">
	<defs>
		<style>.cls-1{fill:#4376c4;}.cls-2{fill:#5fa8de;}.cls-3{fill:#2440a0;}</style>
	</defs>
	<g>
		<g>
			<path class="l-color cls-1" d="M417,254H340.11A58,58,0,0,1,325,368H37v2H417a58,58,0,0,0,0-116Z"/>
			<path class="l-color cls-2" d="M373.85,254V149.5h-183v112l79,21.93Z"/>
			<path class="l-color cls-2" d="M116.89,124.15l145.39,60.58L468.86,98.65,323.47,38.06Z"/>
			<path class="l-color cls-3" d="M436,370H329.9a66,66,0,0,1-18.57,129.33H10V502H436a66,66,0,0,0,0-132Z"/>
			<path d="M461.79,195.93a10,10,0,1,0,7.07-2.93A10,10,0,0,0,461.79,195.93Z"/>
			<path d="M460.62,364.11A68,68,0,0,0,417,244H383.85V144.9l75-31.25V163a10,10,0,0,0,20,0V98.65a10,10,0,0,0-6.16-9.23L260,.77a10,10,0,0,0-7.69,0L39.55,89.42a10,10,0,0,0,0,18.46l88.85,37V244H37a10,10,0,0,0-10,10V360H10A10,10,0,0,0,0,370V502a10,10,0,0,0,10,10H436a76,76,0,0,0,24.62-147.89ZM465,312a48.05,48.05,0,0,1-48,48H326.12a68,68,0,0,0,9.14-84.69l40-11.31H417A48.05,48.05,0,0,1,465,312ZM256.13,20.83,418.86,88.65H256.13a10,10,0,0,0,0,20H418.86L256.13,176.46,69.39,98.65Zm-3.85,175.69a10,10,0,0,0,7.69,0l103.88-43.29v93.21L257.22,276.61,148.4,246.4V153.23ZM47,322H184a10,10,0,0,0,0-20H47V264h90l117.53,32.64a10.18,10.18,0,0,0,2.68.36,9.71,9.71,0,0,0,2.72-.38l54.78-15.5A48,48,0,0,1,278,360H47ZM20,492V468H240a10,10,0,0,0,0-20H20V424H141a10,10,0,0,0,0-20H20V380H244a56,56,0,0,1,0,112Zm416,0H295.32a75.87,75.87,0,0,0,0-112H436a56,56,0,0,1,0,112Z"/>
			<path d="M187.67,404a10,10,0,1,0,7.07,2.93A10.06,10.06,0,0,0,187.67,404Z"/>
		</g>
	</g>
</svg>
