<svg width="524" height="510" viewBox="0 0 524 510" fill="none" xmlns="http://www.w3.org/2000/svg">
<path class="l-color" d="M420.67 238.59H374.96V449.71H420.67V238.59Z" fill="#2440A0"/>
<path class="l-color" d="M167.38 101.43V469.67H219.11L209.11 101.43H167.38Z" fill="#4376C4"/>
<path class="l-color" d="M456.2 8.22022H439.92C442.92 22.0402 467.47 159.75 354.06 226.31H456.2C465.054 226.312 473.822 224.569 482.002 221.181C490.182 217.793 497.615 212.827 503.876 206.566C510.137 200.305 515.103 192.873 518.491 184.692C521.878 176.512 523.621 167.744 523.62 158.89V75.6402C523.621 66.7861 521.878 58.0185 518.491 49.8381C515.103 41.6578 510.137 34.2249 503.876 27.9641C497.615 21.7034 490.182 16.7373 482.002 13.3496C473.822 9.96187 465.054 8.2189 456.2 8.22022V8.22022Z" fill="#5FA8DE"/>
<path d="M455.52 0H259.66C241.605 0.0211724 224.296 7.20277 211.529 19.9694C198.763 32.7361 191.581 50.0453 191.56 68.1V177.67C191.581 195.725 198.763 213.034 211.529 225.801C224.296 238.567 241.605 245.749 259.66 245.77H269.77L293.45 275.77C294.362 276.923 295.523 277.855 296.846 278.495C298.169 279.136 299.62 279.469 301.09 279.469C302.56 279.469 304.011 279.136 305.334 278.495C306.657 277.855 307.818 276.923 308.73 275.77L332.42 245.77H455.52C473.575 245.749 490.884 238.567 503.651 225.801C516.417 213.034 523.599 195.725 523.62 177.67V68.1C523.599 50.0453 516.417 32.7361 503.651 19.9694C490.884 7.20277 473.575 0.0211724 455.52 0V0ZM374.61 149.64V226.31H340.61V149.64C340.61 148.363 340.358 147.098 339.869 145.918C339.38 144.738 338.663 143.666 337.76 142.763C336.856 141.861 335.783 141.145 334.603 140.657C333.422 140.169 332.157 139.919 330.88 139.92H211V105.92H330.84C333.421 105.92 335.895 104.895 337.72 103.07C339.545 101.245 340.57 98.7706 340.57 96.19V19.46H374.57V96.15C374.57 97.4278 374.822 98.693 375.311 99.8735C375.8 101.054 376.516 102.127 377.42 103.03C378.323 103.934 379.396 104.65 380.577 105.139C381.757 105.628 383.022 105.88 384.3 105.88H504.17V139.88H384.34C383.06 139.88 381.792 140.133 380.61 140.624C379.427 141.114 378.353 141.834 377.449 142.74C376.545 143.647 375.829 144.723 375.342 145.907C374.855 147.091 374.606 148.36 374.61 149.64V149.64ZM394.07 19.46H447.28L394.07 72.66V19.46ZM321.12 72.66L267.91 19.46H321.12V72.66ZM394.07 173.13L447.25 226.31H394.07V173.13ZM504.17 68.13V86.42H407.83L471.94 22.31C481.368 25.7028 489.521 31.9196 495.289 40.1134C501.056 48.3073 504.157 58.0799 504.17 68.1V68.13ZM243.25 22.31L307.36 86.42H211V68.1C211.013 58.0772 214.116 48.3022 219.888 40.1077C225.659 31.9133 233.817 25.6983 243.25 22.31V22.31ZM211 177.67V159.37H307.34L243.25 223.46C233.817 220.072 225.659 213.857 219.888 205.662C214.116 197.468 211.013 187.693 211 177.67V177.67ZM320 230.02L301 254.08L282 230.02C281.089 228.865 279.929 227.931 278.606 227.288C277.283 226.646 275.831 226.311 274.36 226.31H267.81L320.99 173.13V228.9C320.65 229.24 320.339 229.608 320.06 230L320 230.02ZM471.86 223.46L407.77 159.37H504.11V177.67C504.102 187.686 501.007 197.455 495.247 205.649C489.487 213.843 481.342 220.062 471.92 223.46H471.86Z" fill="black"/>
<path d="M61.8799 158.58C64.2306 158.589 66.5117 157.783 68.3344 156.298C70.1571 154.814 71.4087 152.743 71.8757 150.439C72.3428 148.135 71.9966 145.741 70.8959 143.663C69.7953 141.586 68.0085 139.955 65.8399 139.048C63.6714 138.14 61.2552 138.013 59.0033 138.687C56.7514 139.362 54.803 140.796 53.4903 142.746C52.1775 144.696 51.5815 147.041 51.8039 149.381C52.0263 151.722 53.0533 153.912 54.7099 155.58C56.6134 157.483 59.1888 158.56 61.8799 158.58V158.58Z" fill="black"/>
<path d="M99.92 158.58H167.38C170.015 158.497 172.515 157.392 174.35 155.499C176.185 153.605 177.211 151.072 177.211 148.435C177.211 145.798 176.185 143.265 174.35 141.372C172.515 139.478 170.015 138.373 167.38 138.29H99.92C98.5609 138.247 97.2071 138.478 95.939 138.969C94.6709 139.46 93.5142 140.2 92.5378 141.146C91.5614 142.093 90.785 143.225 90.2548 144.477C89.7246 145.73 89.4514 147.075 89.4514 148.435C89.4514 149.795 89.7246 151.141 90.2548 152.393C90.785 153.645 91.5614 154.778 92.5378 155.724C93.5142 156.67 94.6709 157.411 95.939 157.901C97.2071 158.392 98.5609 158.623 99.92 158.58V158.58Z" fill="black"/>
<path d="M61.8799 288.42H167.38C170.015 288.337 172.515 287.232 174.35 285.339C176.185 283.445 177.211 280.912 177.211 278.275C177.211 275.638 176.185 273.105 174.35 271.211C172.515 269.318 170.015 268.213 167.38 268.13H61.8799C60.5209 268.087 59.1671 268.318 57.899 268.809C56.6308 269.299 55.4742 270.04 54.4978 270.986C53.5213 271.932 52.745 273.065 52.2148 274.317C51.6846 275.569 51.4114 276.915 51.4114 278.275C51.4114 279.635 51.6846 280.981 52.2148 282.233C52.745 283.485 53.5213 284.618 54.4978 285.564C55.4742 286.51 56.6308 287.251 57.899 287.741C59.1671 288.232 60.5209 288.463 61.8799 288.42Z" fill="black"/>
<path d="M61.88 353.34H167.38C170.069 353.34 172.648 352.272 174.55 350.37C176.452 348.468 177.52 345.889 177.52 343.2C177.52 340.511 176.452 337.932 174.55 336.03C172.648 334.128 170.069 333.06 167.38 333.06H61.88C60.5484 333.06 59.2298 333.322 57.9996 333.832C56.7693 334.341 55.6515 335.088 54.7099 336.03C53.7683 336.972 53.0214 338.089 52.5119 339.32C52.0023 340.55 51.74 341.868 51.74 343.2C51.74 344.532 52.0023 345.85 52.5119 347.08C53.0214 348.311 53.7683 349.429 54.7099 350.37C55.6515 351.312 56.7693 352.059 57.9996 352.568C59.2298 353.078 60.5484 353.34 61.88 353.34V353.34Z" fill="black"/>
<path d="M177.52 408.12C177.515 405.434 176.444 402.86 174.543 400.963C172.642 399.066 170.066 398 167.38 398H61.8799C60.5209 397.957 59.1671 398.188 57.899 398.679C56.6308 399.17 55.4742 399.91 54.4978 400.856C53.5213 401.802 52.745 402.935 52.2148 404.187C51.6846 405.44 51.4114 406.785 51.4114 408.145C51.4114 409.505 51.6846 410.851 52.2148 412.103C52.745 413.355 53.5213 414.488 54.4978 415.434C55.4742 416.38 56.6308 417.121 57.899 417.611C59.1671 418.102 60.5209 418.333 61.8799 418.29H167.38C168.714 418.29 170.035 418.027 171.267 417.515C172.499 417.004 173.619 416.254 174.561 415.31C175.503 414.365 176.249 413.243 176.757 412.01C177.264 410.776 177.524 409.454 177.52 408.12V408.12Z" fill="black"/>
<path d="M438.22 302.41V242.31C431.523 243.802 424.75 244.927 417.93 245.68V302.41C417.933 305.1 419.003 307.679 420.906 309.581C422.81 311.482 425.39 312.55 428.08 312.55V312.55C429.412 312.55 430.73 312.288 431.96 311.778C433.191 311.269 434.308 310.522 435.25 309.58C436.192 308.639 436.939 307.521 437.448 306.29C437.958 305.06 438.22 303.742 438.22 302.41V302.41Z" fill="black"/>
<path d="M417.93 298.19V449.71H280C261.279 449.686 243.207 456.573 229.25 469.05V226.33C220.724 216.127 213.888 204.625 209 192.26V469.05C195.04 456.57 176.965 449.684 158.24 449.71H20.29V106.84H158.21C166.229 106.828 174.155 108.548 181.449 111.88C188.742 115.213 195.23 120.08 200.47 126.15C201.401 118.271 203.03 110.49 205.34 102.9C191.92 92.2985 175.312 86.5406 158.21 86.5601H10.14C7.45071 86.5601 4.87156 87.6284 2.96994 89.53C1.06832 91.4317 0 94.0108 0 96.7001L0 459.86C0 462.549 1.06832 465.129 2.96994 467.03C4.87156 468.932 7.45071 470 10.14 470H158.21C168.386 469.984 178.373 472.757 187.084 478.018C195.795 483.278 202.897 490.826 207.62 499.84C208.02 502.604 209.403 505.132 211.515 506.96C213.627 508.788 216.327 509.794 219.12 509.794C221.913 509.794 224.613 508.788 226.725 506.96C228.837 505.132 230.22 502.604 230.62 499.84C235.34 490.83 242.438 483.286 251.144 478.025C259.849 472.765 269.829 469.989 280 470H428.08C430.769 470 433.348 468.932 435.25 467.03C437.152 465.129 438.22 462.549 438.22 459.86V298.19C438.22 295.501 437.152 292.922 435.25 291.02C433.348 289.118 430.769 288.05 428.08 288.05V288.05C425.39 288.05 422.81 289.118 420.906 291.019C419.003 292.921 417.933 295.5 417.93 298.19V298.19Z" fill="black"/>
</svg>
