<svg width="72" height="72" viewBox="0 0 72 72" fill="none" xmlns="http://www.w3.org/2000/svg">
<path class="l-color" d="M46.4038 4.26599C51.7872 10.2732 55.0665 18.2249 55.0665 26.931C55.0665 45.6928 39.8597 60.8996 21.0979 60.8996C18.1523 60.8996 15.2938 60.5223 12.5659 59.8258C18.7908 66.7618 27.8162 71.1293 37.8718 71.1293C56.6336 71.1293 71.8404 55.9226 71.8404 37.1608C71.8404 21.3446 61.0302 8.05317 46.4038 4.26599Z" fill="#5FA8DE"/>
<path d="M36 72C26.3797 72 17.3398 68.2563 10.549 61.451C3.74365 54.6602 0 45.6203 0 36C0 26.3797 3.74365 17.3398 10.549 10.549C17.3398 3.74365 26.3797 0 36 0C45.6203 0 54.6602 3.74365 61.451 10.549C68.2563 17.3543 72 26.3942 72 36C72 45.6058 68.2563 54.6602 61.451 61.451C54.6602 68.2563 45.6203 72 36 72ZM36 2.90206C27.1632 2.90206 18.8489 6.34099 12.5949 12.5949C6.34099 18.8489 2.90206 27.1632 2.90206 36C2.90206 44.8368 6.34099 53.1511 12.5949 59.4051C18.8489 65.659 27.1632 69.0979 36 69.0979C44.8368 69.0979 53.1511 65.659 59.4051 59.4051C65.659 53.1511 69.0979 44.8368 69.0979 36C69.0979 27.1632 65.659 18.8489 59.4051 12.5949C53.1511 6.34099 44.8368 2.90206 36 2.90206Z" fill="black"/>
<path d="M35.318 71.1003C25.9879 71.1003 18.3845 63.5115 18.3845 54.1668V33.3156C18.3845 32.3724 19.1536 31.6179 20.0822 31.6179C21.0109 31.6179 21.7799 32.3869 21.7799 33.3156V54.1814C21.7799 61.6396 27.8452 67.7049 35.3035 67.7049C42.7618 67.7049 48.8271 61.6396 48.8271 54.1814V17.1076C48.8271 9.6493 42.7618 3.584 35.3035 3.584C27.8452 3.584 21.7799 9.6493 21.7799 17.1076V20.474C21.7799 21.4171 21.0109 22.1717 20.0822 22.1717C19.1536 22.1717 18.3845 21.4026 18.3845 20.474V17.1076C18.3845 7.77747 25.9734 0.188599 35.318 0.188599C44.6626 0.188599 52.237 7.77747 52.237 17.1076V54.1668C52.237 63.5115 44.6481 71.1003 35.318 71.1003Z" fill="black"/>
<path d="M35.318 17.0205C34.52 17.0205 33.867 16.3676 33.867 15.5695V1.63963C33.867 0.841561 34.52 0.188599 35.318 0.188599C36.1161 0.188599 36.7691 0.841561 36.7691 1.63963V15.5695C36.7691 16.3676 36.1161 17.0205 35.318 17.0205Z" fill="black"/>
<path d="M35.318 70.9988C34.52 70.9988 33.867 70.3458 33.867 69.5478V55.6179C33.867 54.8198 34.52 54.1669 35.318 54.1669C36.1161 54.1669 36.7691 54.8198 36.7691 55.6179V69.5478C36.7691 70.3458 36.1161 70.9988 35.318 70.9988Z" fill="black"/>
<path d="M20.0822 38.4232H1.71223C0.914162 38.4232 0.2612 37.7702 0.2612 36.9722C0.2612 36.1741 0.914162 35.5211 1.71223 35.5211H20.0822C20.8803 35.5211 21.5333 36.1741 21.5333 36.9722C21.5333 37.7702 20.8803 38.4232 20.0822 38.4232Z" fill="black"/>
<path d="M69.0689 39.0472H29.4994C28.7013 39.0472 28.0484 38.3942 28.0484 37.5962C28.0484 36.7981 28.7013 36.1451 29.4994 36.1451H69.0689C69.867 36.1451 70.5199 36.7981 70.5199 37.5962C70.5199 38.3942 69.867 39.0472 69.0689 39.0472Z" fill="black"/>
<path d="M50.1765 22.2878H21.156C16.266 22.2878 11.7243 20.0532 8.70618 16.1645C8.21283 15.526 8.32891 14.6264 8.96736 14.133C9.60581 13.6397 10.5055 13.7558 10.9988 14.3942C13.4655 17.572 17.1657 19.3858 21.156 19.3858H50.1765C54.6747 19.3858 58.9117 16.9626 61.2334 13.0738C61.6397 12.3918 62.5393 12.1597 63.2213 12.5659C63.9033 12.9722 64.1354 13.8719 63.7291 14.5538C60.8851 19.3277 55.6904 22.2878 50.1765 22.2878Z" fill="black"/>
<path d="M9.17051 59.0133C8.92384 59.0133 8.66265 58.9407 8.43049 58.8101C7.7485 58.4038 7.51634 57.5042 7.92263 56.8222C10.7666 52.0484 15.9613 49.0883 21.4752 49.0883H50.4958C55.3857 49.0883 59.9275 51.3228 62.9456 55.2116C63.4389 55.85 63.3229 56.7497 62.6844 57.243C62.046 57.7364 61.1463 57.6203 60.653 56.9818C58.1862 53.8041 54.4861 51.9903 50.4958 51.9903H21.4752C16.977 51.9903 12.74 54.4135 10.4184 58.3023C10.1427 58.7521 9.66386 59.0133 9.17051 59.0133Z" fill="black"/>
<path d="M20.0387 28.8899C20.9763 28.8899 21.7364 28.1298 21.7364 27.1922C21.7364 26.2546 20.9763 25.4945 20.0387 25.4945C19.1011 25.4945 18.341 26.2546 18.341 27.1922C18.341 28.1298 19.1011 28.8899 20.0387 28.8899Z" fill="black"/>
</svg>
