<svg width="63" height="63" viewBox="0 0 63 63" fill="none" xmlns="http://www.w3.org/2000/svg">
<g clip-path="url(#clip0)">
<path class="l-color" d="M51.3105 31.2539H41.8482C44.8875 32.066 47.127 34.8469 47.127 38.1445C47.127 42.082 43.9277 45.2812 39.9902 45.2812H4.55273V45.5273H51.3105C55.248 45.5273 58.4473 42.3281 58.4473 38.3906C58.4473 34.4531 55.248 31.2539 51.3105 31.2539Z" fill="#4376C4"/>
<path class="l-color" d="M41.3438 38.3906C41.3438 34.4531 38.1445 31.2539 34.207 31.2539H4.55273V45.5273H34.207C38.1445 45.5273 41.3438 42.3281 41.3438 38.3906Z" fill="white"/>
<path class="l-color" d="M46.0073 31.2539V18.3955H23.4897V32.1768L33.2104 34.8715L46.0073 31.2539Z" fill="#5FA8DE"/>
<path class="l-color" d="M14.3843 15.27L32.2753 22.7267L57.6968 12.1323L39.8058 4.68799L14.3843 15.27Z" fill="#5FA8DE"/>
<path class="l-color" d="M53.6484 45.5273H40.5932C43.9646 46.5117 46.4256 49.6248 46.4256 53.3162C46.4256 57.8074 42.7957 61.4373 38.3045 61.4373H1.23047V61.7695H53.6484C58.1273 61.7695 61.7695 58.1273 61.7695 53.6484C61.7695 49.1572 58.1273 45.5273 53.6484 45.5273Z" fill="#2440A0"/>
<path class="l-color" d="M30.0234 61.7695H1.23047V45.5273H30.0234C34.5023 45.5273 38.1445 49.1572 38.1445 53.6484C38.1445 58.1396 34.5023 61.7695 30.0234 61.7695Z" fill="#EDF2FA"/>
<path d="M56.8231 24.1049C56.5894 24.3387 56.4663 24.6463 56.4663 24.9785C56.4663 25.2984 56.6017 25.6184 56.8231 25.8521C57.0569 26.0859 57.3646 26.209 57.6968 26.209C58.0167 26.209 58.3366 26.0736 58.5704 25.8521C58.8042 25.6184 58.9272 25.3107 58.9272 24.9785C58.9272 24.6586 58.7919 24.3387 58.5704 24.1049C58.3366 23.8711 58.029 23.748 57.6968 23.748C57.3646 23.748 57.0446 23.8834 56.8231 24.1049Z" fill="black"/>
<path d="M56.6754 44.8016C58.5088 43.2635 59.6777 40.9625 59.6777 38.3908C59.6777 33.7766 55.9248 30.0236 51.3105 30.0236H47.2377V17.8297L56.4662 13.9783V20.0568C56.4662 20.7336 57.0199 21.2873 57.6967 21.2873C58.3734 21.2873 58.9271 20.7336 58.9271 20.0568V12.1326C58.9271 11.6404 58.6318 11.1852 58.1643 11.0006L31.9922 0.0986328C31.6846 -0.0244141 31.3523 -0.0244141 31.0447 0.0986328L4.87266 11.0006C4.41738 11.1975 4.10977 11.6404 4.10977 12.1326C4.10977 12.6248 4.40508 13.0801 4.87266 13.2646L15.8115 17.8174V30.0236H4.55273C3.87598 30.0236 3.32227 30.5773 3.32227 31.2541V44.2971H1.23047C0.553711 44.2971 0 44.8508 0 45.5275V61.7697C0 62.4465 0.553711 63.0002 1.23047 63.0002H53.6484C58.8041 63.0002 63 58.8043 63 53.6486C63 49.5512 60.3545 46.0689 56.6754 44.8016ZM57.2168 38.3908C57.2168 41.6516 54.5713 44.2971 51.3105 44.2971H40.1256C41.6391 42.7836 42.5742 40.6918 42.5742 38.3908C42.5742 36.7666 42.1066 35.2162 41.2576 33.875L46.1795 32.4846H51.3105C54.5713 32.4846 57.2168 35.1301 57.2168 38.3908ZM31.5123 2.55957L51.532 10.9021H31.5123C30.8355 10.9021 30.2818 11.4559 30.2818 12.1326C30.2818 12.8094 30.8355 13.3631 31.5123 13.3631H51.532L31.5123 21.7057L8.53945 12.1326L31.5123 2.55957ZM31.0447 24.1789C31.1924 24.2404 31.3523 24.2773 31.5123 24.2773C31.6723 24.2773 31.8322 24.2404 31.9799 24.1789L44.7645 18.851V30.3189L31.6477 34.035L18.2602 30.3189V18.851L31.0447 24.1789ZM5.7832 39.6213H22.6406C23.3174 39.6213 23.8711 39.0676 23.8711 38.3908C23.8711 37.7141 23.3174 37.1604 22.6406 37.1604H5.7832V32.4846H16.8574L31.3154 36.4959C31.4262 36.5205 31.5369 36.5451 31.6477 36.5451C31.7584 36.5451 31.8691 36.5328 31.9799 36.4959L38.7229 34.5887C39.6211 35.6469 40.101 36.9758 40.101 38.3908C40.101 41.6516 37.4555 44.2971 34.1947 44.2971H5.7832V39.6213ZM2.46094 60.5393V57.5861H29.5312C30.208 57.5861 30.7617 57.0324 30.7617 56.3557C30.7617 55.6789 30.208 55.1252 29.5312 55.1252H2.46094V52.1721H17.3496C18.0264 52.1721 18.5801 51.6184 18.5801 50.9416C18.5801 50.2648 18.0264 49.7111 17.3496 49.7111H2.46094V46.758H30.0234C33.8256 46.758 36.9141 49.8465 36.9141 53.6486C36.9141 57.4508 33.8256 60.5393 30.0234 60.5393H2.46094ZM53.6484 60.5393H36.3357C38.2061 58.8289 39.375 56.368 39.375 53.6486C39.375 50.9293 38.2061 48.4684 36.3357 46.758H53.6484C57.4506 46.758 60.5391 49.8465 60.5391 53.6486C60.5391 57.4508 57.4506 60.5393 53.6484 60.5393Z" fill="black"/>
<path d="M23.0957 49.7109C22.7758 49.7109 22.4559 49.8463 22.2221 50.0678C21.9883 50.3016 21.8652 50.6092 21.8652 50.9414C21.8652 51.2736 22.0006 51.5813 22.2221 51.815C22.4559 52.0488 22.7635 52.1719 23.0957 52.1719C23.4156 52.1719 23.7355 52.0365 23.9693 51.815C24.2031 51.5936 24.3262 51.2736 24.3262 50.9414C24.3262 50.6092 24.1908 50.3016 23.9693 50.0678C23.7355 49.8463 23.4156 49.7109 23.0957 49.7109Z" fill="black"/>
</g>
<defs>
<clipPath id="clip0">
<rect width="63" height="63" fill="white"/>
</clipPath>
</defs>
</svg>
