<svg width="65" height="57" viewBox="0 0 65 57" fill="none" xmlns="http://www.w3.org/2000/svg">
<path class="l-color" d="M48.9268 23.457H55.3452C59.6967 23.457 63.2322 27.2172 63.2322 31.8597C63.2322 36.5023 59.6967 40.2625 55.3452 40.2625L49.3347 39.9095C48.8996 33.6516 48.9268 23.457 48.9268 23.457Z" fill="#4376C4"/>
<path class="l-color" d="M7.66946 14.81C12.7552 14.81 16.8755 10.6969 16.8755 5.61996C16.8755 4.08603 16.4948 2.63354 15.8285 1.37109C20.4791 1.83263 24.1098 5.74214 24.1098 10.5068C24.1098 15.5838 19.9895 19.6969 14.9038 19.6969C11.3546 19.6969 8.28138 17.7014 6.74477 14.7693C7.05754 14.7964 7.3703 14.81 7.66946 14.81Z" fill="#5FA8DE"/>
<path class="l-color" d="M56.3515 39.5159H49.2531V41.9322C50.7762 43.3711 51.728 45.4073 51.728 47.6607C51.728 51.2987 49.2531 54.3665 45.8943 55.2625H56.3515C60.7029 55.2625 64.2385 51.7331 64.2385 47.3892C64.2385 43.0317 60.7165 39.5159 56.3515 39.5159Z" fill="#2440A0"/>
<path class="l-color" d="M36.7155 14.4842C41.8013 14.4842 45.9216 10.3711 45.9216 5.29416C45.9216 3.76022 45.5408 2.30773 44.8745 1.04529C49.5251 1.50683 53.1559 5.41633 53.1559 10.181C53.1559 15.258 49.0356 19.3711 43.9498 19.3711C40.4006 19.3711 37.3274 17.3756 35.7908 14.4435C36.1036 14.4706 36.4027 14.4842 36.7155 14.4842Z" fill="#5FA8DE"/>
<path d="M55.7531 57H2.13494C0.965481 57 0 56.0498 0 54.8688V40.6697C0 39.5023 0.951883 38.5385 2.13494 38.5385H39.2856V41.2534H2.71967V54.285H55.7531C59.3567 54.285 62.2803 51.3665 62.2803 47.7692C62.2803 44.1719 59.3567 41.2534 55.7531 41.2534H49.3483V38.5385H55.7531C60.8525 38.5385 65 42.6787 65 47.7692C65 52.8597 60.8525 57 55.7531 57Z" fill="black"/>
<path d="M1.93096 47.7692H17.2835C18.0314 47.7692 18.6297 47.1583 18.6297 46.4253C18.6297 45.6787 18.0178 45.0814 17.2835 45.0814H1.93096C1.18305 45.0814 0.584724 45.6923 0.584724 46.4253C0.584724 47.1719 1.18305 47.7692 1.93096 47.7692Z" fill="black"/>
<path d="M2.80126 11.8914H6.16005C6.90795 11.8914 7.50628 11.2805 7.50628 10.5475C7.50628 9.8009 6.89436 9.20361 6.16005 9.20361H2.80126C2.05335 9.20361 1.45502 9.81447 1.45502 10.5475C1.45502 11.2805 2.06695 11.8914 2.80126 11.8914Z" fill="black"/>
<path d="M53.1151 11.8914H56.4738C57.2218 11.8914 57.8201 11.2805 57.8201 10.5475C57.8201 9.8009 57.2082 9.20361 56.4738 9.20361H53.1151C52.3672 9.20361 51.7688 9.81447 51.7688 10.5475C51.7688 11.2805 52.3808 11.8914 53.1151 11.8914Z" fill="black"/>
<path d="M23.6339 47.7285C24.3549 47.7285 24.9393 47.1451 24.9393 46.4254C24.9393 45.7056 24.3549 45.1222 23.6339 45.1222C22.9129 45.1222 22.3285 45.7056 22.3285 46.4254C22.3285 47.1451 22.9129 47.7285 23.6339 47.7285Z" fill="black"/>
<path d="M55.3588 41.2399H48.4372V38.7285H55.3588C59.0168 38.7285 61.9948 35.7557 61.9948 32.1041C61.9948 28.4525 59.0168 25.4797 55.3588 25.4797H11.3138V39.2037C11.3138 38.9322 11.0962 38.715 10.8243 38.715V41.2263C9.70921 41.2263 8.79812 40.3168 8.79812 39.2037V25.0046C8.79812 23.8914 9.70921 22.9819 10.8243 22.9819H55.3452C60.3902 22.9819 64.4833 27.0815 64.4833 32.1041C64.4969 37.1403 60.4038 41.2399 55.3588 41.2399Z" fill="black"/>
<path d="M10.6339 33.6109H25.9864C26.7343 33.6109 27.3326 33 27.3326 32.267C27.3326 31.5204 26.7207 30.9231 25.9864 30.9231H10.6339C9.88598 30.9231 9.28766 31.534 9.28766 32.267C9.28766 33 9.88598 33.6109 10.6339 33.6109Z" fill="black"/>
<path d="M48.7228 48.7466C48.3692 48.7466 48.0021 48.6516 47.6893 48.4616L44.4665 46.4933L41.5293 48.3937C40.9174 48.7874 40.1423 48.8145 39.5031 48.4752C38.864 48.1222 38.4697 47.4571 38.4697 46.7376V22.9819H50.7082V46.7647C50.7082 47.4842 50.3138 48.1494 49.6883 48.4887C49.3891 48.6516 49.0492 48.7466 48.7228 48.7466ZM44.4257 43.2761L47.9749 45.448V25.6969H41.1757V45.3801L44.4257 43.2761Z" fill="black"/>
<path d="M25.9728 11.552H34.7573C35.3285 11.552 35.8044 11.0769 35.8044 10.5068V9.90951C35.8044 9.33937 35.3285 8.86426 34.7573 8.86426H25.9728C25.4017 8.86426 24.9257 9.33937 24.9257 9.90951V10.5068C24.9257 11.0905 25.3881 11.552 25.9728 11.552Z" fill="black"/>
<path d="M43.8682 21.0814C38.0481 21.0814 33.3023 16.3575 33.3023 10.5339C33.3023 4.71041 38.0481 0 43.8682 0C49.6883 0 54.4341 4.72398 54.4341 10.5475C54.4341 16.371 49.6883 21.0814 43.8682 21.0814ZM43.8682 2.71493C39.5439 2.71493 36.022 6.23077 36.022 10.5475C36.022 14.8643 39.5439 18.3801 43.8682 18.3801C48.1925 18.3801 51.7144 14.8643 51.7144 10.5475C51.7144 6.23077 48.1925 2.71493 43.8682 2.71493Z" fill="black"/>
<path d="M15.6109 21.0814C9.79079 21.0814 5.04498 16.3575 5.04498 10.5339C5.04498 4.71041 9.77719 0 15.6109 0C21.4446 0 26.1768 4.72398 26.1768 10.5475C26.1768 16.371 21.431 21.0814 15.6109 21.0814ZM15.6109 2.71493C11.2866 2.71493 7.76464 6.23077 7.76464 10.5475C7.76464 14.8643 11.2866 18.3801 15.6109 18.3801C19.9351 18.3801 23.4571 14.8643 23.4571 10.5475C23.4571 6.23077 19.9215 2.71493 15.6109 2.71493Z" fill="black"/>
</svg>
