<svg width="78" height="74" viewBox="0 0 78 74" fill="none" xmlns="http://www.w3.org/2000/svg">
<path d="M67.8548 0H38.6868C33.0855 0 28.542 4.4281 28.542 9.88699V25.7991C28.542 31.258 33.0855 35.6861 38.6868 35.6861H40.1913L43.7219 40.0416C43.99 40.3755 44.4221 40.5788 44.8541 40.5788C45.301 40.5788 45.7181 40.3755 45.9862 40.0416L49.5168 35.6861H67.8548C73.4561 35.6861 77.9996 31.258 77.9996 25.7991V9.88699C77.9996 4.4281 73.4561 0 67.8548 0ZM58.7082 2.83108H66.6333L58.7082 10.5548V2.83108ZM47.8334 10.5548L39.9083 2.83108H47.8334V10.5548ZM58.7082 25.1313L66.6333 32.855H58.7082V25.1313ZM75.1096 9.88699V12.5438H60.7639L70.3128 3.23759C73.0985 4.22484 75.1096 6.82362 75.1096 9.88699ZM36.2288 3.23759L45.7777 12.5438H31.432V9.88699C31.432 6.82362 33.4431 4.22484 36.2288 3.23759ZM31.432 25.7991V23.1422H45.7777L36.2288 32.4485C33.4431 31.4613 31.432 28.8479 31.432 25.7991ZM47.6845 33.3922L44.8541 36.8911L42.0237 33.3922C41.7555 33.0583 41.3235 32.855 40.8915 32.855H39.9232L47.8483 25.1313V33.2325C47.7738 33.276 47.7292 33.3341 47.6845 33.3922ZM70.2979 32.4485L60.749 23.1422H75.0947V25.7991C75.1096 28.8479 73.0985 31.4613 70.2979 32.4485Z" fill="black"/>
<path d="M9.22163 23.0262C9.62384 23.0262 10.0112 22.8665 10.2942 22.5906C10.5772 22.3148 10.7411 21.9373 10.7411 21.5453C10.7411 21.1533 10.5772 20.7759 10.2942 20.5C10.0112 20.2242 9.62384 20.0645 9.22163 20.0645C8.81941 20.0645 8.43209 20.2242 8.14905 20.5C7.86601 20.7759 7.70215 21.1533 7.70215 21.5453C7.70215 21.9373 7.86601 22.3148 8.14905 22.5906C8.43209 22.8665 8.81941 23.0262 9.22163 23.0262Z" fill="black"/>
<path d="M14.8815 23.026H24.9369C25.7711 23.026 26.4415 22.3726 26.4415 21.5596C26.4415 20.7466 25.7711 20.0933 24.9369 20.0933H14.8815C14.0473 20.0933 13.377 20.7466 13.377 21.5596C13.377 22.3581 14.0473 23.026 14.8815 23.026Z" fill="black"/>
<path d="M9.22162 41.8707H24.9378C25.772 41.8707 26.4424 41.2174 26.4424 40.4043C26.4424 39.5913 25.772 38.938 24.9378 38.938H9.22162C8.38739 38.938 7.71704 39.5913 7.71704 40.4043C7.70214 41.2174 8.38739 41.8707 9.22162 41.8707Z" fill="black"/>
<path d="M9.22162 51.2935H24.9378C25.772 51.2935 26.4424 50.6402 26.4424 49.8272C26.4424 49.0142 25.772 48.3608 24.9378 48.3608H9.22162C8.38739 48.3608 7.71704 49.0142 7.71704 49.8272C7.70214 50.6402 8.38739 51.2935 9.22162 51.2935Z" fill="black"/>
<path d="M26.4422 59.2496C26.4422 58.4365 25.7718 57.7832 24.9376 57.7832H9.22138C8.38716 57.7832 7.7168 58.4365 7.7168 59.2496C7.7168 60.0626 8.38716 60.7159 9.22138 60.7159H24.9376C25.7718 60.7304 26.4422 60.0626 26.4422 59.2496Z" fill="black"/>
<path class="l-color" d="M23 65.4406H3V15.5H6.5V62H23C21.5 63 21.5 64.5 23 65.4406Z" fill="#4376C4"/>
<path d="M62.254 43.2939V65.2892H41.7112C38.851 65.2892 36.1845 66.32 34.1436 68.0913V32.8552C32.8923 31.4034 31.8644 29.7338 31.1196 27.9045V68.0913C29.0787 66.32 26.4121 65.2892 23.5519 65.2892H3.02406V15.5058H23.5668C26.0397 15.5058 28.3041 16.5511 29.8682 18.3079C30.0172 17.1464 30.2555 16.014 30.5982 14.9251C28.6467 13.4152 26.1887 12.5586 23.5817 12.5586H1.50458C0.670359 12.5731 0 13.2264 0 14.0395V20.5146V23.4619V66.7556C0 67.5686 0.670359 68.2219 1.50458 68.2219H23.5668C26.6803 68.2219 29.4958 69.9061 30.9259 72.5484C31.0451 73.3614 31.775 73.9857 32.639 73.9857C33.5031 73.9857 34.233 73.3614 34.3522 72.5484C35.7823 69.8915 38.5978 68.2219 41.7112 68.2219H63.7735C64.6077 68.2219 65.2781 67.5686 65.2781 66.7556V43.2939C65.2781 42.4809 64.6077 41.8276 63.7735 41.8276C62.9393 41.8276 62.254 42.4809 62.254 43.2939Z" fill="black"/>
<rect class="l-color" x="51" y="3" width="8" height="30" fill="#4376C4"/>
<rect class="l-color" x="75" y="15" width="6" height="44" transform="rotate(90 75 15)" fill="#5FA8DE"/>
</svg>
