<svg width="71" height="72" viewBox="0 0 71 72" fill="none" xmlns="http://www.w3.org/2000/svg">
<path class="l-color" d="M69.4219 71.9999H61.7323V25.4885L69.4219 18.3661V71.9999Z" fill="#4376C4"/>
<path class="l-color" d="M49.3702 3.72215L38.3738 14.7289L45.0285 21.3898L56.0249 10.383L49.3702 3.72215Z" fill="#2440A0"/>
<path class="l-color" d="M39.1995 14.118L6.84937 46.4985L14.0924 53.7484L46.4426 21.3679L39.1995 14.118Z" fill="#5FA8DE"/>
<path d="M58.6622 40.6381C58.074 40.394 57.3997 40.5232 56.955 40.9827L39.7824 58.1714C39.3376 58.6166 39.1942 59.2915 39.4381 59.8802C39.682 60.469 40.2558 60.8567 40.8871 60.8567H58.0596C58.9347 60.8567 59.6377 60.1531 59.6377 59.2771V42.0884C59.6377 41.4566 59.2504 40.8822 58.6622 40.6381ZM44.6888 57.7119L56.4959 45.8938V57.7119H44.6888Z" fill="black"/>
<path d="M70.0245 15.4224C69.4363 15.1783 68.762 15.3075 68.3172 15.767L37.9891 46.1236C37.3722 46.7411 37.3722 47.7319 37.9891 48.3494C38.0321 48.3925 38.0608 48.4212 38.1039 48.4643C38.3908 48.694 38.7494 48.8233 39.0938 48.8233C39.4524 48.8233 39.7967 48.7084 40.0837 48.4643C40.1267 48.4356 40.1697 48.3925 40.1984 48.3494L67.8582 20.6637V34.5496H64.9602C64.0851 34.5496 63.3821 35.2533 63.3821 36.1292C63.3821 37.0052 64.0851 37.7088 64.9602 37.7088H67.8582V42.4475H64.9602C64.0851 42.4475 63.3821 43.1512 63.3821 44.0271C63.3821 44.9031 64.0851 45.6067 64.9602 45.6067H67.8582V50.3454H64.9602C64.0851 50.3454 63.3821 51.049 63.3821 51.925C63.3821 52.8009 64.0851 53.5046 64.9602 53.5046H67.8582V58.2433H64.9602C64.0851 58.2433 63.3821 58.9469 63.3821 59.8229C63.3821 60.6988 64.0851 61.4025 64.9602 61.4025H67.8582V68.9126H19.7119L35.5789 52.9733C36.1958 52.3558 36.1958 51.365 35.5789 50.7475C35.5072 50.6757 35.4354 50.6183 35.3494 50.5608C34.7325 50.1444 33.9004 50.2018 33.3552 50.7475L14.8054 69.3147C14.3607 69.7599 14.2172 70.4348 14.4611 71.0235C14.705 71.6123 15.2788 72 15.9101 72H69.4219C70.297 72 71 71.2963 71 70.4204V16.8584C71 16.2409 70.6127 15.6665 70.0245 15.4224Z" fill="black"/>
<path d="M13.8442 48.6797L25.2926 37.2206C25.8521 36.6605 25.8521 35.7559 25.2926 35.2102C24.7331 34.6502 23.8293 34.6502 23.2841 35.2102L11.8357 46.6693C11.2762 47.2293 11.2762 48.134 11.8357 48.6797C12.3809 49.2254 13.2847 49.2254 13.8442 48.6797Z" fill="black"/>
<path d="M28.1905 33.6737C28.9512 33.6737 29.5678 33.0565 29.5678 32.2952C29.5678 31.5338 28.9512 30.9166 28.1905 30.9166C27.4299 30.9166 26.8133 31.5338 26.8133 32.2952C26.8133 33.0565 27.4299 33.6737 28.1905 33.6737Z" fill="black"/>
<path d="M1.43464 57.9561C1.06163 57.9561 0.688627 57.8125 0.416047 57.5397C0.100428 57.2237 -0.057382 56.7642 0.0143497 56.3191C0.0143497 56.2904 0.430393 53.3753 0.918169 50.4316C1.96545 44.0271 2.33846 43.6681 2.71146 43.2947L38.8212 7.13678C40.055 5.90184 42.0491 5.90184 43.2829 7.13678L50.7717 14.6326C51.3599 15.2213 51.6898 16.0255 51.6898 16.8727C51.6898 17.7199 51.3599 18.5097 50.7717 19.1128L14.662 55.2421C14.2746 55.6298 13.9159 55.9888 7.53183 57.0371C4.57648 57.5253 1.67852 57.9274 1.64983 57.9417C1.56375 57.9561 1.50637 57.9561 1.43464 57.9561ZM4.87776 45.1759C4.5191 46.1667 3.75874 50.5034 3.1275 54.8257C7.4601 54.1795 11.7783 53.4328 12.7682 53.0738L48.7488 17.0594C48.8206 16.9876 48.8349 16.9158 48.8349 16.8584C48.8349 16.8009 48.8206 16.7291 48.7488 16.6573L41.2601 9.16151C41.1453 9.04663 40.9588 9.04663 40.8584 9.16151L4.87776 45.1759Z" fill="black"/>
<path d="M46.6112 21.913C45.7935 21.913 45.0331 21.5971 44.4449 21.0227L36.8844 13.4551C36.3106 12.8807 35.9949 12.1053 35.9949 11.2868C35.9949 10.4682 36.3106 9.70718 36.8844 9.11842L45.1192 0.875903C45.6931 0.301511 46.4678 -0.0144043 47.2855 -0.0144043C48.1032 -0.0144043 48.8636 0.301511 49.4518 0.875903L57.0123 8.44351C57.5862 9.01791 57.9018 9.79333 57.9018 10.6118C57.9018 11.4304 57.5862 12.1914 57.0123 12.7802L48.7775 21.0227C48.2037 21.5971 47.429 21.913 46.6112 21.913ZM47.2855 2.78576C47.2281 2.78576 47.1564 2.80012 47.0847 2.87191L38.8499 11.1144C38.7781 11.1862 38.7638 11.258 38.7638 11.3155C38.7638 11.3729 38.7781 11.4447 38.8499 11.5165L46.4104 19.0841C46.4821 19.1559 46.5538 19.1703 46.6112 19.1703C46.6686 19.1703 46.7403 19.1559 46.8121 19.0841L55.0469 10.8416C55.1186 10.7698 55.1329 10.698 55.1329 10.6406C55.1329 10.5831 55.1186 10.5113 55.0469 10.4395L47.4864 2.85755C47.4146 2.80012 47.3429 2.78576 47.2855 2.78576Z" fill="black"/>
</svg>
