<svg width="1638" height="755" viewBox="0 0 1638 755" fill="none" xmlns="http://www.w3.org/2000/svg">
<path d="M1632.06 654.678C1633.96 654.441 1636.57 652.781 1638 654.441C1636.81 657.05 1634.91 659.896 1632.06 661.082C1630.63 661.556 1628.97 661.556 1627.54 662.03C1624.92 663.216 1623.5 665.825 1621.36 667.722C1619.22 669.383 1616.37 671.043 1613.99 672.466C1611.85 673.889 1608.76 676.735 1606.14 674.6C1606.38 670.806 1610.19 671.043 1611.14 667.96C1611.14 665.825 1609.23 665.588 1609.23 663.216C1613.51 659.422 1620.41 656.576 1621.6 648.749C1622.07 645.192 1619.22 637.839 1623.5 637.365C1628.49 636.891 1625.64 642.346 1626.11 645.192C1626.35 646.377 1627.3 647.089 1628.02 648.749C1628.97 651.358 1628.97 653.967 1632.06 654.678ZM1593.78 671.043C1589.74 673.652 1585.94 676.735 1581.89 679.818C1574.52 685.273 1561.92 688.119 1552.89 692.625C1550.28 694.048 1545.05 696.182 1542.43 698.08C1536.72 702.349 1545.28 705.432 1550.04 704.958C1554.32 704.721 1559.55 701.4 1563.35 699.029C1567.15 696.657 1570.25 692.862 1574.29 690.728C1576.9 689.542 1579.76 689.779 1582.13 688.83C1584.03 688.119 1585.22 685.747 1586.89 684.798C1591.88 681.478 1599.72 678.632 1601.39 673.414C1599.25 673.177 1595.92 669.857 1593.78 671.043ZM1532.45 467.079C1532.68 468.265 1537.2 470.399 1539.58 470.636C1545.28 471.111 1548.14 468.265 1548.37 463.758C1547.66 463.521 1547.9 462.81 1546.71 463.047C1543.86 465.419 1531.73 462.573 1532.45 467.079ZM1524.12 474.905C1524.36 472.534 1527.45 472.534 1527.22 470.162C1526.98 467.079 1519.61 465.893 1518.42 464.47C1516.99 463.047 1516.99 461.15 1515.8 459.727C1511.76 454.983 1502.73 453.323 1495.36 450.714C1492.98 449.766 1491.08 448.58 1488.7 447.868C1486.09 447.157 1483.23 446.92 1481.09 445.971C1478 444.785 1476.1 442.651 1473.49 442.413C1470.87 442.176 1467.31 443.599 1465.17 445.022C1462.08 446.92 1460.17 451.9 1457.08 451.663C1454.47 451.426 1451.85 446.92 1451.38 445.022C1451.14 443.362 1451.85 441.939 1451.38 440.516C1450.66 437.907 1443.77 433.638 1440.44 434.113C1436.64 434.587 1434.97 440.279 1437.35 444.074C1438.3 445.497 1440.68 446.208 1441.39 447.868C1441.87 449.291 1441.16 450.24 1441.63 451.426C1444.25 456.881 1454.23 455.458 1460.89 459.015C1462.79 459.964 1463.98 461.861 1465.64 462.81C1467.31 463.758 1468.97 463.758 1470.4 464.944C1471.82 466.13 1474.68 470.399 1474.2 473.245C1473.73 475.854 1467.54 477.277 1468.49 481.072C1469.68 485.815 1477.29 480.36 1480.38 480.835C1483.47 481.309 1485.14 485.578 1488.7 486.764C1492.03 487.95 1494.41 486.527 1498.69 487.001C1503.2 484.392 1503.2 478.7 1508.2 478.226C1511.05 477.988 1515.33 479.886 1516.99 481.309C1520.32 484.155 1521.03 489.373 1523.89 491.744C1526.5 493.879 1529.59 492.693 1533.4 493.642C1536.25 494.353 1538.63 496.962 1540.29 495.302C1543.62 491.981 1533.4 484.866 1531.26 484.392C1530.31 479.411 1523.89 479.649 1524.12 474.905ZM1454.71 672.94C1451.14 672.466 1448.76 669.383 1446.39 673.889C1445.67 675.312 1443.53 682.664 1443.77 684.324C1444.72 690.016 1453.76 685.984 1456.61 684.087C1460.65 681.478 1463.5 676.972 1464.45 673.177C1461.84 670.806 1458.51 673.652 1454.71 672.94ZM1438.3 210.938C1438.06 208.566 1439.25 206.432 1439.02 204.297C1438.06 198.842 1430.7 193.15 1425.23 192.676C1421.42 196.945 1427.37 200.74 1428.32 204.297C1429.98 209.752 1426.89 215.207 1423.8 216.867C1422.61 217.341 1421.19 217.104 1420 218.053C1418.57 219.239 1418.33 223.508 1415.48 224.694C1412.39 226.117 1408.11 224.694 1403.83 225.642C1401.69 226.117 1398.13 229.674 1396.22 231.572C1394.8 233.232 1390.04 236.789 1390.28 239.161C1390.28 241.295 1393.37 242.718 1395.27 245.564C1396.94 247.699 1398.6 251.256 1401.22 251.019C1405.02 250.308 1401.93 243.193 1405.02 241.295C1410.49 243.193 1412.86 235.603 1417.38 235.603C1419.05 235.603 1420.47 237.738 1422.37 237.264C1424.75 236.552 1425.23 232.757 1427.84 231.572C1432.83 229.2 1439.73 230.86 1443.3 226.591C1442.34 223.034 1441.39 219.239 1440.2 215.681C1439.73 213.784 1438.54 212.361 1438.3 210.938ZM1433.07 176.312C1426.18 175.126 1420 169.434 1416.91 169.908C1416.91 170.382 1416.43 170.382 1416.67 170.857C1418.1 174.177 1420.47 176.074 1419.52 179.632C1419.05 181.766 1416.67 182.952 1416.67 184.612C1416.67 187.458 1420.95 190.304 1423.56 191.016C1424.51 188.407 1422.85 186.035 1425.7 185.324C1428.32 184.612 1431.17 187.696 1433.55 187.221C1435.21 186.984 1436.64 184.138 1438.06 183.189C1439.49 182.241 1440.92 182.478 1441.63 181.055C1441.16 176.786 1437.59 177.023 1433.07 176.312ZM1425.23 501.231C1425.7 502.891 1430.22 503.128 1429.98 500.519C1429.27 498.385 1425.23 499.096 1425.23 501.231ZM1413.1 163.504C1418.33 160.184 1410.96 156.389 1407.63 154.729C1406.45 158.287 1409.77 162.319 1413.1 163.504ZM1387.19 492.219C1387.67 492.456 1388.14 492.93 1388.38 493.404C1392.18 492.93 1394.8 489.847 1397.89 487.95C1400.98 486.052 1405.73 486.289 1406.92 482.258C1400.5 480.123 1396.7 484.392 1393.13 486.289C1390.76 487.95 1387.19 488.898 1387.19 492.219ZM1375.54 426.286C1372.45 426.523 1369.6 429.369 1369.6 431.978C1371.5 432.69 1371.97 431.267 1373.64 431.029C1381.72 429.843 1394.08 435.773 1394.56 427.946C1391.94 426.523 1388.38 427.709 1384.81 427.709C1381.25 427.472 1377.92 426.049 1375.54 426.286ZM1374.35 440.042C1373.16 439.805 1371.02 436.247 1369.36 436.247C1366.03 436.484 1366.51 441.939 1365.56 444.785C1364.84 446.682 1362.47 448.817 1362.7 450.714C1362.94 453.086 1365.79 453.797 1366.51 456.643C1367.22 459.964 1363.89 464.47 1367.22 465.419C1373.64 467.316 1369.36 451.9 1374.11 450.951C1376.73 454.983 1380.06 466.367 1386.48 465.181C1387.9 463.996 1387.19 460.912 1387.43 458.541C1384.34 454.983 1383.39 449.291 1380.77 445.259C1382.43 441.939 1388.38 441.465 1388.14 436.959C1382.67 436.247 1378.16 440.99 1374.35 440.042ZM1367.93 483.206C1368.41 485.341 1375.07 486.527 1376.02 484.155C1375.78 481.546 1369.12 480.835 1367.93 483.206ZM1363.18 489.135C1363.89 491.507 1366.51 492.219 1368.88 492.93C1369.36 492.456 1369.83 492.219 1370.07 491.744C1370.07 488.661 1365.08 486.526 1363.18 489.135ZM1351.53 482.258C1349.15 482.495 1346.06 480.835 1345.11 483.206C1345.82 485.815 1349.15 486.052 1352.48 486.052C1354.38 483.681 1360.09 486.052 1361.51 483.918C1360.8 479.174 1355.33 482.02 1351.53 482.258ZM1315.87 610.565C1315.63 613.174 1317.3 615.783 1317.06 617.68C1317.06 620.289 1314.92 624.558 1313.49 626.455C1312.3 628.115 1308.74 629.776 1308.74 632.147C1308.74 635.231 1312.3 635.942 1314.44 637.839C1324.67 639.262 1328.47 633.807 1335.36 631.91C1342.02 630.013 1348.68 631.91 1355.33 631.199C1359.37 627.878 1366.27 622.898 1372.69 621.712C1374.59 621.475 1376.73 621.949 1378.63 621.712C1386.24 621 1392.66 615.783 1402.4 617.206C1404.54 617.443 1411.2 620.052 1413.1 621.238C1414.77 622.423 1418.1 628.827 1418.57 630.25C1419.05 632.147 1416.91 634.756 1419.52 635.705C1422.14 636.179 1423.8 633.096 1426.18 631.673C1428.32 630.487 1430.7 630.013 1432.6 629.064C1431.65 630.013 1431.17 631.436 1431.41 633.57C1433.79 634.993 1433.55 637.602 1433.07 639.974C1434.02 642.108 1436.4 642.583 1436.64 644.954C1436.88 647.326 1434.74 648.512 1434.97 651.358C1435.69 656.338 1440.44 656.338 1444.96 657.761C1447.1 658.473 1447.81 659.422 1449.48 659.422C1453.28 659.422 1455.18 657.287 1457.56 657.524C1459.7 657.761 1462.08 660.845 1464.45 660.607C1466.83 660.607 1469.92 657.05 1474.44 655.153C1477.53 653.967 1480.38 654.204 1483.47 653.967C1488.94 653.255 1490.6 647.326 1493.93 643.531C1496.07 640.922 1499.64 638.551 1502.49 635.705C1505.11 632.859 1507.72 629.776 1510.57 627.167C1512.48 625.507 1514.85 624.558 1516.99 623.135C1520.32 620.526 1523.41 616.02 1525.79 612.225C1528.64 607.482 1532.21 603.687 1533.63 599.893C1534.82 596.572 1534.11 592.54 1534.82 589.457C1535.3 586.848 1537.68 584.714 1536.96 581.631C1536.72 579.971 1534.35 577.599 1532.92 575.227C1531.49 572.855 1529.36 571.195 1528.4 568.824C1527.69 567.163 1527.93 565.503 1527.45 564.792C1526.5 563.132 1523.65 562.894 1522.7 560.76C1522.46 560.048 1522.7 558.625 1522.46 557.677C1521.75 555.542 1520.8 554.594 1520.8 551.985C1517.71 547.716 1512.95 547.953 1510.34 544.158C1508.43 541.075 1509.62 537.755 1509.15 533.486C1508.91 531.114 1506.77 528.979 1506.53 526.133C1506.29 524.473 1507.48 522.576 1507.25 521.153C1506.53 516.647 1502.25 517.358 1499.64 515.461C1500.35 508.82 1498.93 501.231 1495.12 497.199C1491.32 498.622 1489.65 504.551 1488.46 508.82C1487.99 510.48 1486.8 511.903 1486.56 513.564C1485.61 518.307 1485.61 523.762 1483.47 528.268C1481.57 532.063 1478.48 536.332 1475.39 536.094C1472.54 536.094 1471.11 533.011 1468.97 531.588C1468.26 531.114 1466.83 530.877 1465.88 530.403C1464.69 529.691 1463.03 527.557 1460.89 526.371C1457.8 524.473 1452.57 522.813 1452.8 519.018C1452.8 516.172 1455.66 515.698 1458.27 514.512C1459.22 512.852 1458.27 512.141 1458.51 510.718C1458.99 508.583 1461.6 507.16 1461.36 505.026C1460.65 500.519 1455.18 503.84 1452.33 503.84C1446.86 503.603 1440.44 498.622 1436.88 498.385C1435.45 499.571 1437.35 500.757 1436.88 502.891C1435.21 505.737 1431.65 503.603 1428.32 504.551C1424.28 505.5 1422.61 509.769 1420.47 513.089C1418.81 515.224 1417.14 519.018 1415.48 519.493C1410.73 520.679 1408.59 514.512 1404.07 514.038C1402.88 514.038 1400.27 514.512 1399.08 515.224C1396.7 516.41 1393.61 518.544 1391.71 519.967C1389.33 522.102 1388.85 525.185 1386.71 527.319C1385.53 528.268 1382.43 529.691 1381.01 530.165C1379.58 530.64 1378.16 529.928 1376.97 530.403C1374.11 531.588 1374.59 534.434 1373.16 537.992C1371.97 540.838 1367.46 545.581 1364.37 547.479C1361.51 549.139 1358.19 548.902 1354.38 549.613C1350.34 550.562 1346.77 552.933 1343.92 553.408C1342.97 553.645 1341.31 553.171 1340.12 553.408C1335.36 554.119 1331.32 558.625 1326.57 560.997C1325.14 561.709 1321.81 562.894 1320.86 564.08C1320.15 565.029 1320.15 567.875 1319.67 569.535C1318.48 572.856 1316.58 574.041 1316.58 576.413C1316.58 579.97 1318.72 580.445 1317.77 583.291C1317.06 585.188 1314.68 585.188 1314.2 587.323C1313.97 588.509 1314.92 590.169 1315.16 592.066C1315.39 593.489 1314.92 594.675 1315.16 595.861C1315.63 598.707 1317.3 601.316 1317.3 603.924C1317.3 606.296 1316.11 608.668 1315.87 610.565ZM1295.19 468.502C1290.91 468.027 1285.91 468.739 1286.15 471.585C1286.39 474.431 1296.85 478.463 1299.7 478.7C1302.08 479.174 1304.7 478.463 1307.31 478.7C1311.59 479.174 1315.39 481.546 1319.91 482.258C1323.48 482.732 1326.8 482.495 1329.9 482.969C1333.46 483.443 1337.5 485.578 1340.36 482.732C1338.45 478.937 1332.27 479.411 1328.71 477.277C1328.71 475.617 1329.42 474.905 1328.47 473.719C1324.19 474.194 1320.39 471.348 1316.82 471.585C1315.16 471.585 1313.73 473.008 1312.07 473.245C1304.7 474.194 1300.89 469.213 1295.19 468.502ZM1324.9 453.323C1326.57 453.56 1328.71 452.374 1330.37 452.374C1334.65 452.374 1337.5 456.169 1340.12 456.406C1342.73 456.643 1344.87 454.746 1347.01 454.746C1350.1 451.9 1348.44 447.157 1349.87 443.362C1351.05 440.279 1354.62 439.567 1355.81 436.959C1356.28 433.401 1355.1 433.164 1356.05 431.029C1357 428.658 1361.75 428.658 1361.99 426.286C1361.99 425.1 1359.37 423.203 1358.42 421.305C1357.47 419.645 1356.76 417.274 1356.52 415.851C1355.33 408.024 1360.56 407.55 1362.47 402.095C1361.04 399.96 1357.95 399.486 1356.52 397.352C1356.28 394.743 1351.77 388.576 1348.91 391.66C1345.59 395.454 1345.59 399.96 1341.31 403.044C1339.64 404.229 1337.98 404.229 1335.84 405.652C1334.17 406.838 1332.99 409.447 1331.8 411.107C1330.37 412.767 1328.71 414.665 1326.8 415.613C1324.9 416.325 1322.29 415.851 1320.86 416.799C1318.25 418.459 1318.96 422.254 1315.87 423.203C1314.44 423.677 1312.07 421.78 1309.93 422.254C1304.46 423.203 1305.41 432.69 1307.31 436.959C1308.74 439.805 1311.35 440.99 1312.07 443.362C1312.78 445.497 1312.54 449.291 1314.68 450.714C1315.63 451.426 1318.01 450.951 1320.39 451.663C1322.29 451.9 1323.48 453.323 1324.9 453.323ZM1299.94 456.881C1308.02 456.881 1308.02 444.548 1299.94 444.548C1291.86 444.311 1291.86 456.881 1299.94 456.881ZM1283.54 445.022C1281.4 444.785 1280.92 441.939 1279.5 440.279C1278.31 438.856 1276.17 438.144 1275.69 436.484C1275.45 435.536 1276.17 433.638 1275.93 432.452C1274.98 427.709 1268.56 425.337 1264.99 422.966C1262.38 421.305 1259.53 420.357 1257.39 419.171C1255.96 418.222 1254.53 416.088 1252.63 414.428C1250.97 413.005 1248.59 412.056 1246.93 410.633C1243.84 408.261 1241.93 403.755 1239.08 402.806C1237.65 402.332 1235.28 402.806 1233.38 402.569C1230.28 402.095 1228.62 399.486 1226.96 401.383C1227.43 408.261 1235.04 410.87 1238.84 415.613C1239.79 416.799 1240.27 418.459 1241.46 419.408C1243.12 421.068 1245.26 421.78 1246.45 423.914C1247.88 426.049 1247.88 428.895 1249.3 431.267C1250.97 433.875 1254.06 435.773 1255.72 438.144C1257.62 440.99 1258.1 444.311 1259.76 447.157C1260.95 449.291 1263.09 450.951 1264.76 452.849C1269.75 458.304 1274.27 463.047 1279.97 467.079C1282.35 467.079 1284.96 467.316 1286.39 466.367C1289.01 463.996 1286.87 459.015 1288.29 454.509C1289.24 451.663 1292.57 451.663 1292.81 449.528C1292.81 448.105 1289.48 443.362 1288.29 443.125C1285.91 442.651 1285.68 445.734 1283.54 445.022ZM1138.28 377.667C1136.38 383.359 1135.19 397.114 1141.37 398.063C1144.46 398.537 1147.55 396.403 1148.27 394.506C1150.88 388.339 1141.85 377.43 1139.23 376.481C1138.99 376.955 1138.52 377.429 1138.28 377.667ZM931.214 547.953C930.976 553.171 924.557 556.254 923.844 562.657C923.606 565.503 925.033 567.638 925.508 570.247C925.746 572.144 925.271 574.041 925.746 575.939C926.697 579.259 930.025 582.105 933.829 582.342C935.493 582.342 941.199 580.919 942.625 580.208C946.667 577.836 947.618 569.535 949.995 564.08C950.471 562.657 951.897 561.471 952.61 560.048C954.274 555.779 955.463 550.562 957.603 545.581C959.98 539.889 962.833 533.96 963.07 527.082C964.021 525.422 966.636 524.948 967.112 522.339C967.35 521.39 966.399 519.73 966.161 517.833C965.448 512.378 964.259 504.314 959.742 506.211C958.316 507.397 958.553 509.532 957.603 510.718C956.652 511.903 954.75 512.141 953.799 513.326C952.61 514.75 952.372 517.121 950.946 519.018C949.044 521.39 945.716 523.525 943.338 524.71C940.486 526.133 936.444 525.896 933.591 528.268C931.689 529.691 929.788 533.96 929.55 536.569C929.074 540.126 931.452 544.158 931.214 547.953ZM770.03 81.4445C769.554 79.5472 770.743 76.2269 771.218 75.041C774.071 69.8233 783.105 69.349 785.958 65.08C787.384 63.1827 787.147 61.0482 788.097 60.0995C790.713 57.2535 798.558 56.7791 801.411 59.388C801.411 66.503 787.147 67.4517 786.909 73.1437C786.909 74.3295 787.86 76.464 788.097 78.5985C788.335 80.4959 788.098 81.6817 788.335 82.6304C789.286 85.7136 793.565 88.0852 796.894 88.3224C804.501 88.7967 815.675 80.9702 822.331 86.6622C819.478 93.0658 809.018 87.8481 801.411 90.4569C799.984 90.9313 799.033 92.3543 797.607 93.0658C795.705 93.7773 792.614 93.0658 792.614 95.9118C794.041 98.7578 796.418 95.2003 798.32 95.2003C800.46 95.2003 803.312 97.3348 803.075 99.9436C802.362 105.873 797.369 99.7064 794.041 99.9436C789.048 100.181 788.097 107.296 789.048 112.513C786.909 113.699 784.294 117.257 781.203 117.494C779.301 117.731 777.875 115.834 775.26 115.597C769.554 115.122 764.324 120.103 758.856 120.103C756.479 120.103 754.101 117.257 750.298 117.257C748.396 117.257 746.969 118.68 744.83 118.917C742.215 119.154 738.411 117.968 738.411 116.071C738.649 112.988 742.928 115.597 745.305 115.122C748.396 114.648 747.683 112.039 749.822 111.565C751.249 111.328 752.437 112.751 754.577 112.513C756.716 112.276 758.856 108.956 760.996 108.007C765.037 106.347 768.128 107.296 768.841 103.975C769.079 102.078 767.652 99.4693 768.128 97.3348C769.079 92.8286 777.637 93.5401 777.162 88.3224C777.399 85.2392 770.743 84.2906 770.03 81.4445ZM713.924 408.024C719.392 408.498 723.909 405.89 728.426 407.075C731.754 407.787 735.796 413.005 736.034 415.613C736.271 418.459 734.607 422.491 734.132 424.151C733.181 427.709 733.181 432.215 732.468 434.587C731.992 436.484 730.566 437.433 730.566 439.33C730.566 440.99 732.705 445.022 734.369 447.157C736.509 449.766 739.837 451.9 742.215 454.746C746.732 459.964 748.871 466.367 751.962 473.245C753.15 475.854 755.29 479.649 755.528 482.258C755.528 484.155 754.339 486.052 754.577 487.95C755.052 492.219 757.667 493.879 758.143 497.673C759.094 506.449 751.249 509.057 749.584 516.172C749.109 517.833 749.584 519.73 749.347 521.153C748.871 523.525 747.207 525.185 746.732 527.557C746.494 529.928 745.781 534.197 746.018 536.332C746.256 539.652 749.822 542.735 751.724 545.818C753.626 548.902 755.29 554.356 757.43 558.388C758.618 560.76 760.758 562.42 761.233 564.317C761.947 566.689 761.233 570.009 761.471 572.855C761.709 575.227 763.135 577.362 763.373 579.259C764.324 584.951 764.562 590.88 767.415 595.624C768.841 597.995 771.456 599.418 773.358 602.501C775.26 605.347 775.973 609.379 777.875 612.937C779.777 616.494 782.154 619.103 782.392 621.238C782.392 622.898 780.728 624.795 780.728 626.692C780.965 631.436 786.196 636.416 790.237 636.416C792.139 636.416 794.041 634.756 795.943 634.519C797.131 634.282 798.32 634.756 799.509 634.519C801.411 634.282 803.075 632.859 804.501 632.622C808.543 632.147 812.584 633.096 816.388 632.859C823.044 632.384 830.414 629.301 834.694 626.218C839.448 622.661 844.441 618.629 848.244 614.597C851.097 611.751 852.286 607.719 854.901 604.873C857.041 602.739 860.131 601.553 861.558 598.944C862.509 597.284 864.648 591.355 864.648 589.932C864.886 588.034 863.697 586.611 863.935 584.951C865.124 579.259 876.773 580.445 879.15 574.99C881.29 570.009 880.101 563.369 878.912 558.625C878.437 556.965 876.773 554.119 877.01 552.222C877.248 549.139 882.478 546.293 886.044 543.21C888.184 541.312 890.086 538.466 892.463 536.806C895.554 534.434 900.308 533.96 903.161 532.063C906.014 530.403 910.531 525.422 911.72 522.576C913.146 519.493 911.72 516.884 911.482 513.564C911.006 508.109 911.957 501.942 911.482 495.539C908.154 492.693 906.965 487.95 905.063 483.681C905.539 480.123 906.252 477.277 905.301 473.957C904.825 472.059 902.924 470.873 902.686 468.976C901.973 463.996 905.776 461.624 907.44 458.066C909.105 454.983 909.818 451.663 911.244 450.003C912.908 447.868 916.237 446.682 918.139 444.311C919.565 442.651 920.278 440.516 921.705 438.619C925.271 433.638 930.501 428.421 935.493 424.863C938.108 422.966 940.723 422.017 943.101 420.12C945.478 418.222 947.38 416.088 949.52 413.716C953.323 409.684 958.316 404.704 960.455 399.486C961.169 397.826 961.169 395.929 961.644 394.506C963.784 389.525 968.063 385.256 969.965 379.801C970.203 378.853 970.202 377.43 970.678 376.244C971.629 372.923 974.006 368.891 970.678 365.334C967.825 364.385 964.972 367.706 961.169 368.18C957.127 368.654 953.323 368.417 950.233 369.129C948.331 369.603 946.904 371.026 945.24 371.263C944.289 371.5 942.625 371.026 941.437 371.263C938.821 371.737 936.682 373.398 935.018 373.16C930.976 372.686 928.599 368.18 926.222 365.571C926.697 363.674 928.123 362.962 927.41 360.828C926.935 359.168 924.795 358.93 922.893 357.27C920.04 354.661 917.425 350.867 914.097 348.495C910.293 345.886 905.063 343.989 903.161 339.957C901.973 337.111 901.973 333.079 900.071 330.233C897.693 326.676 892.225 324.541 891.274 320.746C890.086 316.952 891.274 314.106 890.324 310.311C889.135 304.619 882.954 302.959 880.814 297.978C880.339 296.555 880.339 294.895 879.863 293.472C878.437 289.915 875.822 286.594 873.92 283.511C871.78 279.954 869.878 276.633 868.452 272.602C869.641 270.941 872.493 270.704 875.109 270.467C880.101 274.499 884.618 279.717 887.708 285.646C888.422 287.069 888.659 288.966 889.61 290.389C891.037 292.524 893.414 293.472 894.603 294.895C896.267 296.793 897.693 299.164 898.406 301.536C898.882 302.959 898.407 304.382 898.644 306.279C900.071 313.157 907.44 316.003 911.244 321.458C912.433 323.118 912.908 325.016 913.859 326.439C915.761 329.285 919.089 330.945 919.803 334.265C919.565 335.925 917.188 335.451 917.188 337.348C918.138 339.957 920.754 340.669 922.18 343.04C924.795 347.784 925.271 354.424 927.648 359.642C932.64 362.488 936.92 357.507 941.912 356.084C943.338 355.61 945.003 355.847 946.667 355.373C948.569 354.899 950.471 353.476 952.61 352.764C953.561 352.527 954.75 352.764 955.701 352.527C958.078 351.815 959.742 349.444 962.357 348.021C966.636 346.123 971.391 346.123 974.244 344.226C977.097 342.329 977.097 339.008 979.236 337.585C982.802 335.214 986.606 335.925 990.885 334.502C993.025 333.791 994.214 331.656 996.353 329.996C998.017 328.81 999.919 327.624 1001.82 325.964C1003.49 324.541 1006.34 322.881 1006.81 321.458C1007.05 320.746 1007.05 318.375 1007.53 317.426C1008.24 316.003 1010.14 315.292 1011.33 313.631C1012.52 311.971 1016.8 305.805 1016.8 303.908C1016.56 301.773 1010.38 296.081 1008.95 295.37C1006.58 294.421 1004.44 295.132 1003.01 294.421C1000.87 293.472 998.968 291.575 997.542 288.966C996.353 286.594 997.542 284.697 993.976 282.325C988.033 287.306 984.467 294.658 971.153 292.286C968.301 291.101 969.489 285.646 968.301 282.8C966.874 281.377 964.259 283.037 962.833 282.563C960.931 275.922 954.274 274.025 950.946 269.044C949.757 267.621 947.142 263.826 947.38 261.692C947.855 258.846 951.897 257.186 954.274 257.186C961.644 257.186 962.357 266.909 967.112 269.993C969.014 271.178 971.629 272.364 974.482 274.025C978.285 276.633 983.278 279.005 988.984 277.819C991.599 277.108 993.263 274.973 996.116 275.685C998.493 276.159 999.206 280.428 1000.63 281.614C1002.77 283.748 1008.24 284.697 1012.28 285.171C1015.37 285.409 1019.18 286.12 1022.27 286.357C1027.02 286.832 1031.78 286.12 1035.58 285.646C1038.67 285.409 1043.42 285.883 1046.04 285.646C1047.23 285.646 1048.66 284.934 1049.84 284.934C1054.12 285.409 1056.26 290.389 1058.64 292.524C1062.92 296.081 1068.39 297.978 1070.53 301.062C1067.91 306.279 1076.95 311.971 1080.27 311.971C1083.84 311.971 1085.03 308.888 1088.12 308.177C1091.45 309.837 1090.5 312.208 1090.73 316.477C1090.97 319.323 1092.16 323.592 1093.35 327.15C1094.3 330.47 1095.49 334.265 1096.44 337.111C1097.87 340.669 1100.48 343.989 1102.38 347.546C1104.76 351.578 1105.24 356.084 1106.9 359.405C1108.33 362.488 1111.18 364.86 1112.61 367.231C1115.7 372.686 1117.36 385.73 1124.25 384.782C1125.68 384.544 1126.16 383.122 1127.82 381.224C1128.77 380.038 1130.67 379.09 1131.62 377.667C1132.34 376.718 1132.58 375.058 1133.53 373.872C1134.48 372.449 1135.67 371.975 1136.14 370.789C1136.62 368.654 1135.67 366.52 1135.9 364.385C1136.14 362.014 1137.81 360.116 1138.04 357.745C1138.52 352.764 1135.9 348.732 1136.14 343.515C1138.52 339.008 1143.51 338.771 1146.84 335.688C1148.03 334.502 1148.5 332.605 1149.69 331.182C1151.12 329.759 1153.5 328.81 1155.16 327.15C1158.49 323.83 1160.63 319.798 1163.72 317.663C1166.1 316.003 1169.66 316.003 1170.61 312.683C1169.9 305.093 1174.89 306.754 1181.31 306.279C1183.21 306.042 1187.97 305.331 1189.87 304.619C1191.77 303.908 1193.67 301.536 1195.58 301.773C1197.48 302.01 1197.71 305.331 1199.14 307.702C1199.85 309.362 1201.76 311.734 1203.66 313.394C1205.56 315.055 1208.18 316.003 1209.6 317.9C1210.31 318.849 1210.55 320.509 1211.5 321.695C1213.64 324.541 1216.73 326.201 1216.97 330.47C1216.97 332.605 1215.55 334.502 1216.02 336.4C1216.5 338.534 1219.35 340.194 1221.49 340.194C1225.53 340.194 1228.62 333.791 1231.95 334.265C1234.8 334.739 1236.47 341.617 1237.65 345.175C1238.37 347.546 1239.32 349.444 1240.27 351.104C1241.22 353.001 1242.65 354.661 1243.12 356.796C1243.6 358.93 1243.12 362.014 1243.36 364.385C1243.6 365.571 1244.31 366.757 1244.31 367.943C1244.55 372.923 1242.88 377.904 1243.12 382.173C1243.36 385.256 1247.16 386.442 1249.54 388.576C1252.16 390.948 1255.72 395.691 1256.44 398.537C1257.39 401.858 1257.15 405.178 1258.34 408.024C1258.81 409.21 1260 410.396 1260.95 411.819C1263.81 416.325 1265.71 418.697 1269.99 421.305C1272.6 422.966 1275.22 424.863 1278.31 425.337C1281.4 421.305 1276.17 418.459 1275.22 414.428C1274.27 410.87 1275.69 407.075 1274.27 403.755C1273.08 400.909 1267.13 395.691 1263.81 393.32C1262.14 392.134 1259.53 391.897 1258.1 390.474C1255.96 388.339 1255.48 384.307 1253.34 380.75C1251.92 378.615 1249.3 376.955 1248.83 374.821C1247.88 369.603 1250.97 366.283 1251.68 362.014C1252.39 357.507 1251.44 354.899 1254.3 354.899C1255.96 354.899 1257.39 357.982 1259.05 358.93C1261.67 360.353 1264.99 360.828 1267.37 362.962C1269.04 364.622 1270.22 367.706 1272.36 369.603C1275.22 371.975 1279.73 372.923 1280.45 375.295C1281.16 376.955 1279.73 380.513 1282.11 381.224C1287.82 380.75 1289.48 374.346 1292.81 372.449C1297.33 369.84 1302.79 368.654 1305.17 363.911C1306.84 344.938 1297.33 340.194 1288.53 332.368C1286.15 330.233 1279.26 323.118 1279.5 319.798C1279.73 315.292 1289.24 306.991 1293.28 306.516C1298.04 306.042 1302.08 310.074 1301.37 314.106C1300.89 316.477 1296.14 317.9 1296.37 321.695C1296.61 325.016 1300.65 326.201 1302.32 326.201C1304.93 325.964 1308.5 321.932 1308.02 317.9C1307.79 315.292 1304.46 313.869 1304.46 311.26C1304.7 306.042 1312.3 306.991 1316.34 305.568C1318.01 305.093 1319.44 302.959 1321.34 302.485C1328.47 300.113 1336.55 298.69 1342.5 293.947C1349.15 288.729 1351.53 281.14 1353.43 271.178C1357.95 269.044 1355.57 264.063 1356.28 258.609C1355.57 256.237 1352 256.711 1351.29 254.577C1351.05 252.917 1352.24 252.442 1352 250.782C1350.34 249.359 1350.58 246.987 1349.15 244.853C1348.44 243.904 1346.3 243.193 1345.11 241.77C1342.02 238.449 1339.17 233.943 1337.03 232.283C1334.41 230.386 1331.08 229.911 1331.08 226.828C1331.08 221.848 1339.64 219.002 1341.07 215.207C1338.69 213.784 1335.6 212.124 1331.56 212.361C1329.42 212.598 1327.76 214.97 1325.62 214.97C1323 214.733 1322.53 211.412 1319.67 210.226C1316.34 208.803 1312.3 209.515 1312.78 206.195C1313.02 204.297 1316.11 204.06 1317.77 202.637C1320.39 200.74 1323.24 194.099 1327.52 194.336C1333.22 194.811 1327.52 201.688 1332.27 204.297C1335.36 203.586 1336.55 200.977 1339.88 200.265C1344.4 199.317 1350.1 200.977 1351.53 204.297C1352.48 206.906 1351.77 209.515 1354.38 210.938C1358.42 212.835 1361.51 211.175 1363.65 214.495C1364.37 215.681 1364.13 217.341 1364.6 218.29C1365.56 220.187 1367.46 221.136 1368.17 223.745C1368.88 226.828 1367.7 230.149 1371.26 231.334C1375.07 232.52 1383.86 228.251 1384.1 224.931C1384.34 222.559 1381.72 218.29 1380.06 216.156C1377.44 212.835 1372.45 208.566 1369.6 206.669C1367.46 205.246 1363.42 204.772 1363.18 201.688C1362.94 198.368 1367.7 197.894 1368.65 194.336C1369.12 192.202 1368.17 191.253 1367.93 187.933C1370.31 185.087 1371.02 181.529 1374.83 181.292C1377.44 181.055 1378.63 183.189 1381.25 183.189C1384.1 182.952 1388.14 179.632 1389.57 176.786C1390.28 175.126 1390.28 172.517 1391.23 170.145C1391.94 168.011 1393.13 166.113 1393.37 164.216C1393.61 162.319 1393.13 160.421 1393.13 158.287C1393.13 154.966 1394.56 151.646 1394.32 149.749C1394.08 146.903 1391.47 143.108 1389.33 140.262C1388.38 138.839 1382.2 132.91 1386.24 131.487C1388.38 130.775 1391.71 134.333 1392.66 135.282C1394.8 137.416 1395.99 139.313 1397.41 140.974C1400.98 145.243 1402.17 150.223 1407.16 151.883C1408.59 150.46 1407.16 149.037 1407.87 147.14C1408.35 145.717 1409.54 145.243 1409.54 143.582C1409.3 141.922 1405.02 138.602 1403.59 137.179C1400.98 134.807 1398.13 133.384 1396.22 131.724C1390.99 127.218 1388.38 121.289 1382.91 119.866C1380.06 120.814 1381.48 122.949 1378.39 122.949C1376.73 122.949 1373.64 120.814 1371.5 119.866C1369.36 118.68 1367.22 116.783 1364.13 117.02C1362.7 117.02 1360.09 119.154 1358.19 119.154C1355.1 119.154 1350.58 114.885 1347.73 114.411C1346.06 114.174 1345.59 115.122 1344.16 114.648C1338.93 113.225 1344.87 107.77 1345.35 106.347C1346.06 104.924 1345.82 103.027 1346.3 101.841C1346.77 100.655 1348.2 99.2321 1348.91 97.3348C1349.39 96.1489 1349.15 94.4888 1349.63 93.3029C1352.96 84.7649 1367.7 91.4056 1377.68 89.5082C1379.34 89.2711 1381.48 87.3737 1383.62 87.3737C1388.14 87.3737 1390.76 91.1684 1395.99 91.4056C1397.89 91.6428 1406.21 90.9313 1406.45 89.2711C1406.68 87.3737 1402.88 85.9507 1402.64 84.5277C1401.69 80.0215 1405.26 76.2269 1407.63 75.7525C1417.14 73.3809 1417.86 81.6817 1423.8 81.2074C1425.94 80.9702 1428.08 78.5985 1428.56 76.7012C1428.79 75.041 1427.13 73.1437 1428.79 72.195C1431.17 72.9065 1435.69 77.4127 1435.69 79.7844C1435.93 81.9189 1432.83 85.4764 1432.6 89.2711C1432.6 90.6941 1433.07 92.1171 1432.83 93.0658C1432.12 95.4374 1428.79 96.8604 1428.79 98.5206C1429.98 109.193 1440.44 115.359 1447.1 120.577C1453.52 125.558 1458.99 130.775 1465.17 134.807C1466.36 134.096 1467.78 132.91 1468.02 131.25C1468.26 129.352 1466.59 127.929 1466.36 125.795C1466.36 124.372 1467.31 122.949 1467.31 121.763C1467.07 119.866 1465.17 119.391 1465.4 117.968C1465.88 115.597 1468.73 116.071 1468.49 113.936C1468.49 112.039 1464.22 111.565 1463.74 108.956C1463.5 107.533 1464.69 107.296 1464.45 104.924C1463.5 103.264 1461.84 103.264 1460.41 102.078C1458.51 100.655 1457.32 97.8091 1454.94 97.0976C1453.04 96.3861 1451.14 97.0976 1449.48 96.1489C1447.1 94.4888 1447.81 90.4569 1446.62 87.6109C1448.76 83.5791 1453.28 85.9507 1456.61 85.4764C1458.03 85.2392 1459.46 83.3419 1461.13 82.8676C1465.4 81.9189 1469.68 85.2392 1472.54 84.7649C1474.91 84.2906 1476.82 79.3101 1478.96 77.1755C1480.86 75.5154 1485.61 72.4322 1488.46 72.195C1490.37 71.9579 1492.74 73.618 1495.12 71.9579C1493.93 66.503 1480.14 66.9773 1479.67 61.5225C1479.43 59.6252 1481.57 57.4906 1483.47 57.0163C1495.12 54.1703 1504.39 64.1313 1515.57 61.7597C1516.52 52.9845 1505.34 48.9526 1495.6 48.9526C1493.69 48.9526 1492.27 49.6641 1490.84 49.6641C1487.75 49.6641 1484.19 47.2924 1480.38 46.1066C1474.2 44.2093 1466.36 43.2606 1460.41 41.6004C1459.46 41.3633 1458.27 40.4146 1457.32 39.9403C1456.13 39.7031 1454.94 39.9403 1453.52 39.7031C1452.09 39.2287 1450.9 38.2801 1449.48 38.0429C1446.62 37.5686 1444.01 38.7544 1440.92 38.9916C1436.64 39.4659 1432.12 39.2287 1428.56 38.2801C1424.28 37.3314 1420.95 34.2482 1417.62 33.7739C1416.19 33.5367 1414.29 34.4854 1412.86 34.4854C1410.01 34.4854 1407.63 33.0624 1405.97 34.4854C1404.07 35.6712 1407.63 37.5686 1405.73 38.9916C1401.22 39.7031 1396.22 34.7226 1393.13 34.9597C1390.76 34.9597 1389.57 36.6199 1387.43 36.8571C1386.48 36.8571 1385.05 36.3827 1383.62 36.1456C1377.68 35.6712 1368.65 36.8571 1362.7 36.1456C1358.66 35.6712 1357 32.5881 1353.19 31.1651C1346.06 28.319 1336.79 28.7934 1329.42 29.2677C1326.33 29.5049 1323 30.4536 1319.67 29.9792C1318.01 29.7421 1316.34 28.5562 1314.2 28.0819C1311.11 27.3704 1307.55 27.8447 1305.41 27.1332C1302.32 26.1845 1299.94 22.8642 1296.85 22.3899C1294 21.9155 1290.91 22.8642 1287.58 22.627C1278.78 22.3899 1269.27 21.4412 1259.76 21.9155C1258.1 23.1014 1258.57 24.9987 1256.67 25.9474C1251.68 28.319 1240.51 24.7615 1234.33 26.1845C1232.42 27.1332 1232.19 29.2677 1230.28 29.7421C1228.62 29.9792 1224.34 28.319 1222.68 27.1332C1221.01 26.1845 1219.82 23.8129 1217.92 22.3899C1215.31 20.4925 1211.5 17.8837 1209.13 17.4093C1204.85 16.4607 1198.67 17.6465 1193.44 17.1722C1192.01 17.1722 1190.11 16.2235 1188.68 16.4607C1186.07 16.935 1183.45 19.781 1180.12 20.0182C1178.46 20.0182 1176.79 19.3067 1174.65 19.0695C1173.23 18.8323 1171.56 19.3067 1170.14 19.0695C1168.47 18.8323 1166.81 17.4093 1165.15 17.1722C1162.05 16.6978 1157.3 16.4607 1153.5 16.4607C1150.64 16.4607 1148.03 17.4093 1145.65 16.6978C1141.85 15.7492 1139.95 12.9032 1136.85 11.7173C1136.14 6.73681 1133.29 7.21115 1129.25 5.78814C1128.06 5.31381 1126.87 4.12797 1125.68 3.8908C1119.74 2.23063 1112.84 4.36514 1106.19 3.1793C1104.05 2.94213 1102.15 0.333291 1099.77 0.0961236C1097.39 -0.378211 1094.3 1.04479 1090.97 1.28196C1087.88 1.51913 1084.32 0.570458 1081.46 1.28196C1079.8 1.7563 1078.61 3.41647 1076.71 4.12797C1075.04 4.83947 1072.9 5.31381 1071 5.31381C1067.91 5.31381 1064.82 3.1793 1061.49 3.41647C1058.4 3.65364 1054.6 6.49964 1050.56 7.21115C1043.9 8.39698 1037.48 8.63415 1033.44 11.243C1032.25 12.9032 1035.1 13.8518 1033.68 15.2748C1029.16 16.935 1021.08 14.8005 1017.51 17.4093C1016.56 19.3067 1019.18 20.9669 1017.27 22.1527C1014.42 21.9155 1013.71 20.7297 1011.81 20.9669C1008.24 21.204 1006.58 25.9474 1003.96 25.9474C1001.82 25.9474 1000.63 22.3899 998.493 22.3899C995.878 22.627 994.689 28.0819 992.55 28.0819C989.934 28.0819 990.648 24.5244 988.746 22.1527C986.131 18.5952 977.097 18.5952 974.244 21.204C973.293 21.9155 969.727 28.0819 969.727 28.7934C969.727 30.2164 972.58 34.7226 973.293 35.4341C975.433 37.3314 980.663 36.1456 981.138 40.4146C974.719 40.1774 967.825 36.6199 960.693 35.6712C955.938 34.9597 950.708 35.1969 945.953 34.7226C944.527 36.6199 949.282 38.0429 947.142 40.1774C945.954 41.3633 942.863 38.9916 941.199 38.9916C938.821 38.7544 936.682 40.4146 933.591 40.8889C932.403 41.1261 930.738 40.6518 929.074 40.8889C927.172 41.1261 925.746 42.0748 924.32 41.8376C921.942 41.6004 920.516 39.2287 918.614 39.2287C917.188 39.2287 915.048 40.6518 913.146 41.1261C911.72 41.3633 910.056 41.1261 909.105 41.3633C907.678 41.8376 906.252 43.2606 904.35 43.9721C902.924 44.6836 901.022 44.6836 899.833 45.1579C896.98 46.5809 896.267 49.427 893.176 49.6641C891.75 49.6641 889.135 49.4269 888.184 46.8181C887.946 44.9208 889.848 45.1579 889.373 43.0234C888.422 41.1261 882.478 40.4146 881.527 42.7863C879.388 46.1066 883.429 47.7668 883.191 51.3243C882.716 51.5615 882.241 52.0358 882.003 52.5101C876.297 50.1385 871.542 53.4588 867.739 55.5933C867.263 57.2535 867.501 59.8623 865.837 60.3367C861.32 61.0482 857.516 57.0163 854.426 59.388C853.95 62.7083 858.467 60.811 857.992 64.1313C850.859 65.08 843.252 59.6251 843.252 52.5101C848.482 50.85 854.901 53.696 859.893 53.696C862.746 53.696 869.878 52.5101 869.641 48.2411C869.403 44.6836 861.558 43.2606 857.992 41.8376C853.475 40.4146 848.72 38.0429 844.203 37.3314C842.777 37.0942 841.35 37.5686 839.686 37.3314C835.645 36.8571 832.316 34.7226 829.226 34.4854C827.086 34.2482 825.184 34.9597 823.758 34.4854C820.905 33.5367 821.143 30.9279 819.003 29.9792C814.962 28.0819 810.207 29.7421 805.214 29.7421C802.124 29.7421 799.271 28.7934 796.894 29.0305C795.23 29.2677 794.041 29.9792 792.852 29.9792C791.901 29.9792 789.999 29.5049 789.286 29.7421C787.384 29.9792 785.482 31.8766 783.581 32.5881C780.252 33.7739 776.448 33.2996 772.882 34.2482C769.554 34.9597 766.464 38.7544 763.373 39.2287C760.996 39.7031 757.192 38.0429 756.241 40.1774C755.528 42.5491 758.143 43.0234 757.192 44.6836C755.052 48.2411 750.06 49.4269 747.445 52.7473C746.732 53.696 746.494 55.119 745.781 56.3048C744.83 57.7278 742.69 58.4393 741.977 59.8623C740.788 61.7597 741.264 63.657 739.362 64.6057C736.509 66.2658 732.468 65.08 729.615 66.2658C727.951 66.9773 726.762 68.6375 725.098 69.349C721.056 71.4835 715.588 72.195 713.211 76.2269C712.498 79.7844 714.162 82.3932 714.4 85.0021C714.637 86.6622 714.162 88.3224 714.637 89.9826C715.588 92.8286 719.868 95.9118 723.671 95.9118C729.615 95.9118 734.369 88.3224 739.124 89.2711C741.501 89.7454 741.739 93.5401 742.928 95.6746C744.117 97.5719 749.109 100.892 748.396 104.213C747.92 106.821 741.977 107.77 738.886 107.77C738.649 104.924 739.362 100.181 736.984 98.7578C732.23 101.129 728.901 100.418 727.475 104.213C725.811 108.956 730.328 112.513 729.615 116.783C728.901 121.289 719.392 119.866 715.113 120.577C712.022 121.052 710.834 125.083 708.219 128.167C706.317 130.301 702.988 132.673 700.373 133.859C698.947 134.333 697.52 134.333 696.332 135.044C694.668 136.23 693.954 139.076 691.815 140.499C690.388 141.448 684.92 144.294 683.256 144.294C681.354 144.294 679.928 142.634 678.502 143.108C676.6 143.82 676.837 147.377 674.698 148.089C670.419 149.512 663.524 144.294 662.098 150.697C664 154.255 668.517 153.543 671.607 155.441C673.509 156.627 677.788 162.081 678.264 164.216C678.739 166.113 678.026 172.991 677.313 174.889C675.411 179.869 670.894 178.209 664.951 177.972C663.287 177.972 661.622 178.446 660.196 178.209C650.449 177.497 640.702 174.177 636.185 181.055C636.66 186.51 637.611 189.83 636.423 194.573C635.472 197.894 632.381 200.977 632.619 204.06C632.619 205.483 634.521 207.143 634.758 209.041C634.996 210.226 634.283 212.361 634.758 213.547C636.423 216.63 640.702 214.021 643.555 214.495C646.407 214.97 649.498 219.002 649.498 222.085C649.498 224.219 647.358 227.777 645.932 229.911C643.079 234.18 639.513 234.18 635.472 236.552C632.143 238.449 630.717 241.533 628.815 244.853C626.675 248.41 625.487 250.545 626.2 255.525C623.347 261.217 619.068 264.538 613.362 267.147C611.698 267.858 609.321 268.095 607.657 269.281C606.468 270.23 605.755 272.602 603.853 274.736C601.713 277.108 599.336 278.294 598.147 280.191C597.196 281.614 596.958 284.46 596.008 286.594C594.581 289.203 591.728 290.626 590.064 293.235C589.351 294.421 588.876 297.03 587.925 298.69C586.023 302.247 582.457 304.856 582.932 308.177C583.408 311.26 586.736 311.734 586.974 314.58C587.211 316.003 586.023 316.952 586.023 318.612C586.023 320.984 587.687 322.644 587.925 324.541C588.4 329.285 586.26 331.182 585.31 334.265C584.834 335.688 585.072 337.585 584.596 338.771C583.883 341.143 580.555 343.277 580.555 346.123C580.555 348.021 582.694 349.681 582.694 352.527C582.932 354.424 581.744 356.559 581.981 358.219C582.694 361.539 588.876 365.571 591.491 368.18C595.057 371.737 599.811 374.583 601.238 378.141C602.426 381.224 602.426 385.493 605.042 387.865C606.943 389.525 610.034 390.711 612.411 392.608C614.551 394.268 616.928 395.929 619.306 397.589C623.109 400.672 629.053 406.601 634.996 406.127C638.087 405.89 641.415 403.281 644.981 402.569C648.785 401.858 653.539 401.621 657.343 401.858C660.196 402.095 663.287 403.992 666.139 403.755C669.23 403.518 673.034 401.146 676.6 399.723C682.781 397.114 692.053 393.32 701.086 394.743C709.407 397.114 708.932 404.941 713.924 408.024ZM876.297 498.385C876.535 498.385 876.773 498.385 877.01 498.385C880.339 500.045 878.437 506.449 877.01 508.82C873.444 507.16 874.871 500.994 876.297 498.385ZM869.641 447.631C865.837 447.868 862.746 447.394 861.32 445.022C862.508 442.176 861.082 439.805 862.033 436.721C863.222 432.452 874.633 429.369 875.584 435.536C876.059 438.382 873.444 440.516 872.493 442.651C871.542 445.022 871.78 446.682 869.641 447.631ZM847.769 461.15C848.007 461.15 848.482 461.15 848.72 461.15C851.335 462.81 849.909 466.13 850.622 468.976C851.097 471.348 854.426 473.008 853.237 475.38C848.72 474.905 845.629 466.367 847.769 461.15ZM1065.3 165.639C1063.87 163.504 1067.2 160.421 1068.39 162.793C1068.15 164.69 1067.44 165.876 1065.3 165.639ZM991.123 167.536C994.927 166.588 999.919 174.651 994.927 175.837C991.361 176.549 986.131 168.722 991.123 167.536ZM962.12 219.476C958.791 219.476 955.701 216.867 952.372 215.444C949.044 214.021 945.478 213.784 944.765 210.464C944.527 208.803 945.003 204.534 945.716 202.637C946.191 200.74 948.093 200.265 947.855 198.605C947.855 196.471 942.388 192.439 940.486 190.779C937.871 188.17 934.305 186.273 932.878 183.189C932.403 182.004 932.403 180.343 931.927 179.158C930.739 176.549 928.123 175.363 927.886 173.466C927.648 172.043 929.55 169.434 930.738 168.485C932.165 167.299 934.78 166.113 937.395 164.453C942.625 160.658 946.904 159.473 954.987 161.37C957.127 162.556 958.316 167.536 956.176 169.197C950.946 169.197 946.429 171.094 946.429 174.651C946.191 178.92 955.225 183.427 958.791 185.561C959.029 187.458 959.267 189.593 960.693 190.542C965.448 188.644 970.203 191.49 970.203 195.285C969.014 197.894 965.923 195.285 964.021 196.234C963.308 196.234 963.784 197.182 963.07 197.182C964.735 205.009 973.055 205.72 971.629 216.63C969.489 218.527 965.686 219.713 962.12 219.476ZM886.282 194.336C877.486 194.099 871.067 187.696 861.082 187.933C858.705 187.933 856.803 188.644 855.139 189.119C852.524 190.067 850.622 192.439 848.244 192.913C845.392 193.625 840.875 192.202 838.497 192.913C835.644 193.862 835.407 200.74 829.701 195.996C829.463 193.15 833.267 194.336 833.505 191.965C833.267 189.593 830.414 188.407 829.939 185.561C829.701 182.478 832.554 181.292 833.743 177.735C833.98 176.549 833.743 175.363 833.98 174.651C834.456 173.466 836.12 172.517 837.071 171.094C838.973 168.485 840.875 163.03 844.678 162.556C848.244 162.081 850.146 165.165 853.237 165.165C855.376 168.011 856.327 172.754 860.131 173.466C863.459 173.94 867.026 171.094 870.116 169.908C869.403 167.062 866.075 168.485 865.599 165.876C864.886 161.133 875.108 159.473 879.388 160.421C882.003 165.639 875.584 166.588 875.584 169.434C875.584 172.043 884.142 174.651 886.282 176.074C890.086 178.446 894.127 180.106 897.218 182.004C901.497 184.612 905.539 191.727 896.98 193.388C894.365 194.336 889.135 194.336 886.282 194.336ZM873.682 239.398C872.018 244.379 873.207 249.359 868.214 251.019C861.795 253.391 857.754 248.41 851.81 248.885C848.72 249.122 846.343 252.205 843.014 252.679C837.784 253.391 832.316 248.885 826.373 248.173C824.946 247.936 823.282 248.41 822.331 248.173C820.905 247.699 819.716 246.039 818.29 245.564C815.675 244.616 813.773 245.327 811.396 244.616C808.305 239.161 792.614 238.687 791.188 246.75C790.475 250.308 793.09 255.288 787.622 255.763C784.294 256.237 780.965 252.442 776.211 251.256C774.309 250.782 771.694 251.019 770.267 250.545C766.939 249.359 767.177 246.039 764.324 243.904C762.66 242.718 758.143 241.058 755.528 240.821C753.864 240.584 752.2 241.295 750.535 241.058C748.396 240.821 745.305 239.398 743.641 238.212C741.977 237.264 738.411 235.603 737.935 234.18C737.222 231.809 742.215 229.2 742.452 227.303C742.69 225.88 740.55 224.931 740.313 222.559C740.075 221.136 740.788 219.713 740.55 218.764C740.075 217.104 737.46 215.444 734.845 215.207C732.705 215.207 730.566 217.104 728.426 217.104C725.573 217.104 721.056 215.681 717.728 215.918C715.588 216.156 713.686 217.341 711.785 217.579C706.317 218.053 701.8 217.341 697.52 217.579C694.43 217.816 688.962 218.764 686.109 220.188C684.683 220.899 683.494 222.322 681.592 223.271C680.641 223.745 679.453 223.745 678.502 224.219C676.6 224.931 674.936 226.828 673.034 227.303C670.656 228.014 666.853 226.828 662.336 227.065C659.245 227.303 653.777 227.303 653.777 223.271C653.777 217.342 663.762 219.476 669.23 218.527C671.37 218.053 672.32 216.156 674.936 214.733C676.124 214.021 677.551 214.021 678.739 213.072C680.641 211.649 683.494 208.566 683.732 207.143C683.97 205.72 683.019 203.823 683.019 202.637C683.256 201.214 684.683 200.028 686.585 198.131C689.2 195.522 692.053 191.965 695.381 190.304C697.52 189.119 700.611 189.356 701.8 187.458C702.037 185.324 701.324 184.375 701.562 182.478C702.988 181.292 703.939 180.106 705.128 179.869C708.456 179.158 711.785 182.241 715.826 182.004C717.49 182.004 719.154 180.818 720.819 179.395C722.483 178.446 724.147 177.735 725.573 176.786C727.237 175.837 728.901 174.177 731.041 173.94C736.034 173.703 737.935 179.158 740.075 182.241C741.977 184.612 747.445 188.881 750.535 190.779C752.2 191.727 754.577 191.727 756.479 192.676C760.52 194.573 768.603 200.74 768.841 204.534C768.841 206.432 766.939 208.092 767.177 209.989C770.267 210.464 773.833 207.143 773.833 204.06C773.833 202.163 771.932 200.977 772.169 199.08C773.596 195.996 777.875 199.08 779.777 197.894C779.301 194.336 774.547 194.099 771.456 192.202C769.792 191.253 768.841 189.119 766.939 188.407C764.562 187.458 761.947 187.696 760.045 186.273C758.143 184.85 757.43 181.766 755.528 179.632C752.913 176.549 747.445 176.074 748.871 169.197C749.584 168.248 751.486 166.588 752.675 167.062C755.052 167.536 754.815 169.671 756.479 170.857C757.667 171.805 759.569 171.568 760.996 172.517C762.66 173.466 763.611 176.312 765.513 177.972C768.128 180.106 772.882 181.766 776.448 183.664C780.015 185.324 785.482 187.696 786.196 190.542C786.671 192.202 785.72 194.099 785.958 195.522C786.196 197.419 787.622 199.317 788.573 200.503C790.95 203.823 794.516 206.906 797.131 210.938C797.131 216.393 799.033 219.95 805.452 219.002C807.592 217.816 806.641 216.156 808.305 214.258C809.969 212.598 813.535 212.835 813.773 210.226C813.773 206.195 804.263 205.72 805.69 199.791C806.165 197.894 808.067 198.842 809.731 198.842C812.346 195.759 818.052 191.727 821.618 196.708C823.282 206.195 826.135 214.495 833.029 219.713C837.784 218.053 839.924 222.322 844.441 221.611C846.58 221.136 847.769 218.527 849.909 218.053C853.712 217.579 856.327 221.611 859.893 222.085C865.837 222.796 870.116 216.156 876.059 219.476C876.297 224.219 877.724 226.828 877.724 230.149C877.01 233.469 874.871 235.841 873.682 239.398ZM1210.31 129.827C1208.89 131.25 1207.94 133.621 1205.8 132.436C1206.04 130.064 1207.94 129.352 1209.36 127.929C1209.13 124.609 1212.45 122.475 1212.93 119.391C1213.17 117.257 1210.55 113.462 1214.12 112.751C1216.5 115.359 1218.64 119.391 1217.21 123.423C1216.5 126.269 1212.69 127.455 1210.31 129.827ZM1124.73 19.781C1124.02 17.8837 1126.39 17.6465 1127.58 16.935C1129.72 15.7492 1131.15 14.3262 1134.48 14.3262C1133.76 17.8837 1127.82 19.3067 1124.73 19.781ZM1003.72 46.3438C1003.96 40.8889 993.738 38.9916 994.214 32.1137C994.689 32.1137 994.451 31.6394 994.451 31.1651C999.206 30.2164 998.731 34.4854 1000.87 37.5686C1002.53 40.1774 1006.34 40.6518 1007.53 41.6004C1012.52 46.3438 1008.95 54.6446 1001.58 52.9845C1000.63 49.6641 1003.72 49.427 1003.72 46.3438ZM902.21 41.3633C903.399 38.2801 896.98 37.5686 897.693 41.1261C898.407 42.3119 901.022 42.3119 902.21 41.3633ZM866.075 228.014C864.886 225.642 858.943 226.591 858.943 229.2C860.131 232.283 865.837 230.623 866.075 228.014ZM763.135 218.29C765.037 216.867 765.037 213.784 765.988 211.412C761.471 211.412 754.101 209.752 750.773 212.361C753.15 216.156 757.905 217.341 763.135 218.29ZM727.475 204.297C729.615 208.092 734.132 204.772 735.083 202.163C736.747 193.388 732.23 191.016 727.713 195.522C727.713 199.08 728.188 201.451 727.475 204.297ZM731.754 190.304C733.181 189.356 734.369 188.17 733.894 185.561C730.803 182.004 727.713 189.593 731.754 190.304ZM667.09 125.321C667.328 128.878 664.475 129.59 663.524 131.961C664 133.621 666.377 133.147 666.615 135.044C666.377 136.942 662.573 137.416 663.524 139.551C666.853 142.159 670.419 139.076 673.509 138.602C680.641 137.653 687.773 139.551 692.053 135.993C691.577 132.673 695.619 131.487 695.143 128.404C694.905 126.032 691.102 125.795 689.438 124.372C688.487 123.423 688.249 121.526 687.298 119.866C686.109 117.968 683.732 116.545 682.305 114.885C680.404 112.513 676.6 108.956 676.6 107.059C676.6 104.924 679.215 104.45 679.69 101.367C679.215 98.7578 673.985 100.418 673.747 97.5719C673.985 95.6746 675.649 95.4374 675.649 93.5401C675.173 93.3029 674.698 93.0658 673.985 93.3029C672.321 95.4374 669.468 94.4888 666.615 95.4374C664.475 96.1489 660.196 99.9436 659.721 101.367C658.77 103.501 659.958 106.11 659.721 109.667C661.622 110.379 662.573 113.936 665.664 115.597C666.853 116.308 668.517 116.071 669.468 116.545C671.37 117.494 672.796 119.866 672.321 121.526C672.321 124.135 668.992 123.423 667.09 125.321ZM644.03 118.443C641.415 119.391 639.751 118.68 639.275 121.052C639.038 122.949 640.94 123.898 640.94 125.795C639.989 128.167 637.373 128.641 636.898 131.487C639.989 136.705 647.834 131.961 651.638 130.775C653.539 130.301 656.155 130.301 657.106 128.878C658.294 127.218 657.343 124.372 658.056 122C659.007 119.391 661.622 118.917 661.147 116.545C660.672 113.462 653.302 111.565 649.26 113.936C646.645 115.597 645.932 117.731 644.03 118.443ZM424.601 48.7155C425.552 52.273 434.348 48.7154 433.635 45.8694C431.495 42.0748 423.887 45.6323 424.601 48.7155ZM418.657 755C420.321 755 421.748 755 423.412 755C422.461 754.526 419.371 754.526 418.657 755ZM409.148 24.7615C410.574 24.9987 410.812 24.2872 411.05 23.5757C410.574 23.1014 409.623 23.1014 409.148 23.5757C409.148 23.8129 409.148 24.2872 409.148 24.7615ZM375.39 72.195C374.201 72.9065 373.963 74.0924 374.201 74.8039C374.914 78.1242 381.095 75.2782 381.095 73.618C381.095 71.7207 377.054 71.2464 375.39 72.195ZM249.152 366.994C249.39 366.52 249.628 366.283 249.865 365.808C248.915 362.725 245.824 366.994 249.152 366.994ZM124.579 149.274C126.006 147.851 123.866 144.531 121.726 145.717C121.489 147.14 122.202 149.749 124.579 149.274ZM471.672 160.896C475.951 160.896 475.951 156.152 473.574 153.306C474.287 150.223 475.476 148.8 474.525 146.666C472.623 142.871 465.491 146.666 465.016 141.685C464.778 138.602 467.631 138.602 468.819 136.23C468.344 130.064 473.812 129.59 473.336 124.372C473.099 122 471.197 122 469.533 119.866C468.819 118.68 468.344 116.545 467.393 115.834C464.065 112.988 457.408 113.699 456.933 108.244C456.695 105.161 457.646 102.552 457.17 99.2321C456.695 96.1489 454.555 87.1366 451.702 86.6622C448.136 85.9507 444.57 91.8799 440.291 94.0144C437.914 95.2003 434.823 96.3861 432.446 95.9118C431.02 95.6746 427.929 93.5401 427.691 90.4569C427.453 87.1366 429.831 87.1366 430.544 83.5791C430.069 81.4446 427.929 81.9189 425.789 80.4959C423.412 78.8357 421.51 75.041 418.42 74.5667C416.993 74.3295 414.854 75.7525 413.427 75.7525C408.672 75.9897 404.631 72.6694 401.065 73.618C396.786 74.5667 397.023 81.2074 392.744 82.3932C393.22 85.4764 389.178 87.6109 388.703 89.9826C388.465 91.6427 389.178 93.5401 389.416 94.9631C390.367 109.905 378.005 117.02 363.265 116.783C360.412 119.629 361.125 124.609 359.461 128.404C358.035 131.487 353.518 135.044 350.427 134.807C348.05 134.57 345.435 131.25 345.435 129.115C345.435 126.506 349.239 124.846 347.099 121.763C347.337 119.629 352.091 118.443 351.616 115.122C351.141 111.565 346.148 113.462 341.869 112.988C338.778 112.513 334.499 110.853 331.884 109.193C328.08 107.059 324.99 103.264 320.235 102.552C317.382 102.315 315.005 103.501 313.578 101.841C312.152 100.181 314.054 97.5719 314.292 96.3861C314.292 94.4888 310.726 93.7773 310.488 91.8799C310.25 90.4569 313.816 86.4251 315.243 85.2392C317.62 83.1047 322.375 80.733 326.178 78.5985C330.22 76.464 334.737 74.0924 338.541 72.9065C340.205 72.4322 342.107 72.4322 343.533 71.9579C347.575 70.5349 350.19 67.6888 353.993 66.503C355.895 66.0287 358.035 66.0287 360.412 65.5543C365.642 64.3685 369.446 60.5738 373.963 59.8623C373.012 63.4198 368.971 64.1313 368.02 67.6888C371.824 74.5667 378.48 66.0287 382.759 66.0287C386.801 66.0287 390.842 71.7207 393.457 66.2658C392.506 63.4198 389.654 61.7597 387.039 59.8623C384.661 58.2021 380.857 57.0163 381.095 53.4588C383.948 52.273 385.137 55.5933 387.752 55.5933C389.178 55.5933 391.08 53.9331 392.506 53.4588C395.835 52.273 401.303 52.0358 403.918 49.6641C405.582 48.2411 405.344 46.1066 406.533 44.2093C407.484 42.7863 410.099 42.3119 411.288 40.6518C412.714 38.7544 411.525 37.3314 413.189 36.1456C416.755 34.4854 421.51 36.6199 425.552 36.1456C427.453 35.9084 428.88 34.4854 430.544 34.4854C434.11 34.7226 436.012 40.4146 438.389 42.0748C440.291 43.2606 443.382 43.2606 443.857 45.6323C444.57 50.1385 437.914 50.6128 433.872 52.9845C431.733 54.1703 431.02 56.7791 428.404 57.7278C421.748 60.3367 411.525 54.8818 409.386 62.234C412.476 66.7402 418.182 61.9968 421.986 61.9968C424.838 61.9968 428.167 64.6057 429.831 66.503C431.257 68.1632 431.733 71.2464 433.635 72.195C434.823 72.9065 436.963 72.6694 438.389 73.1437C442.906 74.5667 446.948 76.9384 451.94 75.9897C453.604 72.9065 448.374 72.195 450.276 69.5862C453.604 69.8233 455.982 71.2464 458.597 72.4322C462.163 69.8233 464.778 69.5862 464.54 65.3172C464.54 61.7597 459.785 61.5225 459.785 57.4906C459.785 55.119 461.45 54.1703 463.351 53.9331C467.393 53.696 468.582 59.8623 471.672 60.3367C473.574 60.5738 478.804 57.965 479.755 57.4906C481.182 56.7791 485.936 53.9331 486.174 52.5101C486.412 50.1385 481.419 47.2924 478.804 46.1066C475.476 44.6836 471.91 44.9208 470.721 42.0748C470.008 40.4146 471.197 38.7544 469.77 37.5686C469.533 35.9084 471.91 34.7226 471.434 33.0624C470.959 31.4022 469.057 31.6394 466.68 30.4536C465.016 29.7421 463.352 28.0819 461.925 27.6075C460.023 27.1332 458.121 27.6075 456.457 26.896C450.989 24.7615 451.94 20.2554 448.136 18.1208C443.382 18.5952 439.34 16.4607 435.774 18.358C431.495 15.9863 425.076 18.8324 419.608 18.358C417.944 18.1208 416.518 17.1722 414.854 17.1722C406.533 16.4607 395.122 21.6784 391.793 25.473C391.08 26.1845 388.703 30.2164 389.178 32.1137C390.129 35.4341 396.31 33.0624 397.974 36.1456C397.499 39.9403 393.457 42.0748 390.129 43.7349C387.039 45.3951 382.997 49.1898 379.669 47.2924C378.48 43.9721 383.473 43.9721 382.284 40.8889C381.333 38.7544 377.529 40.1774 375.627 38.0429C373.25 35.1969 376.103 30.9279 375.39 26.6589C378.956 20.2554 392.506 23.8129 396.31 17.6465C395.835 15.512 393.695 16.6978 392.269 15.9863C390.605 15.2748 390.129 13.8518 388.465 13.8518C386.801 13.8518 384.661 15.7492 382.759 16.4607C380.62 17.4093 378.242 17.8837 376.816 19.0695C373.25 21.4412 371.824 27.1332 367.782 25.9474C366.831 22.627 371.823 20.7297 371.348 17.6465C370.397 15.7492 367.544 16.4607 365.405 16.6978C359.461 17.1722 355.182 18.5952 352.805 21.6784C350.665 21.4412 347.812 20.2554 346.386 21.9155C347.812 24.2872 350.427 28.0819 353.756 28.5562C355.895 29.0305 358.273 26.896 360.412 28.5562C360.888 31.8766 356.371 31.8766 356.371 35.1969C356.371 37.0942 358.748 38.2801 358.51 40.1774C358.035 42.7863 351.141 46.1066 348.525 44.6836C348.525 41.6004 352.567 42.5491 352.567 39.7031C352.567 38.5172 350.427 36.8571 349.001 36.6199C346.386 36.1456 342.344 38.0429 340.442 39.7031C339.016 41.1261 339.016 43.7349 337.352 45.1579C334.499 47.0553 330.933 46.1066 327.605 46.1066C321.186 46.3438 317.62 46.5809 313.103 44.2093C311.677 43.4978 309.061 42.3119 309.299 40.1774C314.292 39.9403 319.046 42.5491 324.752 41.3633C326.892 40.8889 327.605 39.2287 329.507 38.2801C331.646 37.3314 334.261 38.2801 334.975 36.1456C334.737 32.3509 330.22 33.5367 329.982 30.4536C329.744 28.7934 332.359 25.2359 334.024 23.5757C335.926 21.6784 339.492 21.4412 339.967 19.0695C338.303 15.7492 334.975 19.3067 332.359 19.781C330.933 20.0182 329.269 19.5439 327.843 19.781C324.514 20.4925 323.088 23.3385 320.948 24.5244C318.809 24.05 318.333 21.6784 316.194 21.4412C313.341 23.5757 310.726 22.1527 307.873 21.4412C306.446 21.204 304.544 21.204 303.356 20.7297C300.741 20.0182 299.314 16.935 295.986 15.9863C294.322 15.512 291.231 15.9863 288.141 15.7492C282.911 15.0377 278.156 13.6147 273.639 14.089C268.171 14.8005 264.843 18.5952 260.326 20.4925C255.096 22.627 245.824 25.473 252.956 29.9792C260.088 29.7421 266.269 26.6589 272.45 26.4217C273.163 30.2164 270.311 33.5367 268.884 36.1456C267.933 38.0429 268.171 39.4659 266.982 40.1774C262.465 43.2606 254.382 37.5686 248.677 36.6199C245.348 36.1456 242.733 37.5686 239.881 37.5686C236.79 37.5686 234.175 36.1456 231.322 37.5686C228.945 36.8571 229.183 33.7739 226.805 33.5367C225.141 33.2996 223.001 35.1969 221.337 35.4341C219.673 35.6712 218.247 34.9597 216.583 35.1969C213.492 35.4341 209.926 36.6199 206.598 37.3314C202.794 38.0429 198.99 37.5686 195.186 38.0429C190.194 38.5172 184.726 41.1261 179.734 40.6518C177.119 40.4146 174.979 38.0429 172.364 37.5686C170.462 37.0942 168.56 37.5686 166.658 37.3314C164.756 36.8571 163.092 36.1456 161.19 35.6712C156.436 34.7226 150.968 35.6712 145.975 34.9597C143.836 34.7226 142.172 33.2996 140.032 33.0624C137.655 32.8252 135.277 33.5367 132.662 33.0624C131.236 32.8252 129.809 31.8766 128.145 31.4022C126.243 30.9279 124.104 31.4022 122.202 31.1651C120.3 30.9279 118.398 29.2677 116.496 29.2677C113.643 29.0306 110.791 30.6907 107.938 31.1651C104.847 31.8766 101.994 31.4022 98.9037 31.8766C95.1 32.1137 90.8208 33.7739 86.5415 34.4854C82.2623 34.9597 78.2208 36.1456 74.6548 37.5686C70.3755 39.2287 67.0473 40.1774 62.768 40.6518C58.9643 41.1261 53.9718 40.6518 51.3567 44.4464C52.07 47.0553 54.2096 49.6641 53.2586 52.9845C51.119 57.4906 46.3643 53.4588 42.7983 53.2216C39.7077 52.9845 34.0021 54.4075 30.4361 55.119C26.3946 56.0676 21.1644 57.0163 21.4021 60.5738C21.8776 66.2658 35.4285 61.7597 38.7568 64.3685C39.2323 68.6375 33.0512 67.926 28.7719 68.4003C26.6323 68.6375 24.7304 70.0605 23.0663 70.2977C21.4021 70.2977 19.9757 69.5862 18.5493 69.5862C15.4588 69.8233 12.8437 71.7207 8.80219 73.1437C6.66257 74.3295 0.243727 76.2269 0.00599157 77.887C-0.231743 80.733 6.66257 82.8676 10.4663 84.5277C15.4588 86.8994 18.3116 88.3224 22.8286 89.2711C27.821 90.4569 36.6172 89.9826 41.3719 89.5082C43.2738 89.2711 45.6511 88.5596 46.8398 88.5596C49.9303 88.7967 49.9303 91.1684 52.5454 91.4056C55.636 91.6428 57.0624 89.5082 60.1529 88.7967C63.2435 88.0852 67.285 88.5596 70.1378 87.1366C73.2284 85.7136 74.417 83.3419 76.7944 83.1047C80.3604 82.8676 82.2623 86.4251 86.3038 87.1366C92.7226 88.3224 97.7151 86.6622 102.47 89.0339C106.036 90.9313 107.938 96.3861 109.84 98.5206C110.553 99.4693 107.938 101.841 107.7 103.264C107.462 104.213 108.413 105.636 108.413 107.059C108.175 110.379 105.56 112.513 107.7 114.411C110.077 116.308 113.881 111.802 116.021 114.648C118.16 117.731 114.119 118.917 113.406 121.526C112.692 124.846 114.357 127.929 114.357 131.013C114.357 132.436 113.881 135.519 113.406 136.705C112.455 138.839 109.364 138.839 108.889 141.211C108.413 144.768 114.119 147.377 114.594 150.223C114.832 152.358 112.93 156.389 111.979 158.05C109.84 163.03 106.511 167.299 102.945 171.568C99.617 175.6 94.6245 179.395 92.2472 183.427C91.0585 185.561 90.8208 188.17 89.6321 190.304C87.9679 193.388 85.1151 194.811 83.6887 197.894C82.9755 202.163 83.451 206.195 83.6887 210.226C83.9264 214.258 83.451 218.29 83.9264 222.085C84.1642 224.219 84.8774 228.251 86.0661 230.149C87.4925 232.283 89.6321 231.809 92.4849 233.232C94.6245 234.418 97.7151 237.264 98.4283 239.635C99.1415 242.007 98.666 245.564 99.1415 248.648C99.3792 251.968 99.617 255.763 100.33 258.134C101.281 260.743 105.323 263.352 105.323 266.198C105.323 269.044 101.519 269.281 101.519 272.127C101.519 276.633 110.553 276.871 111.504 281.14C111.979 283.511 110.315 285.883 110.79 287.78C111.266 289.915 115.07 291.812 116.258 292.761C118.16 294.421 119.349 297.504 122.202 296.793C124.341 293.947 120.538 291.575 119.349 289.203C118.16 286.594 118.16 281.851 116.734 277.582C115.783 274.973 113.406 272.839 112.692 270.23C111.741 267.621 111.979 265.012 111.028 262.878C110.077 260.743 107.224 258.134 106.987 256C106.036 248.41 113.881 245.802 116.021 251.494C117.447 254.814 115.545 258.134 116.021 261.455C116.496 264.301 120.062 267.147 121.964 269.518C124.104 272.364 125.768 275.21 127.67 277.108C127.907 279.242 127.907 279.479 127.67 281.614C130.285 284.697 133.375 287.543 135.753 290.626C139.319 295.132 144.787 300.35 144.073 307.939C143.836 310.311 141.458 312.446 141.458 314.817C141.458 316.952 144.073 319.561 146.451 321.221C149.066 322.881 150.968 325.016 153.107 325.964C154.534 326.676 157.149 326.676 158.813 327.624C160.953 328.573 162.854 330.945 165.47 332.368C168.56 334.028 172.839 334.977 176.881 336.874C180.685 338.534 185.677 340.906 188.53 340.906C191.62 340.906 194.711 337.823 198.039 337.823C205.884 337.585 209.213 347.546 215.394 350.63C217.058 351.341 218.96 351.341 221.1 351.815C222.764 352.29 223.952 352.764 225.616 353.476C228.945 354.661 232.986 354.424 235.601 355.61C239.643 357.507 242.496 364.86 246.062 366.994C246.299 369.129 245.586 371.737 246.299 373.398C247.964 375.532 250.341 375.058 252.956 376.481C256.284 378.141 257.235 382.647 260.326 384.07C261.277 384.545 264.13 384.545 265.794 385.019C270.073 386.205 271.262 391.185 274.828 389.999C277.205 389.288 276.967 386.916 277.443 384.545C279.107 382.884 280.771 380.276 283.148 380.038C286.952 380.038 287.428 384.07 288.854 387.865C289.567 389.999 291.707 391.897 292.42 394.268C293.371 398.063 292.895 409.921 292.182 412.293C291.231 415.139 287.428 416.325 284.812 419.645C283.624 421.068 283.148 423.203 282.197 424.389C280.771 426.286 278.394 426.76 277.205 428.421C276.492 429.369 276.016 431.504 275.303 432.927C273.401 436.959 270.786 439.805 272.45 444.548C273.163 446.445 276.254 447.868 276.254 450.24C276.254 453.086 270.311 455.458 269.835 458.304C269.597 460.438 271.737 464.47 272.45 467.316C272.926 469.45 277.205 470.873 278.394 472.296C280.533 474.668 282.435 478.226 284.337 481.309C288.379 487.475 291.469 494.827 295.273 500.757C297.412 503.84 300.265 506.686 301.692 509.769C302.405 511.429 302.405 513.326 302.88 514.749C305.02 519.73 315.005 525.185 320.235 527.557C322.612 528.742 325.227 529.217 327.605 530.403C330.933 532.3 337.59 537.28 339.254 540.126C340.68 542.735 341.631 549.139 342.344 553.408C343.295 558.863 342.344 563.132 342.582 569.061C342.82 572.381 343.771 575.464 343.771 578.785C343.771 579.971 343.295 580.682 343.058 581.868C342.82 585.9 344.009 590.169 343.771 594.201C343.533 596.335 343.058 597.995 343.058 599.893C343.295 601.79 344.246 603.45 344.246 605.347C344.484 607.245 343.771 609.616 344.009 611.039C344.484 615.071 347.337 618.154 348.05 621.712C348.763 624.558 349.001 630.487 348.763 634.045C348.525 635.942 347.575 637.602 347.099 639.737C346.861 641.397 347.337 643.057 347.099 644.48C346.861 646.615 345.435 648.512 345.435 650.409C345.673 654.678 350.427 658.236 351.141 662.268C351.378 663.691 350.665 665.351 350.903 666.774C351.141 669.383 352.329 671.517 352.805 674.126C353.756 677.921 352.805 682.901 356.608 684.561C360.65 683.375 355.895 678.869 358.273 676.972C362.79 678.395 361.363 685.747 362.79 690.253C360.888 691.439 358.986 689.067 357.797 691.202C356.846 693.099 359.224 694.997 359.461 696.182C359.699 698.554 357.797 701.163 358.273 702.823C358.986 705.432 363.741 704.958 364.691 707.329C365.405 709.701 363.027 711.361 363.027 713.97C363.027 716.579 366.356 721.085 368.971 724.643C370.159 726.303 372.061 727.251 373.012 728.674C373.963 730.097 374.439 732.232 375.627 733.418C376.816 734.604 379.431 735.078 381.095 736.264C383.948 738.161 386.801 742.667 389.654 744.09C390.842 744.802 392.506 745.039 394.171 745.75C396.31 746.699 398.212 748.122 400.114 748.834C405.344 750.731 410.337 751.917 414.616 753.814C416.042 753.814 417.469 753.814 419.133 753.814C420.084 753.34 422.937 753.34 423.887 753.814C424.125 753.814 424.363 753.814 424.601 753.814C427.216 753.103 429.593 752.391 430.306 749.782C428.404 745.276 421.748 745.988 417.469 743.379C414.616 741.719 411.763 738.161 409.623 735.789C407.484 733.418 402.967 730.097 402.967 727.014C402.967 724.643 405.582 723.931 406.057 721.559C406.533 719.899 405.344 719.425 406.057 717.528C407.246 713.733 410.812 713.733 410.812 709.938C410.574 703.772 398.45 706.381 398.212 699.977C397.974 695.708 404.393 695.945 405.106 691.676C405.582 689.779 404.631 689.067 404.393 685.984C405.106 682.901 408.435 682.427 409.148 679.344C407.721 677.209 404.869 678.632 402.729 677.446C400.827 676.26 399.876 673.889 400.114 671.517C403.442 670.094 409.861 674.837 412.001 670.331C413.189 668.197 410.574 662.742 412.238 660.607C413.427 659.184 419.37 659.184 421.748 658.71C425.076 658.236 429.118 657.524 430.782 656.101C432.921 654.678 435.774 650.884 435.536 647.089C435.299 645.192 434.11 644.717 432.684 643.057C431.495 641.634 431.02 639.974 430.069 638.551C428.642 636.416 426.265 636.653 425.552 633.57C430.069 632.622 436.963 637.365 443.619 635.468C446.71 634.519 450.989 627.878 452.416 625.032C452.891 624.084 452.891 622.661 453.367 621.475C453.842 620.289 455.031 619.34 455.268 618.629C455.744 616.969 455.506 615.546 455.982 614.597C457.17 611.514 460.023 610.328 461.925 607.956C463.352 606.059 464.065 604.162 465.491 602.264C466.918 600.367 468.344 598.707 469.295 596.809C470.246 591.117 466.917 587.086 468.344 582.105C469.77 576.413 477.616 573.093 483.083 570.484C484.985 569.535 486.887 568.112 488.551 567.638C492.355 566.215 497.11 566.926 500.438 565.74C506.382 563.606 507.095 557.202 509.948 551.985C511.374 549.376 513.038 546.767 513.514 545.107C513.751 543.447 512.8 542.024 513.276 540.126C513.514 538.229 515.178 536.569 515.891 534.434C516.604 531.588 516.842 527.794 516.842 524.71C516.842 522.102 515.653 519.967 515.653 517.833C515.178 509.769 518.506 508.82 521.597 504.314C523.023 502.18 523.736 499.571 524.687 497.911C529.68 490.321 538.476 486.764 538 475.142C537.763 471.348 535.385 462.81 532.532 461.624C530.868 460.912 527.302 461.624 524.925 460.675C517.555 457.829 513.038 448.58 505.431 448.105C503.766 447.868 502.34 448.817 500.438 448.817C497.348 448.817 492.831 446.682 489.502 446.208C487.363 445.971 484.51 446.92 483.083 446.208C481.182 445.259 480.944 441.702 479.28 440.516C478.091 439.567 475.476 439.33 473.574 438.619C470.484 437.433 468.106 436.01 464.54 435.773C463.351 435.773 461.925 436.247 460.736 436.01C458.835 435.773 457.17 433.401 455.268 432.215C452.891 430.792 450.751 430.081 449.801 428.183C451.94 421.305 446.235 419.408 444.808 415.613C444.095 413.716 444.333 411.582 443.857 409.921C443.144 407.55 440.767 406.127 438.152 404.229C433.635 400.672 429.593 397.589 422.937 396.64C420.084 396.403 417.231 397.589 413.665 397.352C410.099 397.114 405.344 393.794 402.729 390.711C400.114 387.628 398.688 385.019 396.31 383.359C394.171 381.936 391.08 381.936 389.654 380.513C388.94 379.801 389.178 378.853 388.465 377.43C387.276 375.058 385.612 373.872 386.801 371.026C384.186 369.84 384.186 373.398 381.333 372.923C378.956 369.366 376.816 367.706 371.348 368.891C368.733 369.366 367.307 372.686 364.454 372.686C362.076 372.686 360.174 370.077 356.846 369.603C354.469 369.366 351.616 370.314 349.952 369.84C347.337 369.366 346.386 366.994 344.009 365.334C342.107 364.148 338.778 362.251 337.59 362.251C334.499 362.251 332.122 368.892 327.843 366.757C325.703 364.148 331.409 362.725 328.793 360.116C326.892 358.219 325.227 361.065 323.801 362.014C322.137 363.199 320.473 364.385 318.333 365.097C314.054 366.757 311.201 365.808 307.873 367.706C304.782 369.366 304.545 371.975 302.88 375.295C301.454 377.904 298.126 381.698 295.986 381.936C293.371 382.173 290.756 378.141 288.379 377.192C281.246 374.109 277.68 380.038 271.737 380.038C266.269 380.038 258.186 371.026 258.424 365.808C258.662 362.725 260.326 357.745 260.564 353.95C260.801 350.867 262.941 348.969 263.179 346.123C263.179 342.329 258.186 339.246 255.571 338.771C249.628 337.585 241.545 341.143 234.65 338.534C233.462 336.4 236.077 334.977 236.79 332.842C237.265 331.656 237.028 329.996 237.503 328.81C238.216 326.913 240.356 325.253 241.307 323.118C242.02 321.458 242.258 319.086 242.971 317.189C243.684 314.817 245.348 313.394 245.586 311.734C245.824 309.6 245.111 307.228 243.447 305.805C238.216 306.042 234.65 306.279 231.798 307.702C224.903 310.785 226.33 320.035 219.435 322.169C217.058 322.881 213.73 322.881 211.115 323.355C208.975 323.83 206.122 325.016 203.745 325.016C201.13 325.016 196.137 322.407 194.711 320.509C193.285 318.849 189.718 311.26 189.243 309.837C186.628 300.587 189.481 292.049 193.047 285.646C193.76 284.223 194.949 283.037 195.662 281.614C196.613 279.479 195.9 276.159 196.613 273.787C197.801 269.518 203.507 266.672 207.549 264.775C212.066 262.403 216.107 258.609 221.337 258.134C223.952 257.897 227.994 258.846 230.371 259.32C232.749 259.794 234.65 261.455 236.79 261.455C242.733 261.929 243.922 257.423 248.677 254.814C253.669 255.525 256.76 253.865 261.277 254.577C264.367 254.814 266.507 258.134 268.884 258.371C270.786 258.609 272.688 256.474 274.59 256.711C276.492 256.948 279.582 260.98 280.058 263.352C280.533 266.198 277.918 268.807 278.869 271.89C281.96 274.973 287.19 275.448 291.469 277.345C294.322 274.973 291.945 270.941 291.469 267.621C291.231 266.198 291.707 264.775 291.469 263.589C291.231 261.217 290.28 259.32 290.28 257.186C290.28 248.173 297.412 244.141 303.594 240.584C306.209 239.161 308.348 236.315 310.488 235.129C313.578 233.469 315.956 233.232 318.809 231.572C323.563 228.963 327.605 226.828 331.409 223.745C333.073 219.713 331.409 214.258 331.646 210.226C333.31 209.278 334.975 210.701 336.639 210.464C339.492 209.752 339.729 205.72 341.393 204.06C342.344 203.111 344.959 202.4 346.148 201.451C349.001 199.317 349.952 195.759 352.567 194.811C353.518 194.336 355.658 194.573 357.084 194.099C358.986 193.625 361.601 191.253 364.691 190.304C366.593 189.593 371.11 189.593 372.061 188.644C373.012 187.696 372.061 185.087 372.299 183.664C373.725 176.549 384.661 175.126 390.842 172.754C395.359 171.094 399.876 168.011 404.631 168.959C403.68 172.28 399.163 171.094 399.876 175.363C401.065 181.055 408.672 173.703 410.574 172.754C414.378 171.094 421.035 170.145 426.027 168.248C430.544 166.588 438.389 164.216 434.11 159.235C430.544 158.998 428.88 163.267 426.027 164.69C423.887 164.927 424.363 163.03 422.461 162.793C420.797 162.556 419.846 164.453 417.944 163.979C416.28 163.742 413.903 160.896 413.427 158.998C412.714 153.781 417.944 151.646 420.084 147.614C418.657 142.871 412.001 146.666 408.197 144.768C408.672 141.922 411.525 140.025 414.854 139.313C417.469 138.839 423.65 139.313 425.314 140.499C426.265 141.211 425.314 143.345 426.978 144.531C428.642 145.954 430.544 145.717 432.684 145.48C433.397 141.922 427.929 142.871 428.642 140.499C432.921 137.653 439.816 140.025 445.046 139.313C448.136 138.839 451.227 136.705 453.842 135.282C456.457 133.859 459.785 131.25 462.401 133.621C463.114 136.23 460.023 137.179 458.597 138.365C453.842 142.634 448.85 147.614 445.046 152.595C447.423 154.729 451.465 153.781 455.506 154.255C456.933 154.492 458.835 154.966 460.499 155.204C462.401 155.441 464.302 155.441 465.967 155.915C468.344 158.05 469.057 160.896 471.672 160.896ZM121.726 145.954C123.866 144.768 126.006 147.851 124.579 149.512C122.202 149.749 121.489 147.14 121.726 145.954ZM331.409 179.632C331.646 177.972 334.024 177.735 336.163 177.497C339.016 177.26 343.295 176.786 344.722 178.209C343.771 182.004 334.737 181.055 331.409 179.632ZM324.039 172.043C319.76 172.754 318.095 181.055 315.005 180.818C311.914 180.581 310.25 173.228 313.341 171.094C313.578 169.197 311.914 168.959 312.152 167.062C313.103 165.876 315.718 164.69 318.095 164.927C319.522 165.165 321.424 166.588 323.088 166.825C324.752 167.062 326.178 165.876 327.129 166.113C329.744 166.825 330.933 170.857 328.318 172.754C326.416 172.754 325.465 171.805 324.039 172.043ZM312.865 190.542C310.488 191.253 306.446 192.202 305.971 189.593C305.495 186.273 309.537 186.984 311.677 186.747C315.243 186.273 319.522 183.664 324.039 185.087C320.948 187.696 317.858 188.881 312.865 190.542ZM299.314 162.319C297.175 161.844 295.748 158.998 293.609 158.524C289.329 157.812 283.386 163.742 280.296 158.761C281.009 155.915 284.337 155.915 287.665 154.966C293.609 153.306 300.741 148.326 305.971 149.512C308.824 150.223 316.431 158.524 310.012 161.133C309.537 161.607 300.741 162.556 299.314 162.319ZM300.028 171.094C295.511 173.703 292.896 177.972 291.469 183.664C290.994 185.324 286.714 189.83 284.575 189.356C279.582 188.407 286.001 179.158 287.19 177.735C288.379 176.074 290.043 174.889 291.707 172.991C293.133 171.331 294.084 168.959 295.511 168.011C297.65 166.588 304.544 164.927 305.971 166.35C305.258 169.671 302.643 169.434 300.028 171.094ZM266.269 122C272.213 120.577 269.835 131.013 266.269 131.013C261.277 131.25 262.228 122.949 266.269 122ZM249.865 365.808C249.628 366.283 249.39 366.52 249.152 366.994C245.824 366.994 248.915 362.725 249.865 365.808ZM113.643 103.501C113.406 102.315 114.594 102.552 115.545 102.552C115.545 103.027 116.021 103.264 115.783 103.738C115.307 104.45 114.119 104.213 113.643 103.501ZM449.563 52.5101C449.801 54.1703 448.85 54.6446 447.423 54.4075C445.997 52.7473 448.136 51.3243 449.563 52.5101ZM409.148 24.7615C409.148 24.2872 409.148 23.8129 409.148 23.5757C409.623 23.1014 410.574 23.1014 411.05 23.5757C410.812 24.2872 410.574 24.9987 409.148 24.7615ZM270.311 45.3951C270.786 38.7544 275.541 39.4659 278.631 43.4978C283.862 43.9721 289.567 42.7863 293.133 44.4464C293.846 46.1066 292.182 46.8181 291.231 47.5296C285.05 43.2606 276.254 50.1385 270.311 45.3951ZM222.288 82.3932C222.526 80.0216 226.33 79.7844 228.945 78.3614C231.322 77.1755 232.273 75.041 234.65 75.2782C236.315 75.2782 237.979 76.9384 239.405 78.1242C238.93 80.0215 236.552 79.7844 234.65 80.2587C231.56 81.2074 227.281 83.3419 222.288 82.3932ZM218.722 60.3367C219.198 57.4906 220.624 56.0676 221.813 53.9331C227.518 53.4588 237.028 49.1898 238.454 56.0676C237.266 57.965 235.126 57.0163 232.986 57.2535C228.232 58.2021 223.001 61.2853 218.722 60.3367ZM326.416 374.346C329.507 372.923 330.22 378.615 327.605 379.09C325.465 379.327 324.277 375.295 326.416 374.346ZM113.643 103.501C114.119 104.45 115.307 104.45 115.783 103.738C115.783 103.027 115.307 103.027 115.545 102.552C114.594 102.552 113.406 102.315 113.643 103.501ZM100.092 123.186C100.568 123.898 101.043 124.372 101.757 124.846C103.658 124.135 105.56 123.186 106.274 121.052C104.372 117.968 100.092 120.34 100.092 123.186Z" fill="url(#paint0_linear)"/>
<defs>
<linearGradient id="paint0_linear" x1="0" y1="0" x2="1638" y2="0" gradientUnits="userSpaceOnUse">
<stop stop-color="#0841A2"/>
<stop offset="1" stop-color="#1CAADE"/>
</linearGradient>
</defs>
</svg>
