<svg width="72" height="72" xmlns="http://www.w3.org/2000/svg" viewBox="0 0 408.1 435.83">
	<defs>
		<style>.cls-1{fill:#4376c4;}.cls-2{fill:#5fa8de;}</style>
	</defs>
	<g>
		<g>
			<path class="l-color cls-1" d="M359.27,425.83H56.74c-15.92,0-45-12.91-45-28.83h0c-6.63-41.55,21.45-9.77,37.37-9.77l311-3.34c15.92,0,37.9-31.28,37.9-15.36L388.1,397A28.83,28.83,0,0,1,359.27,425.83Z"/>
			<rect class="l-color cls-2" x="11.73" y="87.03" width="376.37" height="44.22"/>
			<rect x="136.1" y="22.79" width="134" height="20"/>
			<rect class="l-color cls-2" x="314.75" y="199.33" width="45.35" height="45.35" rx="5.06" ry="5.06"/>
			<rect class="l-color cls-2" x="231.75" y="285.33" width="45.35" height="45.35" rx="5.06" ry="5.06"/>
			<path d="M97,254.69H61.81a15.09,15.09,0,0,1-15.07-15.07V204.4a15.09,15.09,0,0,1,15.07-15.07H97A15.08,15.08,0,0,1,112.1,204.4v35.22A15.08,15.08,0,0,1,97,254.69Zm-30.3-20H92.1V209.33H66.74Z"/>
			<path d="M183,254.69H147.81a15.08,15.08,0,0,1-15.06-15.07V204.4a15.08,15.08,0,0,1,15.06-15.07H183A15.08,15.08,0,0,1,198.1,204.4v35.22A15.08,15.08,0,0,1,183,254.69Zm-30.29-20H178.1V209.33H152.75Z"/>
			<path d="M269,254.69H233.81a15.08,15.08,0,0,1-15.06-15.07V204.4a15.08,15.08,0,0,1,15.06-15.07H269A15.08,15.08,0,0,1,284.1,204.4v35.22A15.08,15.08,0,0,1,269,254.69Zm-30.29-20H264.1V209.33H238.75Z"/>
			<path d="M355,254.69H319.81a15.08,15.08,0,0,1-15.06-15.07V204.39a15.08,15.08,0,0,1,15.06-15.06H355a15.08,15.08,0,0,1,15.06,15.06v35.23A15.08,15.08,0,0,1,355,254.69Zm-30.29-20H350.1V209.33H324.75Z"/>
			<path d="M97,339.69H61.81a15.09,15.09,0,0,1-15.07-15.07V289.4a15.09,15.09,0,0,1,15.07-15.07H97A15.08,15.08,0,0,1,112.1,289.4v35.22A15.08,15.08,0,0,1,97,339.69Zm-30.3-20H92.1V294.33H66.74Z"/>
			<path d="M183,339.69H147.81a15.08,15.08,0,0,1-15.06-15.07V289.4a15.08,15.08,0,0,1,15.06-15.07H183A15.08,15.08,0,0,1,198.1,289.4v35.22A15.08,15.08,0,0,1,183,339.69Zm-30.29-20H178.1V294.33H152.75Z"/>
			<path d="M269,339.69H233.81a15.08,15.08,0,0,1-15.06-15.07V289.4a15.08,15.08,0,0,1,15.06-15.07H269A15.08,15.08,0,0,1,284.1,289.4v35.22A15.08,15.08,0,0,1,269,339.69Zm-30.29-20H264.1V294.33H238.75Z"/>
			<path d="M355,339.69H319.81a15.08,15.08,0,0,1-15.06-15.07V289.39a15.08,15.08,0,0,1,15.06-15.06H355a15.08,15.08,0,0,1,15.06,15.06v35.23A15.08,15.08,0,0,1,355,339.69Zm-30.29-20H350.1V294.33H324.75Z"/>
			<path d="M114.1,63.52a10,10,0,0,1-10-10V10a10,10,0,0,1,20,0V53.52A10,10,0,0,1,114.1,63.52Z"/>
			<path d="M291.1,63.52a10,10,0,0,1-10-10V10a10,10,0,0,1,20,0V53.52A10,10,0,0,1,291.1,63.52Z"/>
			<path d="M340.8,22.79H313v20H340.8a47.36,47.36,0,0,1,47.3,47.3v40.82H20.1V90.09a47.36,47.36,0,0,1,47.3-47.3H94.1v-20H67.4A67.38,67.38,0,0,0,.1,90.09v5.14c0,.28,0,.55,0,.83V188.2a9.67,9.67,0,1,0,19.33,0V153.27H388.1V316H388v16.84a47.36,47.36,0,0,1-47.2,44.39H67.4c-24.88,0-46.22-19.31-48.15-43.72V266.64a9.53,9.53,0,1,0-19,0L0,368.53a67.38,67.38,0,0,0,67.3,67.3H340.7a67.38,67.38,0,0,0,67.3-67.3v-35c.06-1.19.1-2.39.1-3.6V90.09A67.38,67.38,0,0,0,340.8,22.79Zm-.1,393H67.3a47.36,47.36,0,0,1-46.18-37.11A67.06,67.06,0,0,0,67.4,397.23H340.8a67.08,67.08,0,0,0,46-18.27A47.37,47.37,0,0,1,340.7,415.83Z"/>
			<circle cx="9.73" cy="227.42" r="9.58"/>
		</g>
	</g>
</svg>
