<svg width="72" height="72" xmlns="http://www.w3.org/2000/svg" viewBox="0 0 506.6 510.87">
	<defs>
		<style>.cls-1{fill:#2440a0;}.cls-2{fill:#4376c4;}.cls-3{fill:#5fa8de;}</style>
	</defs>
	<g>
		<g>
			<polygon class="l-color cls-1" points="374.96 292.27 374.96 450.84 420.67 450.84 420.67 239.71 374.96 292.27"/>
			<polygon class="l-color cls-2" points="167.38 102.56 167.38 470.79 219.11 470.79 213.78 118.79 167.38 102.56"/>
			<path d="M61.88,159.7a10.16,10.16,0,1,0-7.17-3A10.2,10.2,0,0,0,61.88,159.7Z"/>
			<path d="M99.92,159.7h67.46a10.14,10.14,0,0,0,0-20.28H99.92a10.14,10.14,0,1,0,0,20.28Z"/>
			<path d="M61.88,289.55h105.5a10.15,10.15,0,0,0,0-20.29H61.88a10.15,10.15,0,1,0,0,20.29Z"/>
			<path d="M61.88,354.47h105.5a10.15,10.15,0,0,0,0-20.29H61.88a10.15,10.15,0,1,0,0,20.29Z"/>
			<path d="M177.52,409.25a10.15,10.15,0,0,0-10.14-10.15H61.88a10.15,10.15,0,1,0,0,20.29h105.5A10.14,10.14,0,0,0,177.52,409.25Z"/>
			<path class="l-color cls-3" d="M438.22,22.65c10.39,20.1-3.44,56.14-28.44,85.48,2.51-.68,49.2-12.76,49.2-12.76L498.53,9.42S472.54,9.64,438.22,22.65Z"/>
			<circle cx="359.84" cy="168.71" r="9.58"/>
			<path d="M505,4.57A10,10,0,0,0,496.6,0h-.08c-1.46,0-36.34.52-79.12,20.33a232.74,232.74,0,0,0-67.33,47.19,244.32,244.32,0,0,0-18.29,20.63v-.71H271.1v.62l-.73-.6a83.78,83.78,0,0,0-30.79,9,58.19,58.19,0,0,0-20.92,18.08,58.64,58.64,0,0,0-21.17-17.74,83.59,83.59,0,0,0-30.12-8.62v0a77,77,0,0,0-9.15-.56H10.14A10.14,10.14,0,0,0,0,97.83V461a10.15,10.15,0,0,0,10.14,10.15H158.21A55.67,55.67,0,0,1,207.62,501a11.62,11.62,0,0,0,23,0A55.67,55.67,0,0,1,280,471.13H428.08A10.15,10.15,0,0,0,438.22,461V177.41c4.68-20.71,7.21-35.86,7.37-36.81a10,10,0,0,0-4.88-10.31c-6.19-3.56-12.7-8.33-15.87-11.47,5.48-4,20.33-9.76,34.53-13.14a10,10,0,0,0,6.77-5.55l39.55-85.95A10,10,0,0,0,505,4.57ZM158.21,450.84H20.29V108H158.21c7.68,0,16.86,2,24.5,4.14a53.58,53.58,0,0,1,6.11,2.75c13.59,7.2,20.17,18.31,20.11,34v80.29h0V470.18A76,76,0,0,0,158.21,450.84ZM417.93,299.32V450.84H280a75.93,75.93,0,0,0-50.75,19.34V227.46l-.33-.41v-79h0c-.06-15.66,6.5-26.77,20.07-34a64.16,64.16,0,0,1,22.49-6.69h46.4a295.24,295.24,0,0,0-26.34,50.76c-11.61,28.71-19.19,74.4-15.59,94a115.23,115.23,0,0,0,35.57,64.24c-2.8,25.15-4.08,52.48-4.08,86a10,10,0,0,0,20,0c0-31.57,1.23-58.83,4-83.93,9.13-2.21,24.6-6.82,48.29-16.44,10.88-4.41,20.71-15.94,30-35.23q4.14-8.53,8.15-19.16ZM450,87.46c-4.26,1.16-10.83,3.1-17.55,5.61-18.61,7-27.51,14.21-28.85,23.49s7.1,17.09,14.61,22.74c2.27,1.71,4.55,3.27,6.53,4.58-2.16,11.67-7.24,37.31-14.71,63.72-4.55,16.08-20.71,69.06-37.76,76a389.23,389.23,0,0,1-38,13.49,470.4,470.4,0,0,1,22.91-88.9,10,10,0,0,0-18.83-6.74A494.53,494.53,0,0,0,315,291a96.14,96.14,0,0,1-19.35-42.44c-2.68-14.6,3.47-55.73,14.46-82.9,13.33-32.95,31.41-61.1,53.73-83.65a212.8,212.8,0,0,1,116.4-60.37Z"/>
		</g>
	</g>
</svg>
