<svg width="72" height="72" xmlns="http://www.w3.org/2000/svg" viewBox="0 0 496.21 496.21">
	<defs>
		<style>.cls-1{fill:#5fa8de;}</style>
	</defs>
	<g>
		<g>
			<path class="cls-1 l-color" d="M319.77,29.42a233.18,233.18,0,0,1,59.75,156.2c0,129.29-104.82,234.11-234.12,234.11a234.12,234.12,0,0,1-58.75-7.44A233.51,233.51,0,0,0,261,490.21c129.3,0,234.12-104.82,234.12-234.12C495.14,147.09,420.64,55.48,319.77,29.42Z"/>
			<path d="M423.54,72.67A248.1,248.1,0,1,0,72.67,423.54,248.1,248.1,0,1,0,423.54,72.67ZM409.4,86.81c3,3,5.91,6.09,8.73,9.23A89.61,89.61,0,0,1,360,132.43V117.94A116.38,116.38,0,0,0,322.61,32.4,227.22,227.22,0,0,1,409.4,86.81Zm-176-61.54v82a10,10,0,1,0,20,0v-82a93.34,93.34,0,0,1,83.2,92.67v15.67H150.15V117.94A93.34,93.34,0,0,1,233.36,25.27ZM86.81,86.81A227.85,227.85,0,0,1,158.09,38.4a116.21,116.21,0,0,0-31.4,79.54v13.6A88.49,88.49,0,0,1,75.74,99.17c-.07-.09-.14-.16-.21-.24Q80.93,92.71,86.81,86.81ZM62.83,115a108,108,0,0,0,82.93,38.63h190.8v95.5H203.25a10,10,0,0,0,0,20H336.56v69.12H150.15V229.58a11.73,11.73,0,1,0-23.46,0v15.27H20A226.31,226.31,0,0,1,62.83,115Zm-.61,265.41A226,226,0,0,1,20.6,264.85H126.69v75.54A109.78,109.78,0,0,0,62.22,380.39Zm24.59,29c-4.11-4.1-8-8.35-11.78-12.7a89.66,89.66,0,0,1,51.66-35.8v12.46a116.43,116.43,0,0,0,40.15,88A227.53,227.53,0,0,1,86.81,409.4ZM253.36,466V383.29a10,10,0,0,0-20,0V466a93.34,93.34,0,0,1-83.21-92.67V358.23H336.56v15.13A93.34,93.34,0,0,1,253.36,466Zm156-56.63a226.83,226.83,0,0,1-96.34,57.47,116.57,116.57,0,0,0,47-93.51V359a88.36,88.36,0,0,1,58,33.63,9.88,9.88,0,0,0,4,3.05Q416,402.77,409.4,409.4Zm24.52-28.91a.36.36,0,0,1-.07-.1A108.15,108.15,0,0,0,360,338.89V269.11H475.25A225.79,225.79,0,0,1,433.92,380.49Zm42-131.38H360V152.65A109.64,109.64,0,0,0,431.18,112a226.37,226.37,0,0,1,45,136.14c0,.34,0,.67,0,1Z"/>
			<path d="M138.06,199.11a11.68,11.68,0,1,0-11.67-11.68A11.67,11.67,0,0,0,138.06,199.11Z"/>
		</g>
	</g>
</svg>
