<svg xmlns="http://www.w3.org/2000/svg" viewBox="0 0 1380.24 266.88" fill="white"><path d="M119.49.72a116,116,0,0,0-13.18,21.76,187.17,187.17,0,0,0-10,26.4H236.55A133.42,133.42,0,0,0,119.49.72Z"/><path d="M95.45,5.46A133.58,133.58,0,0,0,30.09,48.88h48A192.36,192.36,0,0,1,95.45,5.46Z"/><path d="M438.7,142.34H369.63v56.81H348.17v-133h94.9V86.48H369.63V122H438.7Z"/><path d="M573.5,146.71a62.54,62.54,0,0,1-4.37,24.08A45,45,0,0,1,557.07,188a52.81,52.81,0,0,1-17.86,10.07,73.34,73.34,0,0,1-44.27,0A52.72,52.72,0,0,1,477.08,188,45.1,45.1,0,0,1,465,170.79a62.73,62.73,0,0,1-4.37-24.08V66.15h21.47V145.1q0,18.24,9.36,27t25.6,8.79q16.24,0,25.61-8.79t9.35-27V66.15H573.5Z"/><path d="M687.39,199.15H592.3v-133h21.47V178.82h73.62Z"/><path d="M753.14,66.15a96.87,96.87,0,0,1,16.1,1.24,59.19,59.19,0,0,1,13.68,3.94,35.47,35.47,0,0,1,10.69,6.89,29.13,29.13,0,0,1,6.84,10.3,36.89,36.89,0,0,1,2.47,13.83,29.34,29.34,0,0,1-5.8,17.9,27.31,27.31,0,0,1-14.72,10.41,34.33,34.33,0,0,1,16.76,11.25,29.28,29.28,0,0,1,6.8,19.24q0,19.29-13.11,28.64t-36.67,9.36H701.55v-133ZM723,86.29v35.82h29.45c3.29,0,6.18-.11,8.65-.34a37.65,37.65,0,0,0,7.5-1.47,18.75,18.75,0,0,0,6.27-3.09,13.77,13.77,0,0,0,4-5.27,19.13,19.13,0,0,0,1.52-8,17.71,17.71,0,0,0-2.18-9.17,13.11,13.11,0,0,0-6.42-5.41A36.49,36.49,0,0,0,763.06,87a74.17,74.17,0,0,0-10.78-.67Zm0,55.86V179h32.21a75.24,75.24,0,0,0,11.63-.76,29.52,29.52,0,0,0,8.74-2.75,13.12,13.12,0,0,0,5.89-5.75,20.15,20.15,0,0,0,2-9.36q0-10.44-7.12-14.34t-21.09-3.9Z"/><path d="M883.05,66.15q23.09,0,35.11,9.83t12,28.65q0,16.91-12,27.36T885.81,143.2l43.79,56H903l-42.37-56H849.8v56H828.33v-133ZM849.8,86.29v37.43h32.68q13,0,19.19-4.7t6.18-14.39q0-9.41-6.27-13.87t-19.1-4.47Z"/><path d="M972.8,200H951.33V67H972.8Z"/><path d="M1065,64.52a73.85,73.85,0,0,1,29,5.6A62.52,62.52,0,0,1,1116.49,86l-15.77,15.29a44.59,44.59,0,0,0-15.58-11.87A47.3,47.3,0,0,0,1065,85.13q-20.43,0-33.77,13.49t-13.35,34.87q0,21.28,13.16,34.82t33,13.53q18,0,28.69-8.88t13.2-25.6H1070.7v-20h58.52c.12,2.41.19,4.12.19,5.13a80.28,80.28,0,0,1-4.51,27,69.22,69.22,0,0,1-12.69,22.18,57.73,57.73,0,0,1-20.66,15.06,67,67,0,0,1-27.5,5.55,73,73,0,0,1-20.28-2.85A68.55,68.55,0,0,1,1009.66,177a62.58,62.58,0,0,1-10.45-19.33,74,74,0,0,1-3.85-24.13q0-19.76,9-35.53a63.73,63.73,0,0,1,24.89-24.61Q1045.15,64.51,1065,64.52Z"/><path d="M1166.26,122.85h71.82V67h21.47V200h-21.47V143.18h-71.82V200h-21.47V67h21.47Z"/><path d="M1380.24,87.32h-43V200h-21.47V87.32h-43V67h107.54Z"/><path d="M247.59,64.52H92.23a296.08,296.08,0,0,0-6.91,58.36h181A132.64,132.64,0,0,0,247.59,64.52Z"/><path d="M19.05,64.52A132.5,132.5,0,0,0,.31,122.88h67.5a316.37,316.37,0,0,1,6.47-58.36Z"/><path d="M85.35,138.8c1,37.6,8.33,72.54,21,99.15,5.74,12.07,12.32,21.76,19.33,28.71,2.55.14,5.1.22,7.68.22A133.44,133.44,0,0,0,266.64,138.8Z"/><path d="M0,138.8A133.5,133.5,0,0,0,100.18,262.73c-18.81-28.57-31.1-72.88-32.34-123.93Z"/></svg>
