<?xml version="1.0" encoding="utf-8"?><svg xmlns="http://www.w3.org/2000/svg" xmlns:xlink="http://www.w3.org/1999/xlink"><symbol viewBox="0 0 110 24" id="icon-subscribe" xmlns="http://www.w3.org/2000/svg"><path d="M19.382 16.168a8.264 8.264 0 01-2.254-.308c-.719-.215-1.297-.49-1.736-.826l.77-1.708c.42.308.92.555 1.498.742.579.187 1.157.28 1.736.28.644 0 1.12-.093 1.428-.28.308-.196.462-.453.462-.77a.703.703 0 00-.28-.574 1.918 1.918 0 00-.7-.378c-.28-.093-.663-.196-1.148-.308a15.964 15.964 0 01-1.834-.532 3.032 3.032 0 01-1.232-.854c-.336-.392-.504-.915-.504-1.568 0-.57.154-1.083.462-1.54.308-.467.77-.835 1.386-1.106.625-.27 1.386-.406 2.282-.406a7.55 7.55 0 011.834.224 5.44 5.44 0 011.568.644l-.7 1.722c-.905-.513-1.81-.77-2.716-.77-.635 0-1.106.103-1.414.308-.299.205-.448.476-.448.812 0 .336.173.588.518.756.355.159.891.317 1.61.476.747.177 1.358.355 1.834.532.476.177.882.457 1.218.84.345.383.518.9.518 1.554a2.68 2.68 0 01-.476 1.54c-.308.457-.775.821-1.4 1.092-.625.27-1.386.406-2.282.406zm13.142-7.7V16h-2.072v-.896a2.97 2.97 0 01-1.036.756 3.337 3.337 0 01-1.302.252c-.99 0-1.774-.285-2.352-.854-.579-.57-.868-1.414-.868-2.534V8.468h2.184v3.934c0 1.213.508 1.82 1.526 1.82.522 0 .942-.168 1.26-.504.317-.345.476-.854.476-1.526V8.468h2.184zm6.475-.112c.7 0 1.335.163 1.904.49.579.317 1.031.77 1.358 1.358.327.579.49 1.255.49 2.03 0 .775-.163 1.456-.49 2.044a3.517 3.517 0 01-1.358 1.358 3.844 3.844 0 01-1.904.476c-1.036 0-1.825-.327-2.366-.98V16h-2.086V5.612h2.184v3.654c.55-.607 1.307-.91 2.268-.91zm-.378 5.964c.56 0 1.017-.187 1.372-.56.364-.383.546-.891.546-1.526s-.182-1.139-.546-1.512c-.355-.383-.812-.574-1.372-.574s-1.022.191-1.386.574c-.355.373-.532.877-.532 1.512s.177 1.143.532 1.526c.364.373.826.56 1.386.56zm8.126 1.792a7.534 7.534 0 01-1.834-.224c-.597-.159-1.073-.355-1.428-.588l.728-1.568c.336.215.742.392 1.218.532.476.13.943.196 1.4.196.924 0 1.386-.229 1.386-.686 0-.215-.126-.369-.378-.462-.252-.093-.64-.173-1.162-.238-.616-.093-1.125-.2-1.526-.322a2.415 2.415 0 01-1.05-.644c-.29-.308-.434-.747-.434-1.316 0-.476.135-.896.406-1.26.28-.373.681-.663 1.204-.868.532-.205 1.157-.308 1.876-.308.532 0 1.06.06 1.582.182.532.112.97.27 1.316.476l-.728 1.554a4.347 4.347 0 00-2.17-.56c-.467 0-.817.065-1.05.196-.233.13-.35.299-.35.504 0 .233.126.397.378.49.252.093.653.182 1.204.266.616.103 1.12.215 1.512.336.392.112.733.322 1.022.63.29.308.434.737.434 1.288 0 .467-.14.882-.42 1.246-.28.364-.69.649-1.232.854-.532.196-1.167.294-1.904.294zm8.544 0c-.803 0-1.526-.163-2.17-.49a3.833 3.833 0 01-1.498-1.386c-.355-.588-.532-1.255-.532-2.002 0-.747.177-1.414.532-2.002A3.733 3.733 0 0153.12 8.86c.644-.336 1.367-.504 2.17-.504.793 0 1.484.168 2.072.504a2.905 2.905 0 011.302 1.414l-1.694.91c-.392-.69-.957-1.036-1.694-1.036-.57 0-1.041.187-1.414.56-.374.373-.56.882-.56 1.526s.186 1.153.56 1.526c.373.373.844.56 1.414.56.746 0 1.31-.345 1.694-1.036l1.694.924a2.999 2.999 0 01-1.302 1.4c-.588.336-1.28.504-2.072.504zm6.717-6.65c.261-.364.611-.64 1.05-.826.448-.187.961-.28 1.54-.28v2.016a7.856 7.856 0 00-.49-.028c-.625 0-1.115.177-1.47.532-.355.345-.532.868-.532 1.568V16h-2.184V8.468h2.086v.994zm3.889-.994h2.184V16h-2.184V8.468zm1.092-1.05c-.402 0-.728-.117-.98-.35a1.135 1.135 0 01-.378-.868c0-.345.126-.635.378-.868.252-.233.578-.35.98-.35.401 0 .728.112.98.336.252.224.378.504.378.84 0 .364-.126.667-.378.91-.252.233-.579.35-.98.35zm7.57.938c.7 0 1.335.163 1.905.49.578.317 1.03.77 1.358 1.358.326.579.49 1.255.49 2.03 0 .775-.164 1.456-.49 2.044a3.517 3.517 0 01-1.358 1.358 3.844 3.844 0 01-1.904.476c-1.036 0-1.825-.327-2.366-.98V16h-2.086V5.612h2.184v3.654c.55-.607 1.306-.91 2.268-.91zm-.377 5.964c.56 0 1.017-.187 1.372-.56.364-.383.546-.891.546-1.526s-.182-1.139-.546-1.512c-.355-.383-.812-.574-1.372-.574s-1.022.191-1.386.574c-.355.373-.532.877-.532 1.512s.177 1.143.532 1.526c.364.373.826.56 1.386.56zm12.97-2.058c0 .028-.014.224-.042.588h-5.698c.102.467.345.835.728 1.106.382.27.858.406 1.428.406.392 0 .737-.056 1.036-.168a2.6 2.6 0 00.854-.56l1.162 1.26c-.71.812-1.746 1.218-3.108 1.218-.85 0-1.601-.163-2.254-.49a3.69 3.69 0 01-1.512-1.386c-.355-.588-.532-1.255-.532-2.002 0-.737.172-1.4.518-1.988a3.676 3.676 0 011.442-1.386 4.227 4.227 0 012.058-.504c.737 0 1.404.159 2.002.476a3.416 3.416 0 011.4 1.372c.345.588.518 1.274.518 2.058zm-3.906-2.254c-.495 0-.91.14-1.246.42-.336.28-.542.663-.616 1.148h3.71c-.075-.476-.28-.854-.616-1.134-.336-.29-.747-.434-1.232-.434z"/><path d="M19.382 16.168a8.264 8.264 0 01-2.254-.308c-.719-.215-1.297-.49-1.736-.826l.77-1.708c.42.308.92.555 1.498.742.579.187 1.157.28 1.736.28.644 0 1.12-.093 1.428-.28.308-.196.462-.453.462-.77a.703.703 0 00-.28-.574 1.918 1.918 0 00-.7-.378c-.28-.093-.663-.196-1.148-.308a15.964 15.964 0 01-1.834-.532 3.032 3.032 0 01-1.232-.854c-.336-.392-.504-.915-.504-1.568 0-.57.154-1.083.462-1.54.308-.467.77-.835 1.386-1.106.625-.27 1.386-.406 2.282-.406a7.55 7.55 0 011.834.224 5.44 5.44 0 011.568.644l-.7 1.722c-.905-.513-1.81-.77-2.716-.77-.635 0-1.106.103-1.414.308-.299.205-.448.476-.448.812 0 .336.173.588.518.756.355.159.891.317 1.61.476.747.177 1.358.355 1.834.532.476.177.882.457 1.218.84.345.383.518.9.518 1.554a2.68 2.68 0 01-.476 1.54c-.308.457-.775.821-1.4 1.092-.625.27-1.386.406-2.282.406zm13.142-7.7V16h-2.072v-.896a2.97 2.97 0 01-1.036.756 3.337 3.337 0 01-1.302.252c-.99 0-1.774-.285-2.352-.854-.579-.57-.868-1.414-.868-2.534V8.468h2.184v3.934c0 1.213.508 1.82 1.526 1.82.522 0 .942-.168 1.26-.504.317-.345.476-.854.476-1.526V8.468h2.184zm6.475-.112c.7 0 1.335.163 1.904.49.579.317 1.031.77 1.358 1.358.327.579.49 1.255.49 2.03 0 .775-.163 1.456-.49 2.044a3.517 3.517 0 01-1.358 1.358 3.844 3.844 0 01-1.904.476c-1.036 0-1.825-.327-2.366-.98V16h-2.086V5.612h2.184v3.654c.55-.607 1.307-.91 2.268-.91zm-.378 5.964c.56 0 1.017-.187 1.372-.56.364-.383.546-.891.546-1.526s-.182-1.139-.546-1.512c-.355-.383-.812-.574-1.372-.574s-1.022.191-1.386.574c-.355.373-.532.877-.532 1.512s.177 1.143.532 1.526c.364.373.826.56 1.386.56zm8.126 1.792a7.534 7.534 0 01-1.834-.224c-.597-.159-1.073-.355-1.428-.588l.728-1.568c.336.215.742.392 1.218.532.476.13.943.196 1.4.196.924 0 1.386-.229 1.386-.686 0-.215-.126-.369-.378-.462-.252-.093-.64-.173-1.162-.238-.616-.093-1.125-.2-1.526-.322a2.415 2.415 0 01-1.05-.644c-.29-.308-.434-.747-.434-1.316 0-.476.135-.896.406-1.26.28-.373.681-.663 1.204-.868.532-.205 1.157-.308 1.876-.308.532 0 1.06.06 1.582.182.532.112.97.27 1.316.476l-.728 1.554a4.347 4.347 0 00-2.17-.56c-.467 0-.817.065-1.05.196-.233.13-.35.299-.35.504 0 .233.126.397.378.49.252.093.653.182 1.204.266.616.103 1.12.215 1.512.336.392.112.733.322 1.022.63.29.308.434.737.434 1.288 0 .467-.14.882-.42 1.246-.28.364-.69.649-1.232.854-.532.196-1.167.294-1.904.294zm8.544 0c-.803 0-1.526-.163-2.17-.49a3.833 3.833 0 01-1.498-1.386c-.355-.588-.532-1.255-.532-2.002 0-.747.177-1.414.532-2.002A3.733 3.733 0 0153.12 8.86c.644-.336 1.367-.504 2.17-.504.793 0 1.484.168 2.072.504a2.905 2.905 0 011.302 1.414l-1.694.91c-.392-.69-.957-1.036-1.694-1.036-.57 0-1.041.187-1.414.56-.374.373-.56.882-.56 1.526s.186 1.153.56 1.526c.373.373.844.56 1.414.56.746 0 1.31-.345 1.694-1.036l1.694.924a2.999 2.999 0 01-1.302 1.4c-.588.336-1.28.504-2.072.504zm6.717-6.65c.261-.364.611-.64 1.05-.826.448-.187.961-.28 1.54-.28v2.016a7.856 7.856 0 00-.49-.028c-.625 0-1.115.177-1.47.532-.355.345-.532.868-.532 1.568V16h-2.184V8.468h2.086v.994zm3.889-.994h2.184V16h-2.184V8.468zm1.092-1.05c-.402 0-.728-.117-.98-.35a1.135 1.135 0 01-.378-.868c0-.345.126-.635.378-.868.252-.233.578-.35.98-.35.401 0 .728.112.98.336.252.224.378.504.378.84 0 .364-.126.667-.378.91-.252.233-.579.35-.98.35zm7.57.938c.7 0 1.335.163 1.905.49.578.317 1.03.77 1.358 1.358.326.579.49 1.255.49 2.03 0 .775-.164 1.456-.49 2.044a3.517 3.517 0 01-1.358 1.358 3.844 3.844 0 01-1.904.476c-1.036 0-1.825-.327-2.366-.98V16h-2.086V5.612h2.184v3.654c.55-.607 1.306-.91 2.268-.91zm-.377 5.964c.56 0 1.017-.187 1.372-.56.364-.383.546-.891.546-1.526s-.182-1.139-.546-1.512c-.355-.383-.812-.574-1.372-.574s-1.022.191-1.386.574c-.355.373-.532.877-.532 1.512s.177 1.143.532 1.526c.364.373.826.56 1.386.56zm12.97-2.058c0 .028-.014.224-.042.588h-5.698c.102.467.345.835.728 1.106.382.27.858.406 1.428.406.392 0 .737-.056 1.036-.168a2.6 2.6 0 00.854-.56l1.162 1.26c-.71.812-1.746 1.218-3.108 1.218-.85 0-1.601-.163-2.254-.49a3.69 3.69 0 01-1.512-1.386c-.355-.588-.532-1.255-.532-2.002 0-.737.172-1.4.518-1.988a3.676 3.676 0 011.442-1.386 4.227 4.227 0 012.058-.504c.737 0 1.404.159 2.002.476a3.416 3.416 0 011.4 1.372c.345.588.518 1.274.518 2.058zm-3.906-2.254c-.495 0-.91.14-1.246.42-.336.28-.542.663-.616 1.148h3.71c-.075-.476-.28-.854-.616-1.134-.336-.29-.747-.434-1.232-.434zM99.172 12l-4.95-4.95 1.414-1.414L102 12l-6.364 6.364-1.414-1.414 4.95-4.95z"/><defs><linearGradient id="apaint0_linear" x1="-40" y1="-53" x2="83.5" y2="11" gradientUnits="userSpaceOnUse"><stop stop-color="#0841A2"/><stop offset="1" stop-color="#1CAADE"/></linearGradient><linearGradient id="apaint1_linear" x1="-40" y1="-53" x2="83.5" y2="11" gradientUnits="userSpaceOnUse"><stop stop-color="#0841A2"/><stop offset=".594" stop-color="#1CAADE"/><stop offset=".828" stop-color="#0085F5"/><stop offset="1" stop-color="#1CAADE"/></linearGradient><linearGradient id="apaint2_linear" x1="94" y1="3.5" x2="102" y2="15" gradientUnits="userSpaceOnUse"><stop stop-color="#0841A2"/><stop offset="1" stop-color="#1CAADE"/></linearGradient></defs></symbol></svg>