<svg width="110" height="24" viewBox="0 0 110 24" fill="none" xmlns="http://www.w3.org/2000/svg">
<path d="M13.7 7.6V16H11.768V9.184H7.976V16H6.044V7.6H13.7ZM18.4823 16.096C17.8023 16.096 17.1903 15.956 16.6463 15.676C16.1103 15.388 15.6903 14.992 15.3863 14.488C15.0823 13.984 14.9303 13.412 14.9303 12.772C14.9303 12.132 15.0823 11.56 15.3863 11.056C15.6903 10.552 16.1103 10.16 16.6463 9.88C17.1903 9.592 17.8023 9.448 18.4823 9.448C19.1623 9.448 19.7703 9.592 20.3063 9.88C20.8423 10.16 21.2623 10.552 21.5663 11.056C21.8703 11.56 22.0223 12.132 22.0223 12.772C22.0223 13.412 21.8703 13.984 21.5663 14.488C21.2623 14.992 20.8423 15.388 20.3063 15.676C19.7703 15.956 19.1623 16.096 18.4823 16.096ZM18.4823 14.56C18.9623 14.56 19.3543 14.4 19.6583 14.08C19.9703 13.752 20.1263 13.316 20.1263 12.772C20.1263 12.228 19.9703 11.796 19.6583 11.476C19.3543 11.148 18.9623 10.984 18.4823 10.984C18.0023 10.984 17.6063 11.148 17.2943 11.476C16.9823 11.796 16.8263 12.228 16.8263 12.772C16.8263 13.316 16.9823 13.752 17.2943 14.08C17.6063 14.4 18.0023 14.56 18.4823 14.56ZM30.2721 14.464V17.392H28.5321V16H23.9961V17.392H22.2561V14.464H22.5201C22.9201 14.456 23.1961 14.22 23.3481 13.756C23.5001 13.292 23.5961 12.632 23.6361 11.776L23.7201 9.544H29.3481V14.464H30.2721ZM25.3281 11.908C25.3041 12.564 25.2521 13.1 25.1721 13.516C25.1001 13.932 24.9601 14.248 24.7521 14.464H27.4761V11.08H25.3641L25.3281 11.908ZM37.6902 9.544V16H35.8182V11.08H33.1302V16H31.2702V9.544H37.6902ZM39.305 9.544H41.165V13.384L44.309 9.544H46.025V16H44.165V12.16L41.033 16H39.305V9.544ZM50.7165 16.096C50.0285 16.096 49.4085 15.956 48.8565 15.676C48.3125 15.388 47.8845 14.992 47.5725 14.488C47.2685 13.984 47.1165 13.412 47.1165 12.772C47.1165 12.132 47.2685 11.56 47.5725 11.056C47.8845 10.552 48.3125 10.16 48.8565 9.88C49.4085 9.592 50.0285 9.448 50.7165 9.448C51.3965 9.448 51.9885 9.592 52.4925 9.88C53.0045 10.16 53.3765 10.564 53.6085 11.092L52.1565 11.872C51.8205 11.28 51.3365 10.984 50.7045 10.984C50.2165 10.984 49.8125 11.144 49.4925 11.464C49.1725 11.784 49.0125 12.22 49.0125 12.772C49.0125 13.324 49.1725 13.76 49.4925 14.08C49.8125 14.4 50.2165 14.56 50.7045 14.56C51.3445 14.56 51.8285 14.264 52.1565 13.672L53.6085 14.464C53.3765 14.976 53.0045 15.376 52.4925 15.664C51.9885 15.952 51.3965 16.096 50.7165 16.096ZM57.0741 9.448C58.0741 9.448 58.8421 9.688 59.3781 10.168C59.9141 10.64 60.1821 11.356 60.1821 12.316V16H58.4301V15.196C58.0781 15.796 57.4221 16.096 56.4621 16.096C55.9661 16.096 55.5341 16.012 55.1661 15.844C54.8061 15.676 54.5301 15.444 54.3381 15.148C54.1461 14.852 54.0501 14.516 54.0501 14.14C54.0501 13.54 54.2741 13.068 54.7221 12.724C55.1781 12.38 55.8781 12.208 56.8221 12.208H58.3101C58.3101 11.8 58.1861 11.488 57.9381 11.272C57.6901 11.048 57.3181 10.936 56.8221 10.936C56.4781 10.936 56.1381 10.992 55.8021 11.104C55.4741 11.208 55.1941 11.352 54.9621 11.536L54.2901 10.228C54.6421 9.98 55.0621 9.788 55.5501 9.652C56.0461 9.516 56.5541 9.448 57.0741 9.448ZM56.9301 14.836C57.2501 14.836 57.5341 14.764 57.7821 14.62C58.0301 14.468 58.2061 14.248 58.3101 13.96V13.3H57.0261C56.2581 13.3 55.8741 13.552 55.8741 14.056C55.8741 14.296 55.9661 14.488 56.1501 14.632C56.3421 14.768 56.6021 14.836 56.9301 14.836ZM67.0523 11.08H64.8683V16H63.0083V11.08H60.8243V9.544H67.0523V11.08ZM71.3622 11.608C72.2022 11.616 72.8462 11.808 73.2942 12.184C73.7422 12.552 73.9662 13.076 73.9662 13.756C73.9662 14.468 73.7142 15.024 73.2102 15.424C72.7142 15.816 72.0142 16.012 71.1102 16.012L67.8702 16V9.544H69.7302V11.608H71.3622ZM70.9422 14.68C71.3022 14.688 71.5782 14.612 71.7702 14.452C71.9622 14.292 72.0582 14.052 72.0582 13.732C72.0582 13.42 71.9622 13.192 71.7702 13.048C71.5862 12.904 71.3102 12.828 70.9422 12.82L69.7302 12.808V14.68H70.9422ZM78.0278 16.096C77.3398 16.096 76.7198 15.956 76.1678 15.676C75.6238 15.388 75.1958 14.992 74.8838 14.488C74.5798 13.984 74.4278 13.412 74.4278 12.772C74.4278 12.132 74.5798 11.56 74.8838 11.056C75.1958 10.552 75.6238 10.16 76.1678 9.88C76.7198 9.592 77.3398 9.448 78.0278 9.448C78.7078 9.448 79.2998 9.592 79.8038 9.88C80.3158 10.16 80.6878 10.564 80.9198 11.092L79.4678 11.872C79.1318 11.28 78.6478 10.984 78.0158 10.984C77.5278 10.984 77.1238 11.144 76.8038 11.464C76.4838 11.784 76.3238 12.22 76.3238 12.772C76.3238 13.324 76.4838 13.76 76.8038 14.08C77.1238 14.4 77.5278 14.56 78.0158 14.56C78.6558 14.56 79.1398 14.264 79.4678 13.672L80.9198 14.464C80.6878 14.976 80.3158 15.376 79.8038 15.664C79.2998 15.952 78.7078 16.096 78.0278 16.096ZM87.4493 9.544V16H85.7813V14.152H84.4013L83.1773 16H81.1853L82.6613 13.888C82.2133 13.712 81.8693 13.46 81.6293 13.132C81.3973 12.796 81.2813 12.392 81.2813 11.92C81.2813 11.16 81.5533 10.576 82.0973 10.168C82.6493 9.752 83.4053 9.544 84.3653 9.544H87.4493ZM84.4013 11.068C84.0013 11.068 83.6973 11.14 83.4893 11.284C83.2893 11.428 83.1893 11.66 83.1893 11.98C83.1893 12.3 83.2853 12.536 83.4773 12.688C83.6773 12.832 83.9773 12.904 84.3773 12.904H85.7813V11.068H84.4013Z" fill="url(#paint0_linear)"/>
<path d="M13.7 7.6V16H11.768V9.184H7.976V16H6.044V7.6H13.7ZM18.4823 16.096C17.8023 16.096 17.1903 15.956 16.6463 15.676C16.1103 15.388 15.6903 14.992 15.3863 14.488C15.0823 13.984 14.9303 13.412 14.9303 12.772C14.9303 12.132 15.0823 11.56 15.3863 11.056C15.6903 10.552 16.1103 10.16 16.6463 9.88C17.1903 9.592 17.8023 9.448 18.4823 9.448C19.1623 9.448 19.7703 9.592 20.3063 9.88C20.8423 10.16 21.2623 10.552 21.5663 11.056C21.8703 11.56 22.0223 12.132 22.0223 12.772C22.0223 13.412 21.8703 13.984 21.5663 14.488C21.2623 14.992 20.8423 15.388 20.3063 15.676C19.7703 15.956 19.1623 16.096 18.4823 16.096ZM18.4823 14.56C18.9623 14.56 19.3543 14.4 19.6583 14.08C19.9703 13.752 20.1263 13.316 20.1263 12.772C20.1263 12.228 19.9703 11.796 19.6583 11.476C19.3543 11.148 18.9623 10.984 18.4823 10.984C18.0023 10.984 17.6063 11.148 17.2943 11.476C16.9823 11.796 16.8263 12.228 16.8263 12.772C16.8263 13.316 16.9823 13.752 17.2943 14.08C17.6063 14.4 18.0023 14.56 18.4823 14.56ZM30.2721 14.464V17.392H28.5321V16H23.9961V17.392H22.2561V14.464H22.5201C22.9201 14.456 23.1961 14.22 23.3481 13.756C23.5001 13.292 23.5961 12.632 23.6361 11.776L23.7201 9.544H29.3481V14.464H30.2721ZM25.3281 11.908C25.3041 12.564 25.2521 13.1 25.1721 13.516C25.1001 13.932 24.9601 14.248 24.7521 14.464H27.4761V11.08H25.3641L25.3281 11.908ZM37.6902 9.544V16H35.8182V11.08H33.1302V16H31.2702V9.544H37.6902ZM39.305 9.544H41.165V13.384L44.309 9.544H46.025V16H44.165V12.16L41.033 16H39.305V9.544ZM50.7165 16.096C50.0285 16.096 49.4085 15.956 48.8565 15.676C48.3125 15.388 47.8845 14.992 47.5725 14.488C47.2685 13.984 47.1165 13.412 47.1165 12.772C47.1165 12.132 47.2685 11.56 47.5725 11.056C47.8845 10.552 48.3125 10.16 48.8565 9.88C49.4085 9.592 50.0285 9.448 50.7165 9.448C51.3965 9.448 51.9885 9.592 52.4925 9.88C53.0045 10.16 53.3765 10.564 53.6085 11.092L52.1565 11.872C51.8205 11.28 51.3365 10.984 50.7045 10.984C50.2165 10.984 49.8125 11.144 49.4925 11.464C49.1725 11.784 49.0125 12.22 49.0125 12.772C49.0125 13.324 49.1725 13.76 49.4925 14.08C49.8125 14.4 50.2165 14.56 50.7045 14.56C51.3445 14.56 51.8285 14.264 52.1565 13.672L53.6085 14.464C53.3765 14.976 53.0045 15.376 52.4925 15.664C51.9885 15.952 51.3965 16.096 50.7165 16.096ZM57.0741 9.448C58.0741 9.448 58.8421 9.688 59.3781 10.168C59.9141 10.64 60.1821 11.356 60.1821 12.316V16H58.4301V15.196C58.0781 15.796 57.4221 16.096 56.4621 16.096C55.9661 16.096 55.5341 16.012 55.1661 15.844C54.8061 15.676 54.5301 15.444 54.3381 15.148C54.1461 14.852 54.0501 14.516 54.0501 14.14C54.0501 13.54 54.2741 13.068 54.7221 12.724C55.1781 12.38 55.8781 12.208 56.8221 12.208H58.3101C58.3101 11.8 58.1861 11.488 57.9381 11.272C57.6901 11.048 57.3181 10.936 56.8221 10.936C56.4781 10.936 56.1381 10.992 55.8021 11.104C55.4741 11.208 55.1941 11.352 54.9621 11.536L54.2901 10.228C54.6421 9.98 55.0621 9.788 55.5501 9.652C56.0461 9.516 56.5541 9.448 57.0741 9.448ZM56.9301 14.836C57.2501 14.836 57.5341 14.764 57.7821 14.62C58.0301 14.468 58.2061 14.248 58.3101 13.96V13.3H57.0261C56.2581 13.3 55.8741 13.552 55.8741 14.056C55.8741 14.296 55.9661 14.488 56.1501 14.632C56.3421 14.768 56.6021 14.836 56.9301 14.836ZM67.0523 11.08H64.8683V16H63.0083V11.08H60.8243V9.544H67.0523V11.08ZM71.3622 11.608C72.2022 11.616 72.8462 11.808 73.2942 12.184C73.7422 12.552 73.9662 13.076 73.9662 13.756C73.9662 14.468 73.7142 15.024 73.2102 15.424C72.7142 15.816 72.0142 16.012 71.1102 16.012L67.8702 16V9.544H69.7302V11.608H71.3622ZM70.9422 14.68C71.3022 14.688 71.5782 14.612 71.7702 14.452C71.9622 14.292 72.0582 14.052 72.0582 13.732C72.0582 13.42 71.9622 13.192 71.7702 13.048C71.5862 12.904 71.3102 12.828 70.9422 12.82L69.7302 12.808V14.68H70.9422ZM78.0278 16.096C77.3398 16.096 76.7198 15.956 76.1678 15.676C75.6238 15.388 75.1958 14.992 74.8838 14.488C74.5798 13.984 74.4278 13.412 74.4278 12.772C74.4278 12.132 74.5798 11.56 74.8838 11.056C75.1958 10.552 75.6238 10.16 76.1678 9.88C76.7198 9.592 77.3398 9.448 78.0278 9.448C78.7078 9.448 79.2998 9.592 79.8038 9.88C80.3158 10.16 80.6878 10.564 80.9198 11.092L79.4678 11.872C79.1318 11.28 78.6478 10.984 78.0158 10.984C77.5278 10.984 77.1238 11.144 76.8038 11.464C76.4838 11.784 76.3238 12.22 76.3238 12.772C76.3238 13.324 76.4838 13.76 76.8038 14.08C77.1238 14.4 77.5278 14.56 78.0158 14.56C78.6558 14.56 79.1398 14.264 79.4678 13.672L80.9198 14.464C80.6878 14.976 80.3158 15.376 79.8038 15.664C79.2998 15.952 78.7078 16.096 78.0278 16.096ZM87.4493 9.544V16H85.7813V14.152H84.4013L83.1773 16H81.1853L82.6613 13.888C82.2133 13.712 81.8693 13.46 81.6293 13.132C81.3973 12.796 81.2813 12.392 81.2813 11.92C81.2813 11.16 81.5533 10.576 82.0973 10.168C82.6493 9.752 83.4053 9.544 84.3653 9.544H87.4493ZM84.4013 11.068C84.0013 11.068 83.6973 11.14 83.4893 11.284C83.2893 11.428 83.1893 11.66 83.1893 11.98C83.1893 12.3 83.2853 12.536 83.4773 12.688C83.6773 12.832 83.9773 12.904 84.3773 12.904H85.7813V11.068H84.4013Z" fill="url(#paint1_linear)"/>
<path d="M99.1722 12L94.2222 7.04999L95.6362 5.63599L102 12L95.6362 18.364L94.2222 16.95L99.1722 12Z" fill="url(#paint2_linear)"/>
<defs>
<linearGradient id="paint0_linear" x1="-58.2877" y1="-51.9999" x2="74.6983" y2="27.3002" gradientUnits="userSpaceOnUse">
<stop stop-color="#0841A2"/>
<stop offset="1" stop-color="#1CAADE"/>
</linearGradient>
<linearGradient id="paint1_linear" x1="-58.2877" y1="-51.9999" x2="74.6983" y2="27.3002" gradientUnits="userSpaceOnUse">
<stop stop-color="#0841A2"/>
<stop offset="0.59375" stop-color="#1CAADE"/>
<stop offset="0.828125" stop-color="#0085F5"/>
<stop offset="1" stop-color="#1CAADE"/>
</linearGradient>
<linearGradient id="paint2_linear" x1="94" y1="3.49986" x2="102" y2="15.0001" gradientUnits="userSpaceOnUse">
<stop stop-color="#0841A2"/>
<stop offset="1" stop-color="#1CAADE"/>
</linearGradient>
</defs>
</svg>
