<svg width="110" height="24" viewBox="0 0 110 24" fill="none" xmlns="http://www.w3.org/2000/svg">
	<path
		d="M19.382 16.168C18.6073 16.168 17.856 16.0653 17.128 15.86C16.4093 15.6453 15.8307 15.37 15.392 15.034L16.162 13.326C16.582 13.634 17.0813 13.8813 17.66 14.068C18.2387 14.2547 18.8173 14.348 19.396 14.348C20.04 14.348 20.516 14.2547 20.824 14.068C21.132 13.872 21.286 13.6153 21.286 13.298C21.286 13.0647 21.1927 12.8733 21.006 12.724C20.8287 12.5653 20.5953 12.4393 20.306 12.346C20.026 12.2527 19.6433 12.15 19.158 12.038C18.4113 11.8607 17.8 11.6833 17.324 11.506C16.848 11.3287 16.4373 11.044 16.092 10.652C15.756 10.26 15.588 9.73733 15.588 9.084C15.588 8.51467 15.742 8.00133 16.05 7.544C16.358 7.07733 16.82 6.70867 17.436 6.438C18.0613 6.16733 18.822 6.032 19.718 6.032C20.3433 6.032 20.9547 6.10667 21.552 6.256C22.1493 6.40533 22.672 6.62 23.12 6.9L22.42 8.622C21.5147 8.10867 20.6093 7.852 19.704 7.852C19.0693 7.852 18.598 7.95467 18.29 8.16C17.9913 8.36533 17.842 8.636 17.842 8.972C17.842 9.308 18.0147 9.56 18.36 9.728C18.7147 9.88667 19.2513 10.0453 19.97 10.204C20.7167 10.3813 21.328 10.5587 21.804 10.736C22.28 10.9133 22.686 11.1933 23.022 11.576C23.3673 11.9587 23.54 12.4767 23.54 13.13C23.54 13.69 23.3813 14.2033 23.064 14.67C22.756 15.1273 22.2893 15.4913 21.664 15.762C21.0387 16.0327 20.278 16.168 19.382 16.168ZM32.5237 8.468V16H30.4517V15.104C30.1624 15.4307 29.8171 15.6827 29.4157 15.86C29.0144 16.028 28.5804 16.112 28.1137 16.112C27.1244 16.112 26.3404 15.8273 25.7617 15.258C25.1831 14.6887 24.8937 13.844 24.8937 12.724V8.468H27.0777V12.402C27.0777 13.6153 27.5864 14.222 28.6037 14.222C29.1264 14.222 29.5464 14.054 29.8637 13.718C30.1811 13.3727 30.3397 12.864 30.3397 12.192V8.468H32.5237ZM38.9991 8.356C39.6991 8.356 40.3337 8.51933 40.9031 8.846C41.4817 9.16333 41.9344 9.616 42.2611 10.204C42.5877 10.7827 42.7511 11.4593 42.7511 12.234C42.7511 13.0087 42.5877 13.69 42.2611 14.278C41.9344 14.8567 41.4817 15.3093 40.9031 15.636C40.3337 15.9533 39.6991 16.112 38.9991 16.112C37.9631 16.112 37.1744 15.7853 36.6331 15.132V16H34.5471V5.612H36.7311V9.266C37.2817 8.65933 38.0377 8.356 38.9991 8.356ZM38.6211 14.32C39.1811 14.32 39.6384 14.1333 39.9931 13.76C40.3571 13.3773 40.5391 12.8687 40.5391 12.234C40.5391 11.5993 40.3571 11.0953 39.9931 10.722C39.6384 10.3393 39.1811 10.148 38.6211 10.148C38.0611 10.148 37.5991 10.3393 37.2351 10.722C36.8804 11.0953 36.7031 11.5993 36.7031 12.234C36.7031 12.8687 36.8804 13.3773 37.2351 13.76C37.5991 14.1333 38.0611 14.32 38.6211 14.32ZM46.7471 16.112C46.1217 16.112 45.5104 16.0373 44.9131 15.888C44.3157 15.7293 43.8397 15.5333 43.4851 15.3L44.2131 13.732C44.5491 13.9467 44.9551 14.124 45.4311 14.264C45.9071 14.3947 46.3737 14.46 46.8311 14.46C47.7551 14.46 48.2171 14.2313 48.2171 13.774C48.2171 13.5593 48.0911 13.4053 47.8391 13.312C47.5871 13.2187 47.1997 13.1393 46.6771 13.074C46.0611 12.9807 45.5524 12.8733 45.1511 12.752C44.7497 12.6307 44.3997 12.416 44.1011 12.108C43.8117 11.8 43.6671 11.3613 43.6671 10.792C43.6671 10.316 43.8024 9.896 44.0731 9.532C44.3531 9.15867 44.7544 8.86933 45.2771 8.664C45.8091 8.45867 46.4344 8.356 47.1531 8.356C47.6851 8.356 48.2124 8.41667 48.7351 8.538C49.2671 8.65 49.7057 8.80867 50.0511 9.014L49.3231 10.568C48.6604 10.1947 47.9371 10.008 47.1531 10.008C46.6864 10.008 46.3364 10.0733 46.1031 10.204C45.8697 10.3347 45.7531 10.5027 45.7531 10.708C45.7531 10.9413 45.8791 11.1047 46.1311 11.198C46.3831 11.2913 46.7844 11.38 47.3351 11.464C47.9511 11.5667 48.4551 11.6787 48.8471 11.8C49.2391 11.912 49.5797 12.122 49.8691 12.43C50.1584 12.738 50.3031 13.1673 50.3031 13.718C50.3031 14.1847 50.1631 14.6 49.8831 14.964C49.6031 15.328 49.1924 15.6127 48.6511 15.818C48.1191 16.014 47.4844 16.112 46.7471 16.112ZM55.2906 16.112C54.4879 16.112 53.7646 15.9487 53.1206 15.622C52.4859 15.286 51.9866 14.824 51.6226 14.236C51.2679 13.648 51.0906 12.9807 51.0906 12.234C51.0906 11.4873 51.2679 10.82 51.6226 10.232C51.9866 9.644 52.4859 9.18667 53.1206 8.86C53.7646 8.524 54.4879 8.356 55.2906 8.356C56.0839 8.356 56.7746 8.524 57.3626 8.86C57.9599 9.18667 58.3939 9.658 58.6646 10.274L56.9706 11.184C56.5786 10.4933 56.0139 10.148 55.2766 10.148C54.7072 10.148 54.2359 10.3347 53.8626 10.708C53.4892 11.0813 53.3026 11.59 53.3026 12.234C53.3026 12.878 53.4892 13.3867 53.8626 13.76C54.2359 14.1333 54.7072 14.32 55.2766 14.32C56.0232 14.32 56.5879 13.9747 56.9706 13.284L58.6646 14.208C58.3939 14.8053 57.9599 15.272 57.3626 15.608C56.7746 15.944 56.0839 16.112 55.2906 16.112ZM62.0081 9.462C62.2694 9.098 62.6194 8.82267 63.0581 8.636C63.5061 8.44933 64.0194 8.356 64.5981 8.356V10.372C64.3554 10.3533 64.1921 10.344 64.1081 10.344C63.4827 10.344 62.9927 10.5213 62.6381 10.876C62.2834 11.2213 62.1061 11.744 62.1061 12.444V16H59.9221V8.468H62.0081V9.462ZM65.8967 8.468H68.0807V16H65.8967V8.468ZM66.9887 7.418C66.5873 7.418 66.2607 7.30133 66.0087 7.068C65.7567 6.83467 65.6307 6.54533 65.6307 6.2C65.6307 5.85467 65.7567 5.56533 66.0087 5.332C66.2607 5.09867 66.5873 4.982 66.9887 4.982C67.39 4.982 67.7167 5.094 67.9687 5.318C68.2207 5.542 68.3467 5.822 68.3467 6.158C68.3467 6.522 68.2207 6.82533 67.9687 7.068C67.7167 7.30133 67.39 7.418 66.9887 7.418ZM74.5596 8.356C75.2596 8.356 75.8943 8.51933 76.4636 8.846C77.0423 9.16333 77.4949 9.616 77.8216 10.204C78.1483 10.7827 78.3116 11.4593 78.3116 12.234C78.3116 13.0087 78.1483 13.69 77.8216 14.278C77.4949 14.8567 77.0423 15.3093 76.4636 15.636C75.8943 15.9533 75.2596 16.112 74.5596 16.112C73.5236 16.112 72.7349 15.7853 72.1936 15.132V16H70.1076V5.612H72.2916V9.266C72.8423 8.65933 73.5983 8.356 74.5596 8.356ZM74.1816 14.32C74.7416 14.32 75.1989 14.1333 75.5536 13.76C75.9176 13.3773 76.0996 12.8687 76.0996 12.234C76.0996 11.5993 75.9176 11.0953 75.5536 10.722C75.1989 10.3393 74.7416 10.148 74.1816 10.148C73.6216 10.148 73.1596 10.3393 72.7956 10.722C72.4409 11.0953 72.2636 11.5993 72.2636 12.234C72.2636 12.8687 72.4409 13.3773 72.7956 13.76C73.1596 14.1333 73.6216 14.32 74.1816 14.32ZM87.1516 12.262C87.1516 12.29 87.1376 12.486 87.1096 12.85H81.4116C81.5143 13.3167 81.757 13.6853 82.1396 13.956C82.5223 14.2267 82.9983 14.362 83.5676 14.362C83.9596 14.362 84.305 14.306 84.6036 14.194C84.9116 14.0727 85.1963 13.886 85.4576 13.634L86.6196 14.894C85.9103 15.706 84.8743 16.112 83.5116 16.112C82.6623 16.112 81.911 15.9487 81.2576 15.622C80.6043 15.286 80.1003 14.824 79.7456 14.236C79.391 13.648 79.2136 12.9807 79.2136 12.234C79.2136 11.4967 79.3863 10.834 79.7316 10.246C80.0863 9.64867 80.567 9.18667 81.1736 8.86C81.7896 8.524 82.4756 8.356 83.2316 8.356C83.969 8.356 84.6363 8.51467 85.2336 8.832C85.831 9.14933 86.2976 9.60667 86.6336 10.204C86.979 10.792 87.1516 11.478 87.1516 12.262ZM83.2456 10.008C82.751 10.008 82.3356 10.148 81.9996 10.428C81.6636 10.708 81.4583 11.0907 81.3836 11.576H85.0936C85.019 11.1 84.8136 10.722 84.4776 10.442C84.1416 10.1527 83.731 10.008 83.2456 10.008Z"
		fill="white"/>
	<path
		d="M19.382 16.168C18.6073 16.168 17.856 16.0653 17.128 15.86C16.4093 15.6453 15.8307 15.37 15.392 15.034L16.162 13.326C16.582 13.634 17.0813 13.8813 17.66 14.068C18.2387 14.2547 18.8173 14.348 19.396 14.348C20.04 14.348 20.516 14.2547 20.824 14.068C21.132 13.872 21.286 13.6153 21.286 13.298C21.286 13.0647 21.1927 12.8733 21.006 12.724C20.8287 12.5653 20.5953 12.4393 20.306 12.346C20.026 12.2527 19.6433 12.15 19.158 12.038C18.4113 11.8607 17.8 11.6833 17.324 11.506C16.848 11.3287 16.4373 11.044 16.092 10.652C15.756 10.26 15.588 9.73733 15.588 9.084C15.588 8.51467 15.742 8.00133 16.05 7.544C16.358 7.07733 16.82 6.70867 17.436 6.438C18.0613 6.16733 18.822 6.032 19.718 6.032C20.3433 6.032 20.9547 6.10667 21.552 6.256C22.1493 6.40533 22.672 6.62 23.12 6.9L22.42 8.622C21.5147 8.10867 20.6093 7.852 19.704 7.852C19.0693 7.852 18.598 7.95467 18.29 8.16C17.9913 8.36533 17.842 8.636 17.842 8.972C17.842 9.308 18.0147 9.56 18.36 9.728C18.7147 9.88667 19.2513 10.0453 19.97 10.204C20.7167 10.3813 21.328 10.5587 21.804 10.736C22.28 10.9133 22.686 11.1933 23.022 11.576C23.3673 11.9587 23.54 12.4767 23.54 13.13C23.54 13.69 23.3813 14.2033 23.064 14.67C22.756 15.1273 22.2893 15.4913 21.664 15.762C21.0387 16.0327 20.278 16.168 19.382 16.168ZM32.5237 8.468V16H30.4517V15.104C30.1624 15.4307 29.8171 15.6827 29.4157 15.86C29.0144 16.028 28.5804 16.112 28.1137 16.112C27.1244 16.112 26.3404 15.8273 25.7617 15.258C25.1831 14.6887 24.8937 13.844 24.8937 12.724V8.468H27.0777V12.402C27.0777 13.6153 27.5864 14.222 28.6037 14.222C29.1264 14.222 29.5464 14.054 29.8637 13.718C30.1811 13.3727 30.3397 12.864 30.3397 12.192V8.468H32.5237ZM38.9991 8.356C39.6991 8.356 40.3337 8.51933 40.9031 8.846C41.4817 9.16333 41.9344 9.616 42.2611 10.204C42.5877 10.7827 42.7511 11.4593 42.7511 12.234C42.7511 13.0087 42.5877 13.69 42.2611 14.278C41.9344 14.8567 41.4817 15.3093 40.9031 15.636C40.3337 15.9533 39.6991 16.112 38.9991 16.112C37.9631 16.112 37.1744 15.7853 36.6331 15.132V16H34.5471V5.612H36.7311V9.266C37.2817 8.65933 38.0377 8.356 38.9991 8.356ZM38.6211 14.32C39.1811 14.32 39.6384 14.1333 39.9931 13.76C40.3571 13.3773 40.5391 12.8687 40.5391 12.234C40.5391 11.5993 40.3571 11.0953 39.9931 10.722C39.6384 10.3393 39.1811 10.148 38.6211 10.148C38.0611 10.148 37.5991 10.3393 37.2351 10.722C36.8804 11.0953 36.7031 11.5993 36.7031 12.234C36.7031 12.8687 36.8804 13.3773 37.2351 13.76C37.5991 14.1333 38.0611 14.32 38.6211 14.32ZM46.7471 16.112C46.1217 16.112 45.5104 16.0373 44.9131 15.888C44.3157 15.7293 43.8397 15.5333 43.4851 15.3L44.2131 13.732C44.5491 13.9467 44.9551 14.124 45.4311 14.264C45.9071 14.3947 46.3737 14.46 46.8311 14.46C47.7551 14.46 48.2171 14.2313 48.2171 13.774C48.2171 13.5593 48.0911 13.4053 47.8391 13.312C47.5871 13.2187 47.1997 13.1393 46.6771 13.074C46.0611 12.9807 45.5524 12.8733 45.1511 12.752C44.7497 12.6307 44.3997 12.416 44.1011 12.108C43.8117 11.8 43.6671 11.3613 43.6671 10.792C43.6671 10.316 43.8024 9.896 44.0731 9.532C44.3531 9.15867 44.7544 8.86933 45.2771 8.664C45.8091 8.45867 46.4344 8.356 47.1531 8.356C47.6851 8.356 48.2124 8.41667 48.7351 8.538C49.2671 8.65 49.7057 8.80867 50.0511 9.014L49.3231 10.568C48.6604 10.1947 47.9371 10.008 47.1531 10.008C46.6864 10.008 46.3364 10.0733 46.1031 10.204C45.8697 10.3347 45.7531 10.5027 45.7531 10.708C45.7531 10.9413 45.8791 11.1047 46.1311 11.198C46.3831 11.2913 46.7844 11.38 47.3351 11.464C47.9511 11.5667 48.4551 11.6787 48.8471 11.8C49.2391 11.912 49.5797 12.122 49.8691 12.43C50.1584 12.738 50.3031 13.1673 50.3031 13.718C50.3031 14.1847 50.1631 14.6 49.8831 14.964C49.6031 15.328 49.1924 15.6127 48.6511 15.818C48.1191 16.014 47.4844 16.112 46.7471 16.112ZM55.2906 16.112C54.4879 16.112 53.7646 15.9487 53.1206 15.622C52.4859 15.286 51.9866 14.824 51.6226 14.236C51.2679 13.648 51.0906 12.9807 51.0906 12.234C51.0906 11.4873 51.2679 10.82 51.6226 10.232C51.9866 9.644 52.4859 9.18667 53.1206 8.86C53.7646 8.524 54.4879 8.356 55.2906 8.356C56.0839 8.356 56.7746 8.524 57.3626 8.86C57.9599 9.18667 58.3939 9.658 58.6646 10.274L56.9706 11.184C56.5786 10.4933 56.0139 10.148 55.2766 10.148C54.7072 10.148 54.2359 10.3347 53.8626 10.708C53.4892 11.0813 53.3026 11.59 53.3026 12.234C53.3026 12.878 53.4892 13.3867 53.8626 13.76C54.2359 14.1333 54.7072 14.32 55.2766 14.32C56.0232 14.32 56.5879 13.9747 56.9706 13.284L58.6646 14.208C58.3939 14.8053 57.9599 15.272 57.3626 15.608C56.7746 15.944 56.0839 16.112 55.2906 16.112ZM62.0081 9.462C62.2694 9.098 62.6194 8.82267 63.0581 8.636C63.5061 8.44933 64.0194 8.356 64.5981 8.356V10.372C64.3554 10.3533 64.1921 10.344 64.1081 10.344C63.4827 10.344 62.9927 10.5213 62.6381 10.876C62.2834 11.2213 62.1061 11.744 62.1061 12.444V16H59.9221V8.468H62.0081V9.462ZM65.8967 8.468H68.0807V16H65.8967V8.468ZM66.9887 7.418C66.5873 7.418 66.2607 7.30133 66.0087 7.068C65.7567 6.83467 65.6307 6.54533 65.6307 6.2C65.6307 5.85467 65.7567 5.56533 66.0087 5.332C66.2607 5.09867 66.5873 4.982 66.9887 4.982C67.39 4.982 67.7167 5.094 67.9687 5.318C68.2207 5.542 68.3467 5.822 68.3467 6.158C68.3467 6.522 68.2207 6.82533 67.9687 7.068C67.7167 7.30133 67.39 7.418 66.9887 7.418ZM74.5596 8.356C75.2596 8.356 75.8943 8.51933 76.4636 8.846C77.0423 9.16333 77.4949 9.616 77.8216 10.204C78.1483 10.7827 78.3116 11.4593 78.3116 12.234C78.3116 13.0087 78.1483 13.69 77.8216 14.278C77.4949 14.8567 77.0423 15.3093 76.4636 15.636C75.8943 15.9533 75.2596 16.112 74.5596 16.112C73.5236 16.112 72.7349 15.7853 72.1936 15.132V16H70.1076V5.612H72.2916V9.266C72.8423 8.65933 73.5983 8.356 74.5596 8.356ZM74.1816 14.32C74.7416 14.32 75.1989 14.1333 75.5536 13.76C75.9176 13.3773 76.0996 12.8687 76.0996 12.234C76.0996 11.5993 75.9176 11.0953 75.5536 10.722C75.1989 10.3393 74.7416 10.148 74.1816 10.148C73.6216 10.148 73.1596 10.3393 72.7956 10.722C72.4409 11.0953 72.2636 11.5993 72.2636 12.234C72.2636 12.8687 72.4409 13.3773 72.7956 13.76C73.1596 14.1333 73.6216 14.32 74.1816 14.32ZM87.1516 12.262C87.1516 12.29 87.1376 12.486 87.1096 12.85H81.4116C81.5143 13.3167 81.757 13.6853 82.1396 13.956C82.5223 14.2267 82.9983 14.362 83.5676 14.362C83.9596 14.362 84.305 14.306 84.6036 14.194C84.9116 14.0727 85.1963 13.886 85.4576 13.634L86.6196 14.894C85.9103 15.706 84.8743 16.112 83.5116 16.112C82.6623 16.112 81.911 15.9487 81.2576 15.622C80.6043 15.286 80.1003 14.824 79.7456 14.236C79.391 13.648 79.2136 12.9807 79.2136 12.234C79.2136 11.4967 79.3863 10.834 79.7316 10.246C80.0863 9.64867 80.567 9.18667 81.1736 8.86C81.7896 8.524 82.4756 8.356 83.2316 8.356C83.969 8.356 84.6363 8.51467 85.2336 8.832C85.831 9.14933 86.2976 9.60667 86.6336 10.204C86.979 10.792 87.1516 11.478 87.1516 12.262ZM83.2456 10.008C82.751 10.008 82.3356 10.148 81.9996 10.428C81.6636 10.708 81.4583 11.0907 81.3836 11.576H85.0936C85.019 11.1 84.8136 10.722 84.4776 10.442C84.1416 10.1527 83.731 10.008 83.2456 10.008Z"
		fill="white"/>
	<path d="M99.1722 12L94.2222 7.04999L95.6362 5.63599L102 12L95.6362 18.364L94.2222 16.95L99.1722 12Z" fill="white"/>
</svg>
