<svg width="36" height="36" viewBox="0 0 36 36" fill="none" xmlns="http://www.w3.org/2000/svg">
<path d="M27.546 26.046L18 35.592L8.45401 26.046C6.56601 24.158 5.28028 21.7525 4.75939 19.1338C4.23851 16.515 4.50586 13.8007 5.52765 11.3339C6.54944 8.86706 8.27977 6.75866 10.4998 5.27527C12.7199 3.79188 15.33 3.00012 18 3.00012C20.67 3.00012 23.2801 3.79188 25.5002 5.27527C27.7202 6.75866 29.4506 8.86706 30.4724 11.3339C31.4942 13.8007 31.7615 16.515 31.2406 19.1338C30.7197 21.7525 29.434 24.158 27.546 26.046V26.046ZM18 19.5C18.7957 19.5 19.5587 19.1839 20.1213 18.6213C20.6839 18.0587 21 17.2957 21 16.5C21 15.7044 20.6839 14.9413 20.1213 14.3787C19.5587 13.8161 18.7957 13.5 18 13.5C17.2044 13.5 16.4413 13.8161 15.8787 14.3787C15.3161 14.9413 15 15.7044 15 16.5C15 17.2957 15.3161 18.0587 15.8787 18.6213C16.4413 19.1839 17.2044 19.5 18 19.5Z" fill="url(#paint0_linear)"/>
<defs>
<linearGradient id="paint0_linear" x1="4.5" y1="3.00012" x2="31.5" y2="3.00012" gradientUnits="userSpaceOnUse">
<stop stop-color="#0841A2"/>
<stop offset="1" stop-color="#1CAADE"/>
</linearGradient>
</defs>
</svg>
